<svg width="20" height="20" viewBox="0 0 20 20" fill="none" xmlns="http://www.w3.org/2000/svg">
<g clip-path="url(#clip0)">
<path d="M8.18322 9.62864C9.50116 9.62864 10.6427 9.15413 11.5753 8.21828C12.5078 7.28244 12.9807 6.13738 12.9807 4.81432C12.9807 3.49175 12.5078 2.34669 11.5753 1.41035C10.6427 0.474507 9.50116 0 8.18322 0C6.86478 0 5.72373 0.474507 4.79116 1.41035C3.85859 2.3462 3.38574 3.49175 3.38574 4.81432C3.38574 6.13738 3.85859 7.28244 4.79116 8.21828C5.72422 9.15413 6.86527 9.62864 8.18322 9.62864ZM5.61682 2.23842C6.33265 1.52008 7.17192 1.17139 8.18322 1.17139C9.19451 1.17139 10.0343 1.52057 10.7501 2.23842C11.4659 2.95677 11.8139 3.79947 11.8139 4.81383C11.8139 5.82868 11.4659 6.67138 10.7501 7.38973C10.0343 8.10807 9.19451 8.45724 8.18322 8.45724C7.17192 8.45724 6.33265 8.10807 5.61682 7.38973C4.90099 6.67138 4.55304 5.82917 4.55304 4.81383C4.55304 3.79947 4.90099 2.95677 5.61682 2.23842Z" fill="#4B4A4B"/>
<path d="M13.0998 18.1697C13.0998 17.9278 12.937 17.7171 12.7037 17.6566C12.3354 17.561 11.9825 17.4143 11.654 17.2192C11.5656 17.167 11.4752 17.1446 11.3887 17.1446C11.238 17.1446 11.1005 17.2114 11.0121 17.3006L10.6374 17.6766C10.5927 17.722 10.5329 17.7469 10.4692 17.7469C10.4051 17.7469 10.3448 17.722 10.2996 17.6766L9.75729 17.1324C9.7121 17.0875 9.68731 17.027 9.68731 16.9627C9.68731 16.8988 9.7121 16.8388 9.75729 16.7939L10.1315 16.4184C10.3021 16.2473 10.3351 15.9824 10.2126 15.7742C10.0187 15.445 9.87198 15.0905 9.77722 14.7208C9.71696 14.4868 9.50702 14.3234 9.26598 14.3234H8.73773C8.60603 14.3234 8.49912 14.2161 8.49912 14.0839V13.3144C8.49912 13.1822 8.60603 13.0749 8.73773 13.0749H9.26598C9.50702 13.0749 9.71696 12.9116 9.77722 12.6775C9.8297 12.4736 9.89822 12.2747 9.98132 12.082C9.9716 12.0854 9.96237 12.0884 9.95265 12.0918C9.4108 12.2678 8.85728 12.3571 8.30814 12.3571C8.16672 12.3571 8.0253 12.3507 7.88389 12.339C7.61369 12.5775 7.44263 12.9262 7.44263 13.3149V14.0844C7.44263 14.8008 8.02336 15.3836 8.73724 15.3836H8.8738C8.94038 15.5757 9.01862 15.7649 9.10707 15.9478L9.01036 16.0449C8.76543 16.2902 8.63082 16.6159 8.63082 16.9622C8.63082 17.3104 8.76543 17.6371 9.00987 17.8824L9.55173 18.4262C9.79617 18.672 10.1218 18.8071 10.4692 18.8071C10.8143 18.8071 11.1389 18.672 11.3833 18.4267L11.4805 18.3291C11.6628 18.4184 11.8513 18.4969 12.0428 18.5632V18.7003C12.0428 18.7393 12.0447 18.7783 12.0481 18.8163H13.1037C13.1124 18.8163 13.1212 18.8158 13.1299 18.8158C13.111 18.7812 13.0988 18.7422 13.0988 18.6998V18.1697H13.0998Z" fill="#4B4A4B"/>
<path d="M11.654 10.1776C11.982 9.98299 12.3353 9.83571 12.7032 9.74061C12.745 9.72989 12.7848 9.71379 12.8218 9.6938C12.6322 9.66746 12.4369 9.6543 12.2367 9.6543C12.0335 9.6543 11.8367 9.73818 11.4567 9.98592C11.3585 10.0503 11.2531 10.1191 11.1413 10.1912C11.3002 10.2741 11.4936 10.2727 11.654 10.1776Z" fill="#4B4A4B"/>
<path d="M18.7054 12.0162H18.5688C18.5022 11.8236 18.424 11.6349 18.3356 11.452L18.4323 11.3549C18.6772 11.1096 18.8118 10.7839 18.8118 10.4376C18.8118 10.0894 18.6772 9.76268 18.4328 9.51738L17.8909 8.97363C17.6465 8.72784 17.3209 8.59275 16.9734 8.59275C16.6284 8.59275 16.3037 8.72784 16.0593 8.97314L15.9621 9.07067C15.7799 8.98143 15.5913 8.90291 15.3998 8.83659V8.69955C15.3998 7.98316 14.8191 7.40039 14.1052 7.40039H13.3384C12.6245 7.40039 12.0437 7.98316 12.0437 8.69955V8.83659C11.8523 8.9034 11.6637 8.98192 11.4815 9.07067L11.3848 8.97363C11.1403 8.72784 10.8157 8.59275 10.4702 8.59275C10.1232 8.59275 9.79759 8.72784 9.55364 8.97314L9.01179 9.5169C8.76686 9.7622 8.63224 10.0889 8.63224 10.4371C8.63224 10.6941 8.7066 10.9394 8.84461 11.1491C8.66578 11.1735 8.48694 11.1862 8.30908 11.1862C7.8824 11.1862 7.44988 11.116 7.02369 10.978C6.58778 10.8365 6.23399 10.6805 5.97352 10.5132C5.67124 10.3196 5.39764 10.1426 5.16049 9.9875C4.78095 9.73927 4.58462 9.65588 4.381 9.65588C3.86296 9.65588 3.37942 9.74366 2.94253 9.91728C2.50468 10.0914 2.12562 10.3303 1.81558 10.6278C1.51962 10.9121 1.25574 11.2574 1.03122 11.6534C0.814968 12.0352 0.640019 12.4337 0.511238 12.838C0.38683 13.2286 0.282833 13.6558 0.201677 14.1079C0.121492 14.556 0.0670635 14.9808 0.0403353 15.3714C0.0136071 15.7528 0 16.1497 0 16.5511C0 17.5947 0.330458 18.4394 0.982141 19.0621C1.62605 19.6771 2.47746 19.9887 3.51355 19.9887H13.1046C13.1231 19.9887 13.1415 19.9877 13.16 19.9877C13.2183 19.996 13.2781 20.0004 13.3384 20.0004H14.1052C14.5533 20.0004 14.9493 19.7707 15.1816 19.4225C15.3196 19.2162 15.3998 18.968 15.3998 18.7013V18.5642C15.5913 18.4974 15.7799 18.4189 15.9621 18.3301L16.0588 18.4272C16.0763 18.4447 16.0943 18.4613 16.1123 18.4779C16.3494 18.691 16.6527 18.8081 16.9734 18.8081C17.3204 18.8081 17.646 18.673 17.8899 18.4277L18.4318 17.8839C18.6748 17.6406 18.8094 17.3163 18.8113 16.9705C18.8133 16.6213 18.6787 16.2931 18.4323 16.0464L18.3351 15.9488C18.424 15.766 18.5018 15.5767 18.5683 15.3846H18.7049C19.4188 15.3846 19.9995 14.8018 19.9995 14.0854V13.3159C20 12.599 19.4193 12.0162 18.7054 12.0162ZM18.944 14.0849C18.944 14.2088 18.8492 14.3102 18.7287 14.3219C18.7209 14.3229 18.7132 14.3244 18.7054 14.3244H18.1771C18.1227 14.3244 18.0697 14.3332 18.0197 14.3488C17.8491 14.4024 17.7126 14.5409 17.6659 14.7218C17.5706 15.0915 17.4244 15.446 17.2305 15.7752C17.1075 15.9835 17.1411 16.2483 17.3116 16.4194L17.6863 16.7954C17.731 16.8403 17.7558 16.9003 17.7558 16.9642C17.7558 17.0285 17.731 17.089 17.6858 17.1344L17.1435 17.6786C17.0988 17.7235 17.0385 17.7483 16.9744 17.7483C16.9107 17.7483 16.8509 17.7235 16.8057 17.6781L16.5346 17.406L16.4315 17.3026C16.261 17.1314 15.9971 17.0983 15.7896 17.2212C15.6355 17.3129 15.4756 17.3933 15.3114 17.4631C15.1262 17.5421 14.9352 17.6074 14.7404 17.6581C14.5071 17.7186 14.3443 17.9293 14.3443 18.1712V18.5574C14.0056 18.7286 13.6042 18.8144 13.1313 18.8173C13.1226 18.8173 13.1138 18.8178 13.1051 18.8178H12.0496H3.51355C2.77682 18.8178 2.21213 18.6203 1.7869 18.2141C1.36994 17.8156 1.16681 17.2714 1.16681 16.5516C1.16681 16.1771 1.17896 15.8074 1.20374 15.4524C1.22755 15.1042 1.27664 14.7214 1.34953 14.3151C1.42146 13.9138 1.51282 13.5368 1.62167 13.1954C1.72616 12.8682 1.86855 12.5444 2.04495 12.2323C2.21358 11.9348 2.40748 11.6797 2.62131 11.4744C2.82153 11.2823 3.07375 11.1248 3.37116 11.0067C3.64622 10.8975 3.95481 10.838 4.29061 10.8287C4.33143 10.8507 4.40433 10.8921 4.52242 10.9692C4.76248 11.1262 5.039 11.3052 5.34467 11.5012C5.68922 11.7217 6.1334 11.9211 6.66408 12.0928C7.06694 12.2235 7.47564 12.3064 7.88434 12.34C8.02576 12.3517 8.16717 12.3581 8.30859 12.3581C8.85773 12.3581 9.41076 12.2688 9.9531 12.0928C9.96282 12.0894 9.97206 12.0864 9.98178 12.083C10.0493 11.926 10.1261 11.7734 10.2131 11.6256C10.336 11.4174 10.3025 11.1521 10.1319 10.9814L9.98809 10.837L9.75726 10.6054C9.71206 10.5605 9.68728 10.5005 9.68728 10.4366C9.68728 10.3723 9.71206 10.3118 9.75726 10.2665L10.2996 9.72221C10.3443 9.67734 10.4046 9.65247 10.4682 9.65247C10.5319 9.65247 10.5917 9.67734 10.6369 9.72269L11.0111 10.0982C11.0499 10.1372 11.0937 10.1689 11.1408 10.1933C11.2526 10.1211 11.358 10.0524 11.4562 9.98799C11.8357 9.73976 12.0326 9.65637 12.2362 9.65637C12.4364 9.65637 12.6318 9.67003 12.8213 9.69587C12.9894 9.60516 13.0988 9.42765 13.0988 9.22966V8.69955C13.0988 8.56739 13.2057 8.46011 13.3374 8.46011H14.1042C14.2359 8.46011 14.3429 8.56739 14.3429 8.69955V9.23014C14.3429 9.47203 14.5056 9.6827 14.7389 9.74318C15.1073 9.83876 15.4601 9.98555 15.7886 10.1801C15.9961 10.3035 16.2605 10.2699 16.4306 10.0987L16.8052 9.72269C16.85 9.67734 16.9097 9.65247 16.9734 9.65247C17.0375 9.65247 17.0978 9.67734 17.143 9.72269L17.6853 10.2669C17.7305 10.3118 17.7553 10.3723 17.7553 10.4366C17.7553 10.5005 17.7305 10.5605 17.6853 10.6054L17.3111 10.9809C17.1406 11.1521 17.107 11.4169 17.23 11.6251C17.4239 11.9543 17.5707 12.3088 17.6654 12.6785C17.7257 12.9126 17.9356 13.0759 18.1766 13.0759H18.7049C18.8366 13.0759 18.9435 13.1832 18.9435 13.3154V14.0849H18.944Z" fill="#4B4A4B"/>
<path d="M15.4863 11.4836C15.0023 11.0944 14.389 10.8613 13.7218 10.8613C13.4934 10.8613 13.2713 10.8891 13.0584 10.9408C11.8177 11.2412 10.8934 12.3634 10.8934 13.6991C10.8934 15.2641 12.1623 16.5374 13.7218 16.5374C14.3676 16.5374 14.9629 16.3184 15.4397 15.9517C15.9383 15.5679 16.3061 15.0217 16.4641 14.3926C16.52 14.1707 16.5496 13.9386 16.5496 13.6996C16.5496 12.8032 16.1336 12.0039 15.4863 11.4836ZM15.3002 14.5057C15.0067 15.0817 14.4094 15.4777 13.7218 15.4777C12.7445 15.4777 11.9494 14.6798 11.9494 13.6991C11.9494 12.7184 12.7445 11.9206 13.7218 11.9206C13.9978 11.9206 14.2592 11.9844 14.4925 12.0976C15.0844 12.3858 15.4941 12.9954 15.4941 13.6986C15.4936 13.9893 15.4236 14.2633 15.3002 14.5057Z" fill="#4B4A4B"/>
</g>
<defs>
<clipPath id="clip0">
<rect width="20" height="20" fill="white"/>
</clipPath>
</defs>
</svg>
