<svg width="22" height="22" viewBox="0 0 22 22" fill="none" xmlns="http://www.w3.org/2000/svg">
<path d="M8.29221 9.0897C9.12696 9.0897 9.80366 8.413 9.80366 7.57825C9.80366 6.7435 9.12696 6.0668 8.29221 6.0668C7.45746 6.0668 6.78076 6.7435 6.78076 7.57825C6.78076 8.413 7.45746 9.0897 8.29221 9.0897Z" fill="currentColor"/>
<path d="M20.6985 13.1412C19.9847 12.4695 19.0821 12.0286 18.0954 11.9027V4.21948C18.0954 3.40077 17.7595 2.66604 17.2347 2.12024C16.6889 1.57444 15.9542 1.25955 15.1355 1.25955H2.95992C2.14122 1.25955 1.40649 1.59543 0.860687 2.12024C0.314885 2.66604 0 3.40077 0 4.21948V13.897V14.7996V16.7519C0 17.5706 0.335878 18.3054 0.860687 18.8512C1.40649 19.397 2.14122 19.7118 2.95992 19.7118H14.7366C15.5134 20.3416 16.479 20.7405 17.5496 20.7405C18.7882 20.7405 19.9008 20.2366 20.6985 19.4389C21.4962 18.6412 22 17.5286 22 16.2901C22 15.0515 21.4962 13.9389 20.6985 13.1412ZM1.1126 4.21948C1.1126 3.71566 1.32252 3.25383 1.6584 2.91795C1.99427 2.58207 2.45611 2.37215 2.95992 2.37215H15.1355C15.6393 2.37215 16.1011 2.58207 16.437 2.91795C16.7729 3.25383 16.9828 3.71566 16.9828 4.21948V10.7691L13.876 7.68321C13.666 7.47329 13.3092 7.4523 13.0782 7.68321L8.39695 12.3855L5.2271 9.19466C5.01718 8.98474 4.66031 8.96375 4.42939 9.19466L1.1126 12.5534V4.21948ZM2.93893 18.6202V18.5992C2.43511 18.5992 1.97328 18.3893 1.6374 18.0534C1.32252 17.7176 1.1126 17.2557 1.1126 16.7519V14.7996V14.1279L4.84924 10.3912L8.01908 13.5611C8.22901 13.771 8.58588 13.771 8.81679 13.5611L13.4981 8.85879L16.563 11.9447C16.5 11.9657 16.437 11.9866 16.374 12.0076C16.2901 12.0286 16.2061 12.0496 16.1011 12.0916C16.0172 12.1126 15.9332 12.1546 15.8492 12.1756C15.7863 12.1966 15.7443 12.2176 15.6813 12.2596C15.5973 12.3015 15.5343 12.3225 15.4714 12.3645C15.3664 12.4275 15.2614 12.4905 15.1565 12.5534C15.0935 12.5954 15.0515 12.6164 14.9885 12.6584C14.9466 12.6794 14.9256 12.7004 14.8836 12.7214C14.6947 12.8473 14.5267 12.9943 14.3798 13.1622C13.5821 13.9599 13.0782 15.0725 13.0782 16.3111C13.0782 16.626 13.1202 16.9199 13.1832 17.2347C13.2042 17.3187 13.2252 17.3817 13.2462 17.4657C13.3092 17.6756 13.3721 17.8855 13.4561 18.0954V18.1164C13.5401 18.2844 13.624 18.4733 13.729 18.6202H2.93893ZM19.8798 18.6412C19.271 19.25 18.4523 19.6069 17.5286 19.6069C16.6469 19.6069 15.8282 19.25 15.2405 18.6832C15.1565 18.5992 15.0725 18.4943 14.9885 18.4103C14.9256 18.3473 14.8626 18.2634 14.7996 18.2004C14.7156 18.0954 14.6527 17.9695 14.5897 17.8435C14.5477 17.7595 14.5057 17.6966 14.4637 17.6126C14.4218 17.5076 14.3798 17.3817 14.3588 17.2557C14.3378 17.1718 14.2958 17.0668 14.2748 16.9828C14.2328 16.7729 14.2118 16.542 14.2118 16.3111C14.2118 15.3874 14.5897 14.5687 15.1775 13.9599C15.7863 13.3512 16.605 12.9943 17.5286 12.9943C18.4523 12.9943 19.271 13.3721 19.8798 13.9599C20.4885 14.5477 20.8454 15.3874 20.8454 16.3111C20.8454 17.2137 20.4676 18.0324 19.8798 18.6412Z" fill="currentColor"/>
<path d="M19.3552 15.7233H18.0747V14.4428C18.0747 14.1279 17.8228 13.876 17.5079 13.876C17.193 13.876 16.9411 14.1279 16.9411 14.4428V15.7233H15.6605C15.3457 15.7233 15.0938 15.9752 15.0938 16.2901C15.0938 16.605 15.3457 16.8569 15.6605 16.8569H16.9411V18.1374C16.9411 18.4523 17.193 18.7042 17.5079 18.7042C17.8228 18.7042 18.0747 18.4523 18.0747 18.1374V16.8569H19.3552C19.6701 16.8569 19.922 16.605 19.922 16.2901C19.922 15.9752 19.6701 15.7233 19.3552 15.7233Z" fill="currentColor"/>
</svg>
