<svg width="21" height="21" viewBox="0 0 21 21" fill="none" xmlns="http://www.w3.org/2000/svg">
<path d="M3.0731 18.0216C-0.827752 14.1208 -0.827752 7.77376 3.0731 3.8729C6.97395 -0.0279472 13.321 -0.0279472 17.2218 3.8729C21.1227 7.77376 21.1227 14.1208 17.2218 18.0216C13.321 21.9225 6.97395 21.9225 3.0731 18.0216ZM16.2112 4.8835C12.8677 1.53997 7.42722 1.53997 4.08369 4.8835C0.740166 8.22702 0.740166 13.6675 4.08369 17.011C7.42722 20.3546 12.8677 20.3546 16.2112 17.011C19.5548 13.6675 19.5548 8.22702 16.2112 4.8835Z" fill="white"/>
<path d="M9.64222 16.5058C9.5129 16.3765 9.43292 16.1978 9.43302 16.0004L9.43302 5.89426C9.43302 5.49939 9.75276 5.17966 10.1475 5.17977C10.5422 5.17977 10.8621 5.4995 10.862 5.89426L10.862 16.0004C10.862 16.3953 10.5423 16.715 10.1475 16.7149C9.95009 16.715 9.77154 16.6351 9.64222 16.5058Z" fill="white"/>
<path d="M4.58905 11.4526C4.45973 11.3233 4.37985 11.1448 4.37995 10.9473C4.37985 10.5526 4.69969 10.2327 5.09445 10.2328H15.2006C15.5955 10.2328 15.9152 10.5526 15.9151 10.9473C15.9151 11.342 15.5953 11.6619 15.2006 11.6618H5.09445C4.89702 11.6619 4.71837 11.5819 4.58905 11.4526Z" fill="white"/>
</svg>
