<svg width="28" height="28" viewBox="0 0 28 28" fill="none" xmlns="http://www.w3.org/2000/svg">
<g clip-path="url(#clip0)">
<path d="M14 28C21.732 28 28 21.732 28 14C28 6.26801 21.732 0 14 0C6.26801 0 0 6.26801 0 14C0 21.732 6.26801 28 14 28Z" fill="#3B9E96"/>
<path d="M27.9459 15.2303L22.5 10L12.1819 6.70117L6.31445 11.9597L12.0873 17.7326L7 21L13.5 28C13.812 28.0208 13.682 27.9995 13.9993 27.9995C21.3165 27.9995 27.3226 22.3859 27.9459 15.2303Z" fill="#12857C"/>
<path d="M21.4917 20.4223C21.4917 20.9746 21.044 21.4223 20.4917 21.4223H7.50977C6.95748 21.4223 6.50977 20.9746 6.50977 20.4223V10.465L14.0007 4.69238L21.4917 10.465V20.4223Z" fill="#FFCE00"/>
<path d="M14 21.4223H20.491C21.0433 21.4223 21.491 20.9746 21.491 20.4223V10.465L14 4.69238V21.4223Z" fill="#FDBA12"/>
<path d="M22.295 11.1681C21.9579 11.6056 21.33 11.687 20.8925 11.3498L13.9998 6.03835L7.10712 11.3498C6.66966 11.687 6.04174 11.6056 5.70463 11.1681L5.62356 11.0629C5.28646 10.6255 5.36781 9.99756 5.80527 9.66045L13.9998 3.3457L22.1944 9.66045C22.6318 9.99756 22.7132 10.6255 22.3761 11.0629L22.295 11.1681Z" fill="#FF8870"/>
<path d="M14 6.03835L20.8927 11.3498C21.3302 11.687 21.9581 11.6056 22.2952 11.1681L22.3763 11.0629C22.7134 10.6255 22.632 9.99756 22.1945 9.66045L14 3.3457V6.03835Z" fill="#FF583E"/>
<path d="M8.33398 13.3672C8.33398 12.8149 8.7817 12.3672 9.33398 12.3672H11.1824C11.7347 12.3672 12.1824 12.8149 12.1824 13.3672V16.6808C12.1824 17.2331 11.7347 17.6808 11.1824 17.6808H9.33399C8.7817 17.6808 8.33398 17.2331 8.33398 16.6808V13.3672Z" fill="white"/>
<path d="M15.8174 13.3672C15.8174 12.8149 16.2651 12.3672 16.8174 12.3672H18.6658C19.2181 12.3672 19.6658 12.8149 19.6658 13.3672V16.6808C19.6658 17.2331 19.2181 17.6808 18.6658 17.6808H16.8174C16.2651 17.6808 15.8174 17.2331 15.8174 16.6808V13.3672Z" fill="#E9EDF5"/>
</g>
<defs>
<clipPath id="clip0">
<rect width="28" height="28" fill="white"/>
</clipPath>
</defs>
</svg>
