<svg width="16" height="16" viewBox="0 0 16 16" fill="none"
    xmlns="http://www.w3.org/2000/svg">
    <g clip-path="url(#clip0)">
        <path d="M5.09091 1.45459H15.2728C15.6741 1.45459 16 1.12873 16 0.727228C16 0.325861 15.6741 0 15.2728 0H5.09091C4.68941 0 4.36368 0.325861 4.36368 0.727228C4.36368 1.12873 4.68941 1.45459 5.09091 1.45459Z" fill="#999999"/>
        <path d="M0.727272 5.09118H15.2728C15.6741 5.09118 16 4.76545 16 4.36395C16 3.96245 15.6741 3.63672 15.2728 3.63672H0.727272C0.325772 3.63672 4.3869e-05 3.96245 4.3869e-05 4.36395C4.3869e-05 4.76545 0.325772 5.09118 0.727272 5.09118Z" fill="#999999"/>
        <path d="M5.09091 8.72705H15.2728C15.6741 8.72705 16 8.40119 16 7.99982C16 7.59832 15.6741 7.27246 15.2728 7.27246H5.09091C4.68941 7.27246 4.36368 7.59832 4.36368 7.99982C4.36368 8.40119 4.68941 8.72705 5.09091 8.72705Z" fill="#999999"/>
        <path d="M0.727272 12.3638H15.2728C15.6741 12.3638 16 12.0379 16 11.6364C16 11.235 15.6741 10.9092 15.2728 10.9092H0.727272C0.325772 10.9092 4.3869e-05 11.235 4.3869e-05 11.6364C4.3869e-05 12.0379 0.325772 12.3638 0.727272 12.3638Z" fill="#999999"/>
        <path d="M5.09091 15.9994H15.2728C15.6741 15.9994 16 15.6737 16 15.2722C16 14.8706 15.6741 14.5449 15.2728 14.5449H5.09091C4.68941 14.5449 4.36368 14.8706 4.36368 15.2722C4.36368 15.6737 4.68941 15.9994 5.09091 15.9994Z" fill="#999999"/>
    </g>
    <defs>
        <clipPath id="clip0">
            <rect width="16" height="16" fill="white" transform="matrix(-1 0 0 1 16 0)"/>
        </clipPath>
    </defs>
</svg>
