<svg width="16" height="16" viewBox="0 0 16 16" fill="none"
    xmlns="http://www.w3.org/2000/svg">
    <g clip-path="url(#clip0)">
        <path d="M13.0912 1.45459H2.90936C2.50799 1.45459 2.18213 1.12873 2.18213 0.727228C2.18213 0.325861 2.50799 0 2.90936 0H13.0912C13.4927 0 13.8184 0.325861 13.8184 0.727228C13.8184 1.12873 13.4927 1.45459 13.0912 1.45459Z" fill="#42A391"/>
        <path d="M15.2727 5.09118H0.727228C0.325861 5.09118 0 4.76545 0 4.36395C0 3.96245 0.325861 3.63672 0.727228 3.63672H15.2727C15.6742 3.63672 16 3.96245 16 4.36395C16 4.76545 15.6742 5.09118 15.2727 5.09118Z" fill="#42A391"/>
        <path d="M13.0912 8.72705H2.90936C2.50799 8.72705 2.18213 8.40119 2.18213 7.99982C2.18213 7.59832 2.50799 7.27246 2.90936 7.27246H13.0912C13.4927 7.27246 13.8184 7.59832 13.8184 7.99982C13.8184 8.40119 13.4927 8.72705 13.0912 8.72705Z" fill="#42A391"/>
        <path d="M15.2727 12.3638H0.727228C0.325861 12.3638 0 12.0379 0 11.6364C0 11.235 0.325861 10.9092 0.727228 10.9092H15.2727C15.6742 10.9092 16 11.235 16 11.6364C16 12.0379 15.6742 12.3638 15.2727 12.3638Z" fill="#42A391"/>
        <path d="M13.0912 16.0004H2.90936C2.50799 16.0004 2.18213 15.6746 2.18213 15.2731C2.18213 14.8716 2.50799 14.5459 2.90936 14.5459H13.0912C13.4927 14.5459 13.8184 14.8716 13.8184 15.2731C13.8184 15.6746 13.4927 16.0004 13.0912 16.0004Z" fill="#42A391"/>
    </g>
    <defs>
        <clipPath id="clip0">
            <rect width="16" height="16" fill="white"/>
        </clipPath>
    </defs>
</svg>
