<svg width="16" height="16" viewBox="0 0 16 16" fill="none"
    xmlns="http://www.w3.org/2000/svg">
    <g clip-path="url(#clip0)">
        <path d="M10.9091 1.45459H0.727228C0.325861 1.45459 0 1.12873 0 0.727228C0 0.325861 0.325861 0 0.727228 0H10.9091C11.3106 0 11.6363 0.325861 11.6363 0.727228C11.6363 1.12873 11.3106 1.45459 10.9091 1.45459Z" fill="#999999"/>
        <path d="M15.2727 5.09118H0.727228C0.325861 5.09118 0 4.76545 0 4.36395C0 3.96245 0.325861 3.63672 0.727228 3.63672H15.2727C15.6742 3.63672 16 3.96245 16 4.36395C16 4.76545 15.6742 5.09118 15.2727 5.09118Z" fill="#999999"/>
        <path d="M10.9091 8.72705H0.727228C0.325861 8.72705 0 8.40119 0 7.99982C0 7.59832 0.325861 7.27246 0.727228 7.27246H10.9091C11.3106 7.27246 11.6363 7.59832 11.6363 7.99982C11.6363 8.40119 11.3106 8.72705 10.9091 8.72705Z" fill="#999999"/>
        <path d="M15.2727 12.3638H0.727228C0.325861 12.3638 0 12.0379 0 11.6364C0 11.235 0.325861 10.9092 0.727228 10.9092H15.2727C15.6742 10.9092 16 11.235 16 11.6364C16 12.0379 15.6742 12.3638 15.2727 12.3638Z" fill="#999999"/>
        <path d="M10.9091 15.9994H0.727228C0.325861 15.9994 0 15.6737 0 15.2722C0 14.8706 0.325861 14.5449 0.727228 14.5449H10.9091C11.3106 14.5449 11.6363 14.8706 11.6363 15.2722C11.6363 15.6737 11.3106 15.9994 10.9091 15.9994Z" fill="#999999"/>
    </g>
    <defs>
        <clipPath id="clip0">
            <rect width="16" height="16" fill="white"/>
        </clipPath>
    </defs>
</svg>
