<svg width="11" height="7" viewBox="0 0 11 7" fill="none" xmlns="http://www.w3.org/2000/svg">
<path fill-rule="evenodd" clip-rule="evenodd" d="M10.2819 0.220345C10.2122 0.1505 10.1294 0.0950866 10.0383 0.0572768C9.94719 0.0194669 9.84951 4.82543e-06 9.75086 4.83406e-06C9.65221 4.84268e-06 9.55452 0.019467 9.46341 0.0572768C9.37229 0.0950867 9.28952 0.1505 9.21986 0.220345L5.25086 4.19085L1.28186 0.220346C1.14103 0.0795158 0.950021 0.000398994 0.750858 0.000399012C0.551694 0.000399029 0.360688 0.0795159 0.219858 0.220346C0.0790276 0.361176 -8.91682e-05 0.552183 -8.91508e-05 0.751346C-8.91334e-05 0.95051 0.0790277 1.14152 0.219858 1.28235L4.71986 5.78235C4.78953 5.85219 4.87229 5.90761 4.96341 5.94541C5.05453 5.98322 5.15221 6.00269 5.25086 6.00269C5.34951 6.00269 5.44719 5.98322 5.53831 5.94541C5.62943 5.90761 5.71219 5.85219 5.78186 5.78235L10.2819 1.28235C10.3517 1.21268 10.4071 1.12991 10.4449 1.0388C10.4827 0.947678 10.5022 0.849996 10.5022 0.751345C10.5022 0.652694 10.4827 0.555013 10.4449 0.463895C10.4071 0.372777 10.3517 0.290013 10.2819 0.220345Z" fill="currentColor"/>
</svg>
