<svg width="11" height="7" viewBox="0 0 11 7" fill="none" xmlns="http://www.w3.org/2000/svg">
<path fill-rule="evenodd" clip-rule="evenodd" d="M10.2816 5.78234C10.2119 5.85219 10.1292 5.9076 10.0381 5.94541C9.94695 5.98322 9.84926 6.00268 9.75061 6.00268C9.65196 6.00268 9.55428 5.98322 9.46316 5.94541C9.37204 5.9076 9.28928 5.85219 9.21961 5.78234L5.25061 1.81184L1.28161 5.78234C1.14078 5.92317 0.949777 6.00229 0.750614 6.00229C0.55145 6.00229 0.360444 5.92317 0.219614 5.78234C0.0787835 5.64151 -0.000333309 5.4505 -0.000333291 5.25134C-0.000333274 5.05218 0.0787836 4.86117 0.219614 4.72034L4.71961 0.22034C4.78928 0.150495 4.87205 0.0950804 4.96316 0.0572708C5.05428 0.0194611 5.15196 -4.67711e-07 5.25061 -4.59087e-07C5.34926 -4.50462e-07 5.44695 0.0194611 5.53806 0.0572708C5.62918 0.0950805 5.71195 0.150495 5.78161 0.22034L10.2816 4.72034C10.3515 4.79001 10.4069 4.87277 10.4447 4.96389C10.4825 5.05501 10.502 5.15269 10.502 5.25134C10.502 5.34999 10.4825 5.44767 10.4447 5.53879C10.4069 5.62991 10.3515 5.71267 10.2816 5.78234Z" fill="#4B4A4B"/>
</svg>
