<svg width="4" height="7" viewBox="0 0 4 7" fill="none" xmlns="http://www.w3.org/2000/svg">
<path fill-rule="evenodd" clip-rule="evenodd" d="M0.146828 0.146861C0.100286 0.193297 0.0633597 0.24846 0.0381644 0.309192C0.0129692 0.369924 2.19403e-07 0.435031 2.16529e-07 0.500784C2.13654e-07 0.566537 0.0129692 0.631644 0.0381643 0.692376C0.0633597 0.753108 0.100285 0.808272 0.146828 0.854707L2.79265 3.50013L0.146828 6.14555C0.052983 6.23942 0.000261982 6.36673 0.000261976 6.49948C0.000261971 6.63222 0.052983 6.75953 0.146828 6.8534C0.240673 6.94727 0.367953 7 0.50067 7C0.633386 7 0.760667 6.94727 0.854512 6.8534L3.85317 3.85405C3.89971 3.80762 3.93664 3.75245 3.96184 3.69172C3.98703 3.63099 4 3.56588 4 3.50013C4 3.43438 3.98703 3.36927 3.96184 3.30854C3.93664 3.24781 3.89971 3.19264 3.85317 3.14621L0.854512 0.146861C0.808087 0.100308 0.752936 0.0633733 0.692218 0.0381724C0.6315 0.0129714 0.566408 -1.50087e-07 0.50067 -1.52961e-07C0.434932 -1.55834e-07 0.36984 0.0129714 0.309122 0.0381724C0.248405 0.0633733 0.193253 0.100308 0.146828 0.146861Z" fill="currentColor"/>
</svg>
