<svg width="20" height="21" viewBox="0 0 20 21" fill="none" xmlns="http://www.w3.org/2000/svg">
<path d="M8.70537 10.7304L12.6307 6.80491C12.7388 6.69708 12.7982 6.55291 12.7982 6.39919C12.7982 6.24538 12.7388 6.1013 12.6307 5.9933L12.2867 5.64952C12.1788 5.54135 12.0345 5.4818 11.8808 5.4818C11.7271 5.4818 11.583 5.54135 11.475 5.64952L6.80133 10.3231C6.6929 10.4315 6.63353 10.5762 6.63396 10.7301C6.63353 10.8847 6.69282 11.0293 6.80133 11.1377L11.4707 15.8068C11.5787 15.915 11.7227 15.9745 11.8766 15.9745C12.0303 15.9745 12.1744 15.915 12.2824 15.8068L12.6263 15.463C12.8501 15.2393 12.8501 14.875 12.6263 14.6513L8.70537 10.7304Z" fill="white"/>
<path fill-rule="evenodd" clip-rule="evenodd" d="M10 2.21341C5.28537 2.21341 1.46341 6.03537 1.46341 10.75C1.46341 15.4646 5.28537 19.2866 10 19.2866C14.7146 19.2866 18.5366 15.4646 18.5366 10.75C18.5366 6.03537 14.7146 2.21341 10 2.21341ZM0 10.75C0 5.22715 4.47715 0.75 10 0.75C15.5228 0.75 20 5.22715 20 10.75C20 16.2728 15.5228 20.75 10 20.75C4.47715 20.75 0 16.2728 0 10.75Z" fill="white"/>
</svg>
