<svg width="20" height="20" viewBox="0 0 20 20" fill="none" xmlns="http://www.w3.org/2000/svg">
<path d="M18.2422 0H1.75781C0.788555 0 0 0.788555 0 1.75781V18.2422C0 19.2114 0.788555 20 1.75781 20H18.2422C19.2114 20 20 19.2114 20 18.2422V1.75781C20 0.788555 19.2114 0 18.2422 0ZM18.8281 18.2422C18.8281 18.5653 18.5653 18.8281 18.2422 18.8281H1.75781C1.43473 18.8281 1.17188 18.5653 1.17188 18.2422V5.85938H18.8281V18.2422ZM18.8281 4.6875H1.17188V1.75781C1.17188 1.43473 1.43473 1.17188 1.75781 1.17188H18.2422C18.5653 1.17188 18.8281 1.43473 18.8281 1.75781V4.6875Z" fill="#4B4A4B"/>
<path d="M2.92969 3.51562C3.25329 3.51562 3.51562 3.25329 3.51562 2.92969C3.51562 2.60608 3.25329 2.34375 2.92969 2.34375C2.60608 2.34375 2.34375 2.60608 2.34375 2.92969C2.34375 3.25329 2.60608 3.51562 2.92969 3.51562Z" fill="#4B4A4B"/>
<path d="M5.27344 3.51562C5.59704 3.51562 5.85938 3.25329 5.85938 2.92969C5.85938 2.60608 5.59704 2.34375 5.27344 2.34375C4.94983 2.34375 4.6875 2.60608 4.6875 2.92969C4.6875 3.25329 4.94983 3.51562 5.27344 3.51562Z" fill="#4B4A4B"/>
<path d="M7.61719 3.51562C7.94079 3.51562 8.20312 3.25329 8.20312 2.92969C8.20312 2.60608 7.94079 2.34375 7.61719 2.34375C7.29358 2.34375 7.03125 2.60608 7.03125 2.92969C7.03125 3.25329 7.29358 3.51562 7.61719 3.51562Z" fill="#4B4A4B"/>
<path d="M8.78906 9H2.92969C2.60609 9 2.34375 9.26234 2.34375 9.58594V14.3516C2.34375 14.6752 2.60609 14.9375 2.92969 14.9375H8.78906C9.11266 14.9375 9.375 14.6752 9.375 14.3516V9.58594C9.375 9.26234 9.11266 9 8.78906 9ZM8.20312 13.7656H3.51562V10.1719H8.20312V13.7656Z" fill="#4B4A4B"/>
<path d="M17.0703 13.7656H11.1328C10.8092 13.7656 10.5469 14.028 10.5469 14.3516C10.5469 14.6752 10.8092 14.9375 11.1328 14.9375H17.0703C17.3939 14.9375 17.6562 14.6752 17.6562 14.3516C17.6562 14.028 17.3939 13.7656 17.0703 13.7656Z" fill="#4B4A4B"/>
<path d="M17.0703 11.3828H11.1328C10.8092 11.3828 10.5469 11.6452 10.5469 11.9688C10.5469 12.2923 10.8092 12.5547 11.1328 12.5547H17.0703C17.3939 12.5547 17.6562 12.2923 17.6562 11.9688C17.6562 11.6452 17.3939 11.3828 17.0703 11.3828Z" fill="#4B4A4B"/>
<path d="M17.0703 9H11.1328C10.8092 9 10.5469 9.26234 10.5469 9.58594C10.5469 9.90953 10.8092 10.1719 11.1328 10.1719H17.0703C17.3939 10.1719 17.6562 9.90953 17.6562 9.58594C17.6562 9.26234 17.3939 9 17.0703 9Z" fill="#4B4A4B"/>
</svg>
