<svg width="12" height="16" viewBox="0 0 12 16" fill="none"
    xmlns="http://www.w3.org/2000/svg">
    <path d="M9.26633 7.64643C10.1327 6.99632 10.887 5.94998 10.887 4.27737V4.23454C10.887 3.17137 10.5302 2.24799 9.82641 1.49C9.82305 1.48636 9.81958 1.48277 9.81611 1.47925C8.86362 0.51151 7.43834 0 5.69429 0H0.823862C0.54115 0 0.312012 0.229139 0.312012 0.511851V15.4881C0.312012 15.7709 0.54115 16 0.823862 16H5.96119C7.63239 16 9.04919 15.5897 10.0584 14.8135C11.1243 13.9937 11.6877 12.814 11.6877 11.4018V11.359C11.6877 9.68115 10.8554 8.41369 9.26633 7.64643ZM6.00226 13.4574H2.93707V9.19654H5.71482C6.8372 9.19654 7.72469 9.39849 8.28141 9.78062C8.77944 10.1225 9.02161 10.6038 9.02161 11.252V11.2948C9.02161 13.2466 6.91005 13.4574 6.00226 13.4574ZM5.4262 6.67522H2.93707V2.5427H5.55063C7.24765 2.5427 8.2209 3.24513 8.2209 4.46988V4.51265C8.22084 6.39427 6.46992 6.67522 5.4262 6.67522Z" fill="#999999"/>
</svg>
