<svg width="20" height="20" viewBox="0 0 20 20" fill="none" xmlns="http://www.w3.org/2000/svg">
<path d="M17.0711 2.92891C15.1823 1.0402 12.6711 0 10 0C7.32891 0 4.8177 1.0402 2.92891 2.92891C1.0402 4.8177 0 7.32891 0 10C0 12.6711 1.0402 15.1823 2.92891 17.0711C4.8177 18.9598 7.32891 20 10 20C12.6711 20 15.1823 18.9598 17.0711 17.0711C18.9598 15.1823 20 12.6711 20 10C20 7.32891 18.9598 4.8177 17.0711 2.92891ZM10 18.8281C5.13215 18.8281 1.17188 14.8679 1.17188 10C1.17188 5.13215 5.13215 1.17188 10 1.17188C14.8679 1.17188 18.8281 5.13215 18.8281 10C18.8281 14.8679 14.8679 18.8281 10 18.8281Z" fill="#4B4A4B"/>
<path d="M15.9733 8.54194C15.9091 8.33529 15.7385 8.18466 15.533 8.15342L12.0478 7.6234L10.4891 4.31819C10.3972 4.12334 10.2076 4 10 4C9.79241 4 9.60277 4.12338 9.51088 4.31819L7.95226 7.6234L4.46702 8.15342C4.26156 8.18466 4.09087 8.33529 4.02672 8.54194C3.96254 8.74859 4.01607 8.97545 4.16472 9.12711L6.68666 11.6999L6.09131 15.3326C6.05622 15.5468 6.14033 15.7632 6.30829 15.891C6.47629 16.0187 6.69895 16.0355 6.88273 15.9344L9.99997 14.2193L13.1173 15.9344C13.197 15.9783 13.2842 16 13.371 16C13.4841 16 13.5967 15.9632 13.6917 15.891C13.8597 15.7632 13.9438 15.5468 13.9087 15.3326L13.3133 11.6999L15.8353 9.12711C15.9839 8.97549 16.0374 8.74863 15.9733 8.54194ZM12.3465 11.0918C12.218 11.2229 12.1593 11.4119 12.1896 11.5971L12.6466 14.3856L10.2538 13.0691C10.1743 13.0254 10.0871 13.0035 9.99997 13.0035C9.91281 13.0035 9.82561 13.0254 9.74615 13.0691L7.35331 14.3856L7.81029 11.5971C7.84062 11.4119 7.78197 11.223 7.65342 11.0918L5.71756 9.11698L8.39284 8.71015C8.57048 8.68313 8.72408 8.56634 8.80353 8.39786L9.99997 5.86072L11.1964 8.39782C11.2758 8.5663 11.4294 8.6831 11.6071 8.71012L14.2823 9.11694L12.3465 11.0918Z" fill="#4B4A4B"/>
</svg>
