<svg width="20" height="20" viewBox="0 0 20 20" fill="none" xmlns="http://www.w3.org/2000/svg">
<path d="M10 0C4.47715 0 0 4.47715 0 10C0 15.5229 4.47715 20 10 20C15.5229 20 20 15.5229 20 10C20 4.47715 15.5229 0 10 0ZM10 18.75C5.1675 18.75 1.25 14.8325 1.25 10C1.25 5.1675 5.1675 1.25 10 1.25C14.8325 1.25 18.75 5.1675 18.75 10C18.75 14.8325 14.8325 18.75 10 18.75Z" fill="#4B4A4B"/>
<path d="M12.3187 3.93164L11.4313 4.81914L12.8688 6.25039H6.25C5.55965 6.25039 5 6.81004 5 7.50039V9.37539H6.25V7.50039H12.8688L11.4375 8.93164L12.3187 9.81289L14.8187 7.31289C15.0611 7.0691 15.0611 6.67543 14.8187 6.43164L12.3187 3.93164Z" fill="#4B4A4B"/>
<path d="M13.7495 12.5H7.13078L8.56203 11.0687L7.68078 10.1875L5.18078 12.6875C4.93844 12.9313 4.93844 13.325 5.18078 13.5688L7.68078 16.0688L8.56203 15.1875L7.13078 13.75H13.7495C14.4399 13.75 14.9995 13.1904 14.9995 12.5V10.625H13.7495V12.5Z" fill="#4B4A4B"/>
</svg>
