<svg width="20" height="20" viewBox="0 0 20 20" fill="none" xmlns="http://www.w3.org/2000/svg">
<circle cx="10" cy="10" r="9" fill="#42A391" stroke="#42A391" stroke-width="2"/>
<path d="M15.8956 7.14318L8.41137 14.8919C8.34509 14.9611 8.25485 15 8.16072 15C8.06659 15 7.97636 14.9611 7.91007 14.8919L4.10443 10.9517C4.03759 10.8831 4 10.7897 4 10.6922C4 10.5948 4.03759 10.5014 4.10443 10.4327L4.59867 9.92102C4.66495 9.85182 4.75518 9.8129 4.84932 9.8129C4.94345 9.8129 5.03368 9.85182 5.09997 9.92102L8.15719 13.0863L14.9 6.10515C15.0397 5.96495 15.2617 5.96495 15.4013 6.10515L15.8956 6.62416C15.9624 6.69279 16 6.78621 16 6.88367C16 6.98113 15.9624 7.07455 15.8956 7.14318Z" fill="white"/>
</svg>
