<svg width="24" height="24" viewBox="0 0 24 24" fill="none" xmlns="http://www.w3.org/2000/svg">
<rect width="24" height="24" rx="12" fill="#42A391"/>
<path d="M18.8782 8.39722L10.1466 17.8679C10.0693 17.9524 9.96399 18 9.85418 18C9.74436 18 9.63909 17.9524 9.56175 17.8679L5.12183 13.0521C5.04386 12.9682 5 12.8541 5 12.735C5 12.6158 5.04386 12.5017 5.12183 12.4178L5.69844 11.7924C5.77578 11.7078 5.88105 11.6602 5.99087 11.6602C6.10069 11.6602 6.20596 11.7078 6.28329 11.7924L9.85006 15.661L17.7167 7.12851C17.8797 6.95716 18.1386 6.95716 18.3016 7.12851L18.8782 7.76287C18.9561 7.84675 19 7.96093 19 8.08004C19 8.19916 18.9561 8.31334 18.8782 8.39722Z" fill="white"/>
</svg>
