<svg width="16" height="16" viewBox="0 0 16 16" fill="none"
    xmlns="http://www.w3.org/2000/svg">
    <path d="M0.99707 8.00009C0.99707 4.13844 4.13868 0.996826 8.00033 0.996826C11.862 0.996826 15.0036 4.13844 15.0036 8.00009C15.0036 11.8617 11.862 15.0033 8.00033 15.0033C4.13868 15.0033 0.99707 11.8617 0.99707 8.00009ZM14.0032 8.00009C14.0032 4.69017 11.3103 1.99726 8.00033 1.99726C4.69041 1.99726 1.99751 4.69017 1.99751 8.00009C1.99751 11.31 4.69041 14.0029 8.00033 14.0029C11.3103 14.0029 14.0032 11.31 14.0032 8.00009Z" fill="#999999"/>
    <path d="M4.99891 10.5013C4.99891 10.3733 5.04775 10.2453 5.14553 10.1476L10.1478 5.14535C10.3433 4.9499 10.6598 4.9499 10.8551 5.14535C11.0505 5.34069 11.0506 5.65732 10.8551 5.85266L5.85284 10.8549C5.65739 11.0504 5.34087 11.0504 5.14553 10.8549C5.04775 10.7573 4.99891 10.6294 4.99891 10.5013Z" fill="#999999"/>
    <path d="M4.99891 5.49895C4.99891 5.37093 5.04775 5.24302 5.14553 5.14535C5.34087 4.9499 5.6575 4.9499 5.85284 5.14535L10.8551 10.1476C11.0506 10.3431 11.0506 10.6596 10.8551 10.8549C10.6598 11.0503 10.3432 11.0504 10.1478 10.8549L5.14553 5.85266C5.04775 5.75499 4.99891 5.62697 4.99891 5.49895Z" fill="#999999"/>
</svg>
