<svg width="20" height="20" viewBox="0 0 20 20" fill="none" xmlns="http://www.w3.org/2000/svg">
<path d="M9.71149 17.9885C7.4295 15.7065 7.4295 11.9935 9.71149 9.71149C11.9935 7.4295 15.7065 7.4295 17.9885 9.71149C20.2704 11.9935 20.2704 15.7065 17.9885 17.9885C15.7065 20.2704 11.9935 20.2704 9.71149 17.9885ZM17.3973 10.3027C15.4413 8.34673 12.2586 8.34673 10.3027 10.3027C8.34673 12.2586 8.34673 15.4413 10.3027 17.3973C12.2586 19.3532 15.4413 19.3532 17.3973 17.3973C19.3532 15.4413 19.3532 12.2586 17.3973 10.3027Z" fill="white" stroke="white" stroke-width="0.2"/>
<path d="M13.7701 15.7936C13.7225 15.7459 13.6929 15.68 13.693 15.6072L13.693 11.8797C13.693 11.7341 13.8109 11.6162 13.9565 11.6162C14.1021 11.6162 14.2201 11.7341 14.22 11.8797L14.22 15.6072C14.22 15.7528 14.1021 15.8708 13.9565 15.8707C13.8837 15.8708 13.8178 15.8413 13.7701 15.7936Z" fill="white"/>
<path d="M11.9064 13.9298C11.8587 13.8821 11.8292 13.8163 11.8293 13.7435C11.8292 13.5979 11.9472 13.4799 12.0928 13.4799H15.8203C15.9659 13.4799 16.0838 13.5979 16.0838 13.7435C16.0838 13.889 15.9659 14.007 15.8203 14.007H12.0928C12.02 14.007 11.9541 13.9775 11.9064 13.9298Z" fill="white"/>
<path d="M13.7701 15.7936C13.7225 15.7459 13.6929 15.68 13.693 15.6072L13.693 11.8797C13.693 11.7341 13.8109 11.6162 13.9565 11.6162C14.1021 11.6162 14.2201 11.7341 14.22 11.8797L14.22 15.6072C14.22 15.7528 14.1021 15.8708 13.9565 15.8707C13.8837 15.8708 13.8178 15.8413 13.7701 15.7936Z" stroke="white" stroke-width="0.6"/>
<path d="M11.9064 13.9298C11.8587 13.8821 11.8292 13.8163 11.8293 13.7435C11.8292 13.5979 11.9472 13.4799 12.0928 13.4799H15.8203C15.9659 13.4799 16.0838 13.5979 16.0838 13.7435C16.0838 13.889 15.9659 14.007 15.8203 14.007H12.0928C12.02 14.007 11.9541 13.9775 11.9064 13.9298Z" stroke="white" stroke-width="0.6"/>
<path d="M5.11095 11.2744H2.62399C2.39532 11.2744 2.20996 11.5218 2.20996 11.8269C2.20996 12.132 2.39532 12.3794 2.62399 12.3794H5.11095C5.33962 12.3794 5.52498 12.132 5.52498 11.8269C5.52498 11.5218 5.33962 11.2744 5.11095 11.2744Z" fill="white"/>
<path d="M5.11061 13.4844H2.62433C2.39547 13.4844 2.20996 13.7317 2.20996 14.0369C2.20996 14.342 2.39547 14.5894 2.62433 14.5894H5.11061C5.33947 14.5894 5.52498 14.342 5.52498 14.0369C5.52498 13.7317 5.33947 13.4844 5.11061 13.4844Z" fill="white"/>
<path fill-rule="evenodd" clip-rule="evenodd" d="M1.49415 0H15.5059C16.3298 0 17.0001 0.670271 17.0001 1.49414V8.80275C16.6851 8.6205 16.3519 8.46607 16.004 8.34282V1.49414C16.004 1.21952 15.7806 0.996093 15.5059 0.996093H10.992V4.51562C10.992 4.79068 10.769 5.01367 10.4939 5.01367H6.50951C6.23445 5.01367 6.01146 4.79068 6.01146 4.51562V0.996093H1.49415C1.21952 0.996093 0.996099 1.21952 0.996099 1.49414V15.5059C0.996099 15.7805 1.21952 16.0039 1.49415 16.0039H8.34279C8.46603 16.3518 8.62045 16.6849 8.80269 17H1.49415C0.670275 17 0 16.3297 0 15.5059V1.49414C0 0.670271 0.670275 0 1.49415 0ZM9.99586 0.996093H7.00756V4.01758H9.99586V0.996093Z" fill="white"/>
</svg>
