<svg width="20" height="17" viewBox="0 0 20 17" fill="none" xmlns="http://www.w3.org/2000/svg">
<path d="M6.32824 7.70738C7.24968 7.70738 8.04747 7.37689 8.69951 6.72482C9.35134 6.07287 9.68193 5.27516 9.68193 4.35358C9.68193 3.43233 9.35144 2.63451 8.6994 1.98234C8.04736 1.33049 7.24957 1 6.32824 1C5.40669 1 4.60901 1.33049 3.95707 1.98245C3.30514 2.6344 2.97455 3.43222 2.97455 4.35358C2.97455 5.27516 3.30514 6.07297 3.95707 6.72493C4.60922 7.37678 5.40701 7.70738 6.32824 7.70738ZM4.53411 2.5594C5.03435 2.05915 5.62117 1.81598 6.32824 1.81598C7.0352 1.81598 7.62212 2.05915 8.12247 2.5594C8.6227 3.05976 8.86597 3.6467 8.86597 4.35358C8.86597 5.06067 8.6227 5.64751 8.12247 6.14787C7.62212 6.64823 7.0352 6.8914 6.32824 6.8914C5.62138 6.8914 5.03457 6.64812 4.53411 6.14787C4.03377 5.64761 3.7905 5.06067 3.7905 4.35358C3.7905 3.6467 4.03377 3.05976 4.53411 2.5594Z" fill="#4B4A4B" stroke="#4B4A4B" stroke-width="0.2"/>
<path d="M12.7779 12.4744C12.7573 12.1771 12.7157 11.8527 12.6545 11.5102C12.5926 11.1651 12.513 10.8389 12.4177 10.5407C12.3192 10.2325 12.1854 9.92818 12.0198 9.63653C11.8482 9.33382 11.6464 9.07023 11.42 8.85332C11.1833 8.6264 10.8934 8.44396 10.5583 8.31088C10.2243 8.17851 9.85413 8.11144 9.45818 8.11144C9.30268 8.11144 9.1523 8.17536 8.86187 8.36479C8.68313 8.48157 8.47406 8.61662 8.2407 8.766C8.04115 8.89337 7.77083 9.01271 7.43694 9.12075C7.11119 9.22635 6.78044 9.27991 6.45387 9.27991C6.12753 9.27991 5.79678 9.22635 5.4708 9.12075C5.13726 9.01283 4.86682 8.89349 4.66763 8.76612C4.43647 8.61814 4.22728 8.48308 4.04587 8.36467C3.75568 8.17525 3.60529 8.11133 3.44979 8.11133C3.05373 8.11133 2.6837 8.17851 2.34981 8.311C2.01487 8.44385 1.72491 8.62629 1.48795 8.85344C1.26156 9.07046 1.05981 9.33393 0.888271 9.63653C0.722895 9.92818 0.589014 10.2324 0.490462 10.5408C0.395281 10.839 0.315673 11.1651 0.253846 11.5102C0.192484 11.8523 0.150995 12.1767 0.130424 12.4748C0.110203 12.7662 0.0999756 13.0695 0.0999756 13.3759C0.0999756 14.1725 0.352746 14.8174 0.851198 15.293C1.34349 15.7624 1.99477 16.0003 2.78701 16.0003H10.1217C10.9137 16.0003 11.5649 15.7624 12.0574 15.293C12.5559 14.8178 12.8087 14.1727 12.8087 13.3758C12.8086 13.0683 12.7982 12.7651 12.7779 12.4744ZM11.4419 14.6451C11.1166 14.9553 10.6847 15.1061 10.1215 15.1061H2.78701C2.22371 15.1061 1.79185 14.9553 1.46668 14.6452C1.14767 14.341 0.992633 13.9257 0.992633 13.3759C0.992633 13.09 1.00205 12.8077 1.02087 12.5366C1.03924 12.2707 1.07677 11.9786 1.13244 11.6682C1.18741 11.3616 1.25737 11.0739 1.34058 10.8135C1.42043 10.5638 1.52932 10.3165 1.66436 10.0783C1.79325 9.85122 1.94154 9.65644 2.10517 9.49949C2.25823 9.35268 2.45115 9.23253 2.67847 9.14241C2.8887 9.05905 3.12497 9.01341 3.38146 9.00654C3.41272 9.02319 3.46839 9.05497 3.55857 9.11389C3.74208 9.23369 3.95359 9.37038 4.18742 9.51998C4.451 9.68834 4.79058 9.84039 5.19629 9.97161C5.61107 10.106 6.0341 10.1742 6.45399 10.1742C6.87388 10.1742 7.29702 10.106 7.71156 9.97172C8.11762 9.84028 8.45709 9.68834 8.72102 9.51975C8.96031 9.36653 9.16589 9.23381 9.3494 9.11389C9.43958 9.05509 9.49525 9.02319 9.52651 9.00654C9.78312 9.01341 10.0194 9.05905 10.2297 9.14241C10.4569 9.23253 10.6499 9.35279 10.8029 9.49949C10.9665 9.65632 11.1148 9.8511 11.2437 10.0784C11.3789 10.3165 11.4879 10.5639 11.5676 10.8134C11.6509 11.0742 11.721 11.3618 11.7759 11.6681C11.8314 11.9791 11.8691 12.2713 11.8874 12.5367V12.537C11.9064 12.807 11.9159 13.0892 11.916 13.3759C11.9159 13.9258 11.7609 14.341 11.4419 14.6451Z" fill="#4B4A4B"/>
<path d="M12.6545 11.5102L12.7529 11.4926L12.7529 11.4926L12.6545 11.5102ZM12.4177 10.5407L12.513 10.5103L12.513 10.5102L12.4177 10.5407ZM12.0198 9.63653L11.9328 9.68585L11.9329 9.68591L12.0198 9.63653ZM11.42 8.85332L11.3508 8.92551L11.3508 8.92553L11.42 8.85332ZM10.5583 8.31088L10.5952 8.21794L10.5951 8.21792L10.5583 8.31088ZM8.86187 8.36479L8.80724 8.28103L8.80718 8.28107L8.86187 8.36479ZM8.2407 8.766L8.2945 8.85029L8.29461 8.85022L8.2407 8.766ZM7.43694 9.12075L7.40616 9.02561L7.40611 9.02563L7.43694 9.12075ZM5.4708 9.12075L5.50161 9.02562L5.50158 9.02561L5.4708 9.12075ZM4.66763 8.76612L4.61371 8.85034L4.61375 8.85037L4.66763 8.76612ZM4.04587 8.36467L3.99121 8.44841L3.99121 8.44842L4.04587 8.36467ZM2.34981 8.311L2.38668 8.40396L2.38669 8.40395L2.34981 8.311ZM1.48795 8.85344L1.41875 8.78125L1.41875 8.78125L1.48795 8.85344ZM0.888271 9.63653L0.975259 9.68585L0.975265 9.68584L0.888271 9.63653ZM0.490462 10.5408L0.395207 10.5104L0.395198 10.5104L0.490462 10.5408ZM0.253846 11.5102L0.352275 11.5279L0.352279 11.5278L0.253846 11.5102ZM0.130424 12.4748L0.230184 12.4817L0.230187 12.4817L0.130424 12.4748ZM0.851198 15.293L0.782165 15.3654L0.782196 15.3654L0.851198 15.293ZM12.0574 15.293L12.1263 15.3654L12.1264 15.3654L12.0574 15.293ZM12.8087 13.3758H12.9087V13.3758L12.8087 13.3758ZM1.46668 14.6452L1.39767 14.7176L1.39767 14.7176L1.46668 14.6452ZM1.02087 12.5366L1.12063 12.5436L1.12064 12.5435L1.02087 12.5366ZM1.13244 11.6682L1.23087 11.6858L1.23087 11.6858L1.13244 11.6682ZM1.34058 10.8135L1.24533 10.783L1.24533 10.7831L1.34058 10.8135ZM1.66436 10.0783L1.5774 10.0289L1.57737 10.0289L1.66436 10.0783ZM2.10517 9.49949L2.17439 9.57166L2.1744 9.57166L2.10517 9.49949ZM2.67847 9.14241L2.71532 9.23537L2.71533 9.23537L2.67847 9.14241ZM3.38146 9.00654L3.42847 8.91828L3.40517 8.90587L3.37878 8.90658L3.38146 9.00654ZM3.55857 9.11389L3.50388 9.19761L3.50391 9.19762L3.55857 9.11389ZM4.18742 9.51998L4.13352 9.60422L4.13359 9.60426L4.18742 9.51998ZM5.19629 9.97161L5.22711 9.87647L5.22707 9.87646L5.19629 9.97161ZM7.71156 9.97172L7.68077 9.87658L7.68076 9.87659L7.71156 9.97172ZM8.72102 9.51975L8.77485 9.60403L8.77494 9.60397L8.72102 9.51975ZM9.3494 9.11389L9.29479 9.03012L9.29469 9.03018L9.3494 9.11389ZM9.52651 9.00654L9.52919 8.90658L9.5028 8.90587L9.47951 8.91828L9.52651 9.00654ZM10.2297 9.14241L10.2666 9.04945L10.2666 9.04944L10.2297 9.14241ZM10.8029 9.49949L10.7337 9.57169L10.7337 9.57169L10.8029 9.49949ZM11.2437 10.0784L11.1567 10.1277L11.1568 10.1277L11.2437 10.0784ZM11.5676 10.8134L11.6629 10.7829L11.6629 10.7829L11.5676 10.8134ZM11.7759 11.6681L11.8743 11.6505L11.8743 11.6504L11.7759 11.6681ZM11.8874 12.5367H11.9877L11.9872 12.5298L11.8874 12.5367ZM11.8874 12.537H11.7872L11.7877 12.544L11.8874 12.537ZM11.916 13.3759L12.016 13.376V13.3759L11.916 13.3759ZM12.8777 12.4675C12.8568 12.166 12.8147 11.8381 12.7529 11.4926L12.556 11.5278C12.6168 11.8674 12.6579 12.1881 12.6781 12.4814L12.8777 12.4675ZM12.7529 11.4926C12.6904 11.1437 12.6098 10.8131 12.513 10.5103L12.3225 10.5711C12.4163 10.8646 12.4949 11.1866 12.556 11.5278L12.7529 11.4926ZM12.513 10.5102C12.4123 10.1953 12.2757 9.88463 12.1068 9.58715L11.9329 9.68591C12.0952 9.97173 12.2261 10.2697 12.3225 10.5712L12.513 10.5102ZM12.1068 9.5872C11.9309 9.27698 11.7234 9.00545 11.4892 8.78111L11.3508 8.92553C11.5695 9.135 11.7654 9.39065 11.9328 9.68585L12.1068 9.5872ZM11.4892 8.78113C11.2423 8.54442 10.9412 8.35531 10.5952 8.21794L10.5214 8.40383C10.8457 8.53261 11.1243 8.70839 11.3508 8.92551L11.4892 8.78113ZM10.5951 8.21792C10.2482 8.08044 9.86544 8.01144 9.45818 8.01144V8.21144C9.84281 8.21144 10.2003 8.27658 10.5214 8.40385L10.5951 8.21792ZM9.45818 8.01144C9.2706 8.01144 9.09831 8.09119 8.80724 8.28103L8.9165 8.44855C9.20628 8.25954 9.33476 8.21144 9.45818 8.21144V8.01144ZM8.80718 8.28107C8.62876 8.39764 8.41995 8.53253 8.18678 8.68178L8.29461 8.85022C8.52816 8.70072 8.73751 8.56549 8.91657 8.44851L8.80718 8.28107ZM8.18689 8.68171C7.99707 8.80287 7.73543 8.91906 7.40616 9.02561L7.46773 9.2159C7.80624 9.10636 8.08523 8.98387 8.2945 8.85029L8.18689 8.68171ZM7.40611 9.02563C7.08982 9.12816 6.76946 9.17991 6.45387 9.17991V9.37991C6.79141 9.37991 7.13256 9.32455 7.46778 9.21588L7.40611 9.02563ZM6.45387 9.17991C6.13851 9.17991 5.81815 9.12816 5.50161 9.02562L5.43998 9.21589C5.77542 9.32455 6.11655 9.37991 6.45387 9.37991V9.17991ZM5.50158 9.02561C5.17263 8.91917 4.91092 8.80299 4.7215 8.68187L4.61375 8.85037C4.82272 8.98398 5.10188 9.10648 5.44001 9.2159L5.50158 9.02561ZM4.72154 8.6819C4.49057 8.53403 4.28164 8.39914 4.10052 8.28093L3.99121 8.44842C4.17293 8.56702 4.38237 8.70224 4.61371 8.85034L4.72154 8.6819ZM4.10053 8.28094C3.80967 8.09107 3.63739 8.01133 3.44979 8.01133V8.21133C3.5732 8.21133 3.70168 8.25942 3.99121 8.44841L4.10053 8.28094ZM3.44979 8.01133C3.04239 8.01133 2.6597 8.08044 2.31292 8.21805L2.38669 8.40395C2.7077 8.27657 3.06506 8.21133 3.44979 8.21133V8.01133ZM2.31294 8.21805C1.96718 8.35518 1.66593 8.5443 1.41875 8.78125L1.55715 8.92563C1.7839 8.70827 2.06257 8.53251 2.38668 8.40396L2.31294 8.21805ZM1.41875 8.78125C1.18463 9.00568 0.977083 9.27708 0.801277 9.58721L0.975265 9.68584C1.14253 9.39078 1.33849 9.13524 1.55715 8.92563L1.41875 8.78125ZM0.801282 9.5872C0.632635 9.88462 0.495933 10.1952 0.395207 10.5104L0.585717 10.5713C0.682094 10.2696 0.813155 9.97174 0.975259 9.68585L0.801282 9.5872ZM0.395198 10.5104C0.298535 10.8132 0.217925 11.1437 0.155413 11.4926L0.352279 11.5278C0.413421 11.1866 0.492028 10.8648 0.585726 10.5712L0.395198 10.5104ZM0.155417 11.4925C0.0935143 11.8376 0.0515169 12.1657 0.0306616 12.4679L0.230187 12.4817C0.250472 12.1878 0.291453 11.8669 0.352275 11.5279L0.155417 11.4925ZM0.0306642 12.4679C0.0102746 12.7617 -2.44156e-05 13.0673 -2.44156e-05 13.3759H0.199976C0.199976 13.0717 0.210131 12.7707 0.230184 12.4817L0.0306642 12.4679ZM-2.44156e-05 13.3759C-2.44156e-05 14.1952 0.260808 14.8679 0.782165 15.3654L0.920231 15.2207C0.444684 14.7669 0.199976 14.1499 0.199976 13.3759H-2.44156e-05ZM0.782196 15.3654C1.29613 15.8554 1.97361 16.1003 2.78701 16.1003V15.9003C2.01592 15.9003 1.39085 15.6694 0.9202 15.2207L0.782196 15.3654ZM2.78701 16.1003H10.1217V15.9003H2.78701V16.1003ZM10.1217 16.1003C10.9348 16.1003 11.6123 15.8554 12.1263 15.3654L11.9884 15.2207C11.5176 15.6694 10.8925 15.9003 10.1217 15.9003V16.1003ZM12.1264 15.3654C12.6479 14.8683 12.9087 14.1953 12.9087 13.3758H12.7087C12.7087 14.15 12.464 14.7673 11.9884 15.2207L12.1264 15.3654ZM12.9087 13.3758C12.9086 13.0661 12.8982 12.7605 12.8777 12.4675L12.6781 12.4814C12.6983 12.7696 12.7086 13.0706 12.7087 13.3759L12.9087 13.3758ZM11.3729 14.5728C11.0706 14.861 10.6658 15.0061 10.1215 15.0061V15.2061C10.7036 15.2061 11.1626 15.0496 11.5109 14.7175L11.3729 14.5728ZM10.1215 15.0061H2.78701V15.2061H10.1215V15.0061ZM2.78701 15.0061C2.24259 15.0061 1.83785 14.861 1.53569 14.5729L1.39767 14.7176C1.74585 15.0496 2.20483 15.2061 2.78701 15.2061V15.0061ZM1.53569 14.5729C1.24114 14.292 1.09263 13.9056 1.09263 13.3759H0.892633C0.892633 13.9458 1.05419 14.3901 1.39767 14.7176L1.53569 14.5729ZM1.09263 13.3759C1.09263 13.0922 1.10198 12.8121 1.12063 12.5436L0.921114 12.5297C0.902117 12.8032 0.892633 13.0878 0.892633 13.3759H1.09263ZM1.12064 12.5435C1.13871 12.2818 1.17573 11.9933 1.23087 11.6858L1.03401 11.6505C0.977818 11.9639 0.939763 12.2596 0.921111 12.5297L1.12064 12.5435ZM1.23087 11.6858C1.28518 11.383 1.35415 11.0996 1.43584 10.8439L1.24533 10.7831C1.1606 11.0483 1.08965 11.3403 1.03401 11.6505L1.23087 11.6858ZM1.43584 10.8439C1.51349 10.601 1.61956 10.3601 1.75136 10.1276L1.57737 10.0289C1.43908 10.2729 1.32736 10.5265 1.24533 10.783L1.43584 10.8439ZM1.75133 10.1276C1.87615 9.90774 2.01872 9.72097 2.17439 9.57166L2.03595 9.42732C1.86435 9.59191 1.71034 9.7947 1.5774 10.0289L1.75133 10.1276ZM2.1744 9.57166C2.31679 9.43507 2.49821 9.32144 2.71532 9.23537L2.64161 9.04945C2.40409 9.14361 2.19967 9.27028 2.03595 9.42733L2.1744 9.57166ZM2.71533 9.23537C2.9133 9.15687 3.13779 9.1131 3.38414 9.1065L3.37878 8.90658C3.11215 8.91372 2.86411 8.96123 2.64161 9.04945L2.71533 9.23537ZM3.33445 9.0948C3.36256 9.10977 3.41564 9.13996 3.50388 9.19761L3.61326 9.03017C3.52114 8.96999 3.46288 8.9366 3.42847 8.91828L3.33445 9.0948ZM3.50391 9.19762C3.6877 9.31761 3.89947 9.45447 4.13352 9.60422L4.24131 9.43575C4.00771 9.28628 3.79646 9.14977 3.61324 9.03015L3.50391 9.19762ZM4.13359 9.60426C4.40642 9.77852 4.7544 9.93379 5.16552 10.0668L5.22707 9.87646C4.82676 9.74699 4.49558 9.59816 4.24125 9.43571L4.13359 9.60426ZM5.16548 10.0667C5.5898 10.2042 6.02322 10.2742 6.45399 10.2742V10.0742C6.04498 10.0742 5.63234 10.0077 5.22711 9.87647L5.16548 10.0667ZM6.45399 10.2742C6.88475 10.2742 7.31828 10.2042 7.74237 10.0669L7.68076 9.87659C7.27576 10.0077 6.863 10.0742 6.45399 10.0742V10.2742ZM7.74236 10.0669C8.1538 9.93367 8.50167 9.77852 8.77485 9.60403L8.66719 9.43548C8.41251 9.59815 8.08144 9.74688 7.68077 9.87658L7.74236 10.0669ZM8.77494 9.60397C9.0144 9.45064 9.22026 9.31774 9.4041 9.1976L9.29469 9.03018C9.11153 9.14988 8.90621 9.28243 8.66709 9.43554L8.77494 9.60397ZM9.40401 9.19765C9.49239 9.14004 9.54547 9.10974 9.57352 9.0948L9.47951 8.91828C9.44503 8.93664 9.38678 8.97014 9.29479 9.03012L9.40401 9.19765ZM9.52384 9.1065C9.77029 9.1131 9.9948 9.15687 10.1929 9.23538L10.2666 9.04944C10.044 8.96123 9.79594 8.91372 9.52919 8.90658L9.52384 9.1065ZM10.1929 9.23537C10.4098 9.32142 10.5913 9.43517 10.7337 9.57169L10.8721 9.4273C10.7084 9.27042 10.504 9.14363 10.2666 9.04945L10.1929 9.23537ZM10.7337 9.57169C10.8894 9.72086 11.0319 9.90761 11.1567 10.1277L11.3307 10.029C11.1978 9.7946 11.0437 9.59178 10.8721 9.4273L10.7337 9.57169ZM11.1568 10.1277C11.2887 10.3601 11.3948 10.6012 11.4724 10.8438L11.6629 10.7829C11.581 10.5266 11.4691 10.2728 11.3307 10.029L11.1568 10.1277ZM11.4724 10.8438C11.5542 11.0999 11.6233 11.3831 11.6774 11.6857L11.8743 11.6504C11.8188 11.3404 11.7477 11.0485 11.6629 10.7829L11.4724 10.8438ZM11.6774 11.6857C11.7325 11.9938 11.7696 12.2824 11.7877 12.5436L11.9872 12.5298C11.9686 12.2602 11.9304 11.9643 11.8743 11.6505L11.6774 11.6857ZM11.7874 12.5367V12.537H11.9874V12.5367H11.7874ZM11.7877 12.544C11.8065 12.8115 11.8159 13.0914 11.816 13.376L12.016 13.3759C12.0159 13.087 12.0063 12.8024 11.9872 12.53L11.7877 12.544ZM11.816 13.3759C11.8159 13.9057 11.6674 14.292 11.3729 14.5727L11.5109 14.7175C11.8544 14.3901 12.0159 13.946 12.016 13.376L11.816 13.3759Z" fill="#4B4A4B"/>
<path d="M14.6955 5.29099C15.3537 5.29099 15.9235 5.05492 16.3892 4.58916C16.8548 4.12348 17.091 3.55369 17.091 2.89542C17.091 2.23738 16.8549 1.66751 16.3892 1.20167C15.9234 0.736066 15.3536 0.5 14.6955 0.5C14.0372 0.5 13.4675 0.736066 13.0018 1.20175C12.5361 1.66743 12.3 2.2373 12.3 2.89542C12.3 3.55369 12.5361 4.12355 13.0018 4.58924C13.4676 5.05484 14.0375 5.29099 14.6955 5.29099ZM13.414 1.61386C13.7713 1.25654 14.1904 1.08284 14.6955 1.08284C15.2005 1.08284 15.6197 1.25654 15.9771 1.61386C16.3344 1.97126 16.5081 2.3905 16.5081 2.89542C16.5081 3.40048 16.3344 3.81965 15.9771 4.17705C15.6197 4.53445 15.2005 4.70814 14.6955 4.70814C14.1906 4.70814 13.7714 4.53437 13.414 4.17705C13.0566 3.81973 12.8828 3.40048 12.8828 2.89542C12.8828 2.3905 13.0566 1.97126 13.414 1.61386Z" fill="#4B4A4B" stroke="#4B4A4B" stroke-width="0.4"/>
<path d="M19.6764 9.01585C19.7255 9.31978 19.7588 9.60759 19.7753 9.87144C19.7916 10.1293 19.7999 10.3984 19.8 10.6712C19.8 11.3783 19.5974 11.9507 19.1979 12.3724C18.8034 12.7888 18.2815 13 17.6469 13H12.2551C12.2521 12.9498 12.5832 12.5 12.3 12.5C12.2855 12.2967 12.0325 12.4316 11.9988 12.2065H17.6468C18.0981 12.2065 18.4441 12.0727 18.7048 11.7975C18.9604 11.5277 19.0846 11.1593 19.0847 10.6714C19.0846 10.4169 19.077 10.1663 19.0618 9.92671C19.0471 9.69117 19.0169 9.43187 18.9724 9.15594C18.9284 8.88413 18.8723 8.62896 18.8055 8.39756C18.7416 8.17617 18.6543 7.95664 18.546 7.74538C18.4427 7.54372 18.3239 7.37089 18.1928 7.23173C18.0701 7.10157 17.9155 6.99485 17.7335 6.91489C17.5649 6.84092 17.3756 6.80042 17.17 6.79433C17.1449 6.8091 17.1003 6.83741 17.0281 6.88958C16.881 6.99599 16.7163 7.11376 16.5245 7.24971C16.3131 7.3993 16.041 7.53411 15.7157 7.65075C15.3835 7.76986 15.0444 7.8304 14.708 7.8304C14.3715 7.8304 14.0325 7.76986 13.7002 7.65064C13.3751 7.53422 13.103 7.3993 12.8918 7.24992C12.7044 7.11717 12.5349 6.99588 12.3879 6.88958C12.3156 6.83731 12.271 6.8091 12.246 6.79433C12.0404 6.80042 11.8511 6.84092 11.6827 6.91489C11.5005 6.99485 11.3459 7.10146 11.2233 7.23173C11.0922 7.37099 10.9733 7.54382 10.8701 7.74527C10.7619 7.95664 10.6746 8.17606 10.6106 8.39766C10.5446 8.62663 10.4889 8.87933 10.4451 9.14853C10.522 8.74667 10.4124 9.1172 10.3959 9.10187C10.2229 8.94122 10.0234 8.8021 9.79999 8.68614C9.83783 8.50073 9.88112 8.32325 9.92942 8.15571C10.0084 7.88205 10.1157 7.61211 10.2482 7.35333C10.3856 7.08483 10.5473 6.85105 10.7287 6.65848C10.9186 6.45693 11.1509 6.29505 11.4193 6.17717C11.6869 6.05961 11.9834 6 12.3007 6C12.4253 6 12.5458 6.05672 12.7784 6.2248C12.9237 6.32986 13.0913 6.4497 13.2766 6.581C13.4362 6.69402 13.6529 6.79991 13.9201 6.89567C14.1814 6.98937 14.4464 7.0369 14.7079 7.0369C14.9696 7.0369 15.2346 6.98937 15.4956 6.89567C15.7632 6.79981 15.9798 6.69392 16.1397 6.5809C16.3267 6.44835 16.4942 6.32852 16.6374 6.2249C16.8701 6.05682 16.9906 6.0001 17.1152 6.0001C17.4325 6.0001 17.7291 6.05961 17.9967 6.17707C18.2653 6.29515 18.4976 6.45703 18.6873 6.65838C18.8687 6.85084 19.0303 7.08473 19.1679 7.35333C19.3006 7.61211 19.4078 7.88216 19.4867 8.15561C19.5631 8.42018 19.6269 8.70965 19.6764 9.01585Z" fill="#4B4A4B" stroke="#4B4A4B" stroke-width="0.3"/>
</svg>
