<svg width="20" height="20" viewBox="0 0 20 20" fill="none" xmlns="http://www.w3.org/2000/svg">
<g clip-path="url(#clip0)">
<path d="M18.7204 9.18516C17.7678 8.23246 16.4807 7.81316 15.2336 7.92695V3.55469C15.2336 2.58543 14.4451 1.79688 13.4759 1.79688H1.73187C0.815664 1.79688 0 2.56715 0 3.55469V15.2734C0 16.2427 0.788516 17.0312 1.75773 17.0312C13.9105 16.9909 13.5455 17.1277 14.1029 16.915L15.2194 18.0315C15.4482 18.2603 15.8192 18.2603 16.048 18.0315L18.7205 15.3589C20.4264 13.6529 20.4266 10.8914 18.7204 9.18516ZM6.48406 2.96875H8.82769V5.89844H6.48406V2.96875ZM1.75773 15.8594C1.43465 15.8594 1.17184 15.5965 1.17184 15.2734V3.55469C1.17184 3.2316 1.43469 2.96875 1.75773 2.96875H5.31227V6.48437C5.31227 6.80797 5.57457 7.07031 5.89816 7.07031H9.41363C9.73723 7.07031 9.99953 6.80797 9.99953 6.48437V2.96875H13.4759C13.799 2.96875 14.0618 3.2316 14.0618 3.55469V8.19977C13.5094 8.41211 12.9917 8.74039 12.547 9.18516C10.845 10.8873 10.845 13.6568 12.547 15.3589L13.0473 15.8594H1.75773ZM17.8918 14.5303L15.6337 16.7886L13.3755 14.5303C12.1275 13.2822 12.1273 11.2621 13.3755 10.0138C14.6207 8.76859 16.6466 8.76855 17.8918 10.0138C19.1398 11.2619 19.14 13.282 17.8918 14.5303Z" fill="#4B4A4B"/>
<path d="M15.6533 10.418C14.6237 10.418 13.7862 11.2556 13.7862 12.2852C13.7862 13.3147 14.6238 14.1524 15.6533 14.1524C16.6828 14.1524 17.5203 13.3148 17.5203 12.2852C17.5203 11.2556 16.6828 10.418 15.6533 10.418ZM15.6533 12.9805C15.2699 12.9805 14.958 12.6686 14.958 12.2852C14.958 11.9018 15.2699 11.5898 15.6533 11.5898C16.0367 11.5898 16.3485 11.9018 16.3485 12.2852C16.3485 12.6686 16.0366 12.9805 15.6533 12.9805Z" fill="#4B4A4B"/>
<path d="M4.62532 12H2.37468C2.16774 12 2 12.2239 2 12.5C2 12.7761 2.16774 13 2.37468 13H4.62532C4.83226 13 5 12.7761 5 12.5C5 12.2239 4.83226 12 4.62532 12Z" fill="#4B4A4B"/>
<path d="M4.62501 14H2.37499C2.16788 14 2 14.2239 2 14.5C2 14.7761 2.16788 15 2.37499 15H4.62501C4.83212 15 5 14.7761 5 14.5C5 14.2239 4.83212 14 4.62501 14Z" fill="#4B4A4B"/>
</g>
<defs>
<clipPath id="clip0">
<rect width="20" height="20" fill="white"/>
</clipPath>
</defs>
</svg>
