<svg width="20" height="20" viewBox="0 0 20 20" fill="none" xmlns="http://www.w3.org/2000/svg">
<path d="M5.27344 1.17188H6.44531C6.76891 1.17188 7.03125 0.909531 7.03125 0.585938C7.03125 0.262344 6.76891 0 6.44531 0H5.27344C4.94984 0 4.6875 0.262344 4.6875 0.585938C4.6875 0.909531 4.94984 1.17188 5.27344 1.17188ZM12.3047 1.17188H14.0625V2.92969C14.0625 3.25328 14.3248 3.51562 14.6484 3.51562C14.972 3.51562 15.2344 3.25328 15.2344 2.92969V0.585938C15.2344 0.262344 14.972 0 14.6484 0H12.3047C11.9811 0 11.7188 0.262344 11.7188 0.585938C11.7188 0.909531 11.9811 1.17188 12.3047 1.17188ZM8.78906 1.17188H9.96094C10.2845 1.17188 10.5469 0.909531 10.5469 0.585938C10.5469 0.262344 10.2845 0 9.96094 0H8.78906C8.46547 0 8.20312 0.262344 8.20312 0.585938C8.20312 0.909531 8.46547 1.17188 8.78906 1.17188ZM0.585938 7.03125C0.909531 7.03125 1.17188 6.76891 1.17188 6.44531V5.27344C1.17188 4.94984 0.909531 4.6875 0.585938 4.6875C0.262344 4.6875 0 4.94984 0 5.27344V6.44531C0 6.76891 0.262344 7.03125 0.585938 7.03125ZM0.585938 10.5469C0.909531 10.5469 1.17188 10.2845 1.17188 9.96094V8.78906C1.17188 8.46547 0.909531 8.20312 0.585938 8.20312C0.262344 8.20312 0 8.46547 0 8.78906V9.96094C0 10.2845 0.262344 10.5469 0.585938 10.5469ZM2.92969 14.0625H1.17188V12.3047C1.17188 11.9811 0.909531 11.7188 0.585938 11.7188C0.262344 11.7188 0 11.9811 0 12.3047V14.6484C0 14.972 0.262344 15.2344 0.585938 15.2344H2.92969C3.25328 15.2344 3.51562 14.972 3.51562 14.6484C3.51562 14.3248 3.25328 14.0625 2.92969 14.0625ZM19.4141 4.6875H5.27344C4.94984 4.6875 4.6875 4.94984 4.6875 5.27344V19.4141C4.6875 19.7377 4.94984 20 5.27344 20H19.4141C19.7377 20 20 19.7377 20 19.4141V5.27344C20 4.94984 19.7377 4.6875 19.4141 4.6875ZM18.8281 18.8281H5.85938V5.85938H18.8281V18.8281ZM2.92969 0H0.585938C0.262344 0 0 0.262344 0 0.585938V2.92969C0 3.25328 0.262344 3.51562 0.585938 3.51562C0.909531 3.51562 1.17188 3.25328 1.17188 2.92969V1.17188H2.92969C3.25328 1.17188 3.51562 0.909531 3.51562 0.585938C3.51562 0.262344 3.25328 0 2.92969 0Z" fill="#4B4A4B"/>
</svg>
