<svg width="94" height="94" viewBox="0 0 94 94" fill="none" xmlns="http://www.w3.org/2000/svg">
<rect x="0.5" y="0.5" width="93" height="93" rx="9.5" fill="white" stroke="#E3E3E3" stroke-dasharray="5 5"/>
<path d="M29.522 64.168C29.0553 64.168 28.6167 64.1027 28.206 63.972C27.8047 63.832 27.4547 63.608 27.156 63.3C26.8667 62.9827 26.638 62.572 26.47 62.068C26.302 61.564 26.218 60.9433 26.218 60.206V54.816H27.38V60.234C27.38 60.7847 27.436 61.2467 27.548 61.62C27.66 61.9933 27.8093 62.292 27.996 62.516C28.192 62.74 28.4207 62.9033 28.682 63.006C28.9433 63.0993 29.2233 63.146 29.522 63.146C29.83 63.146 30.1147 63.0993 30.376 63.006C30.6373 62.9033 30.866 62.74 31.062 62.516C31.258 62.292 31.412 61.9933 31.524 61.62C31.636 61.2467 31.692 60.7847 31.692 60.234V54.816H32.812V60.206C32.812 60.9433 32.728 61.564 32.56 62.068C32.392 62.572 32.1587 62.9827 31.86 63.3C31.5707 63.608 31.2253 63.832 30.824 63.972C30.4227 64.1027 29.9887 64.168 29.522 64.168ZM35.1714 66.87V57.196H36.1234L36.2214 57.98H36.2634C36.5714 57.7187 36.9074 57.4947 37.2714 57.308C37.6448 57.1213 38.0321 57.028 38.4334 57.028C38.8721 57.028 39.2594 57.112 39.5954 57.28C39.9314 57.4387 40.2114 57.672 40.4354 57.98C40.6594 58.2787 40.8274 58.6427 40.9394 59.072C41.0608 59.492 41.1214 59.968 41.1214 60.5C41.1214 61.0787 41.0421 61.5967 40.8834 62.054C40.7248 62.502 40.5101 62.8847 40.2394 63.202C39.9688 63.5193 39.6561 63.762 39.3014 63.93C38.9468 64.0887 38.5734 64.168 38.1814 64.168C37.8641 64.168 37.5468 64.098 37.2294 63.958C36.9214 63.818 36.6088 63.6267 36.2914 63.384L36.3194 64.574V66.87H35.1714ZM37.9854 63.202C38.2654 63.202 38.5221 63.1413 38.7554 63.02C38.9981 62.8893 39.2034 62.712 39.3714 62.488C39.5488 62.2547 39.6841 61.97 39.7774 61.634C39.8801 61.298 39.9314 60.92 39.9314 60.5C39.9314 60.1267 39.8988 59.786 39.8334 59.478C39.7681 59.17 39.6608 58.9087 39.5114 58.694C39.3714 58.47 39.1848 58.2973 38.9514 58.176C38.7274 58.0547 38.4568 57.994 38.1394 57.994C37.8501 57.994 37.5561 58.0733 37.2574 58.232C36.9681 58.3907 36.6554 58.6193 36.3194 58.918V62.488C36.6274 62.7493 36.9261 62.936 37.2154 63.048C37.5048 63.1507 37.7614 63.202 37.9854 63.202ZM44.1551 64.168C43.7164 64.168 43.4037 64.0373 43.2171 63.776C43.0304 63.5147 42.9371 63.132 42.9371 62.628V54.032H44.0851V62.712C44.0851 62.8987 44.1177 63.0293 44.1831 63.104C44.2484 63.1787 44.3231 63.216 44.4071 63.216C44.4444 63.216 44.4771 63.216 44.5051 63.216C44.5424 63.216 44.5937 63.2067 44.6591 63.188L44.8131 64.056C44.7384 64.0933 44.6497 64.1213 44.5471 64.14C44.4444 64.1587 44.3137 64.168 44.1551 64.168ZM49.1514 64.168C48.7314 64.168 48.3301 64.0887 47.9474 63.93C47.5741 63.7713 47.2428 63.5427 46.9534 63.244C46.6641 62.936 46.4308 62.5627 46.2534 62.124C46.0854 61.676 46.0014 61.172 46.0014 60.612C46.0014 60.0427 46.0854 59.5387 46.2534 59.1C46.4308 58.652 46.6641 58.274 46.9534 57.966C47.2428 57.658 47.5741 57.4247 47.9474 57.266C48.3301 57.1073 48.7314 57.028 49.1514 57.028C49.5714 57.028 49.9681 57.1073 50.3414 57.266C50.7241 57.4247 51.0601 57.658 51.3494 57.966C51.6388 58.274 51.8674 58.652 52.0354 59.1C52.2128 59.5387 52.3014 60.0427 52.3014 60.612C52.3014 61.172 52.2128 61.676 52.0354 62.124C51.8674 62.5627 51.6388 62.936 51.3494 63.244C51.0601 63.5427 50.7241 63.7713 50.3414 63.93C49.9681 64.0887 49.5714 64.168 49.1514 64.168ZM49.1514 63.216C49.4408 63.216 49.7068 63.1553 49.9494 63.034C50.1921 62.9033 50.3974 62.726 50.5654 62.502C50.7428 62.2687 50.8781 61.9933 50.9714 61.676C51.0648 61.3587 51.1114 61.004 51.1114 60.612C51.1114 60.22 51.0648 59.8653 50.9714 59.548C50.8781 59.2213 50.7428 58.9413 50.5654 58.708C50.3974 58.4747 50.1921 58.2973 49.9494 58.176C49.7068 58.0453 49.4408 57.98 49.1514 57.98C48.8621 57.98 48.5961 58.0453 48.3534 58.176C48.1108 58.2973 47.9008 58.4747 47.7234 58.708C47.5554 58.9413 47.4248 59.2213 47.3314 59.548C47.2381 59.8653 47.1914 60.22 47.1914 60.612C47.1914 61.004 47.2381 61.3587 47.3314 61.676C47.4248 61.9933 47.5554 62.2687 47.7234 62.502C47.9008 62.726 48.1108 62.9033 48.3534 63.034C48.5961 63.1553 48.8621 63.216 49.1514 63.216ZM55.4699 64.168C54.9006 64.168 54.4246 64 54.0419 63.664C53.6686 63.328 53.4819 62.852 53.4819 62.236C53.4819 61.4893 53.8132 60.92 54.4759 60.528C55.1386 60.1267 56.1979 59.8467 57.6539 59.688C57.6539 59.4733 57.6306 59.2633 57.5839 59.058C57.5466 58.8527 57.4766 58.6707 57.3739 58.512C57.2712 58.3533 57.1266 58.2273 56.9399 58.134C56.7626 58.0313 56.5339 57.98 56.2539 57.98C55.8619 57.98 55.4932 58.0547 55.1479 58.204C54.8026 58.3533 54.4946 58.5213 54.2239 58.708L53.7759 57.91C54.0932 57.7047 54.4806 57.5087 54.9379 57.322C55.3952 57.126 55.8992 57.028 56.4499 57.028C57.2806 57.028 57.8826 57.2847 58.2559 57.798C58.6292 58.302 58.8159 58.9787 58.8159 59.828V64H57.8639L57.7659 63.188H57.7239C57.3972 63.4587 57.0472 63.692 56.6739 63.888C56.3006 64.0747 55.8992 64.168 55.4699 64.168ZM55.8059 63.244C56.1326 63.244 56.4406 63.1693 56.7299 63.02C57.0192 62.8613 57.3272 62.6327 57.6539 62.334V60.444C57.0846 60.5187 56.6039 60.6073 56.2119 60.71C55.8292 60.8127 55.5166 60.934 55.2739 61.074C55.0406 61.214 54.8679 61.3773 54.7559 61.564C54.6532 61.7413 54.6019 61.9373 54.6019 62.152C54.6019 62.544 54.7186 62.824 54.9519 62.992C55.1852 63.16 55.4699 63.244 55.8059 63.244ZM63.2806 64.168C62.4219 64.168 61.7359 63.86 61.2226 63.244C60.7186 62.628 60.4666 61.7507 60.4666 60.612C60.4666 60.0613 60.5459 59.5667 60.7046 59.128C60.8726 58.68 61.0919 58.302 61.3626 57.994C61.6333 57.686 61.9459 57.448 62.3006 57.28C62.6553 57.112 63.0286 57.028 63.4206 57.028C63.8126 57.028 64.1533 57.098 64.4426 57.238C64.7319 57.378 65.0259 57.5693 65.3246 57.812L65.2686 56.65V54.032H66.4306V64H65.4786L65.3806 63.202H65.3386C65.0679 63.4633 64.7553 63.692 64.4006 63.888C64.0553 64.0747 63.6819 64.168 63.2806 64.168ZM63.5326 63.202C63.8499 63.202 64.1486 63.1273 64.4286 62.978C64.7086 62.8193 64.9886 62.5813 65.2686 62.264V58.708C64.9793 58.4467 64.6993 58.2647 64.4286 58.162C64.1673 58.05 63.8966 57.994 63.6166 57.994C63.3459 57.994 63.0893 58.0593 62.8466 58.19C62.6133 58.3113 62.4079 58.4887 62.2306 58.722C62.0533 58.946 61.9133 59.2167 61.8106 59.534C61.7079 59.8513 61.6566 60.206 61.6566 60.598C61.6566 61.4193 61.8199 62.0587 62.1466 62.516C62.4733 62.9733 62.9353 63.202 63.5326 63.202Z" fill="#4B4A4B"/>
<path d="M44.292 35.0903C45.1268 35.0903 45.8035 34.4136 45.8035 33.5788C45.8035 32.7441 45.1268 32.0674 44.292 32.0674C43.4573 32.0674 42.7806 32.7441 42.7806 33.5788C42.7806 34.4136 43.4573 35.0903 44.292 35.0903Z" fill="#4B4A4B"/>
<path d="M56.6985 39.1414C55.9847 38.4697 55.0821 38.0288 54.0954 37.9029V30.2197C54.0954 29.401 53.7595 28.6663 53.2347 28.1205C52.6889 27.5747 51.9542 27.2598 51.1355 27.2598H38.9599C38.1412 27.2598 37.4065 27.5956 36.8607 28.1205C36.3149 28.6663 36 29.401 36 30.2197V39.8972V40.7998V42.7521C36 43.5708 36.3359 44.3056 36.8607 44.8514C37.4065 45.3972 38.1412 45.7121 38.9599 45.7121H50.7366C51.5134 46.3418 52.479 46.7407 53.5496 46.7407C54.7882 46.7407 55.9008 46.2369 56.6985 45.4392C57.4962 44.6414 58 43.5288 58 42.2903C58 41.0517 57.4962 39.9392 56.6985 39.1414ZM37.1126 30.2197C37.1126 29.7159 37.3225 29.254 37.6584 28.9182C37.9943 28.5823 38.4561 28.3724 38.9599 28.3724H51.1355C51.6393 28.3724 52.1011 28.5823 52.437 28.9182C52.7729 29.254 52.9828 29.7159 52.9828 30.2197V36.7693L49.876 33.6834C49.666 33.4735 49.3092 33.4525 49.0782 33.6834L44.3969 38.3857L41.2271 35.1949C41.0172 34.985 40.6603 34.964 40.4294 35.1949L37.1126 38.5537V30.2197ZM38.9389 44.6204V44.5995C38.4351 44.5995 37.9733 44.3895 37.6374 44.0537C37.3225 43.7178 37.1126 43.2559 37.1126 42.7521V40.7998V40.1281L40.8492 36.3914L44.0191 39.5613C44.229 39.7712 44.5859 39.7712 44.8168 39.5613L49.4981 34.859L52.563 37.9449C52.5 37.9659 52.437 37.9869 52.374 38.0079C52.2901 38.0288 52.2061 38.0498 52.1011 38.0918C52.0172 38.1128 51.9332 38.1548 51.8492 38.1758C51.7863 38.1968 51.7443 38.2178 51.6813 38.2598C51.5973 38.3017 51.5343 38.3227 51.4714 38.3647C51.3664 38.4277 51.2614 38.4907 51.1565 38.5537C51.0935 38.5956 51.0515 38.6166 50.9885 38.6586C50.9466 38.6796 50.9256 38.7006 50.8836 38.7216C50.6947 38.8475 50.5267 38.9945 50.3798 39.1624C49.5821 39.9601 49.0782 41.0727 49.0782 42.3113C49.0782 42.6262 49.1202 42.9201 49.1832 43.235C49.2042 43.3189 49.2252 43.3819 49.2462 43.4659C49.3092 43.6758 49.3721 43.8857 49.4561 44.0956V44.1166C49.5401 44.2846 49.624 44.4735 49.729 44.6204H38.9389ZM55.8798 44.6414C55.271 45.2502 54.4523 45.6071 53.5286 45.6071C52.6469 45.6071 51.8282 45.2502 51.2405 44.6834C51.1565 44.5995 51.0725 44.4945 50.9885 44.4105C50.9256 44.3475 50.8626 44.2636 50.7996 44.2006C50.7156 44.0956 50.6527 43.9697 50.5897 43.8437C50.5477 43.7598 50.5057 43.6968 50.4637 43.6128C50.4218 43.5079 50.3798 43.3819 50.3588 43.2559C50.3378 43.172 50.2958 43.067 50.2748 42.983C50.2328 42.7731 50.2118 42.5422 50.2118 42.3113C50.2118 41.3876 50.5897 40.5689 51.1775 39.9601C51.7863 39.3514 52.605 38.9945 53.5286 38.9945C54.4523 38.9945 55.271 39.3724 55.8798 39.9601C56.4885 40.5479 56.8454 41.3876 56.8454 42.3113C56.8454 43.214 56.4676 44.0327 55.8798 44.6414Z" fill="#4B4A4B"/>
<path d="M55.355 41.7233H54.0744V40.4428C54.0744 40.1279 53.8225 39.876 53.5076 39.876C53.1927 39.876 52.9408 40.1279 52.9408 40.4428V41.7233H51.6603C51.3454 41.7233 51.0935 41.9752 51.0935 42.2901C51.0935 42.605 51.3454 42.8569 51.6603 42.8569H52.9408V44.1374C52.9408 44.4523 53.1927 44.7042 53.5076 44.7042C53.8225 44.7042 54.0744 44.4523 54.0744 44.1374V42.8569H55.355C55.6698 42.8569 55.9218 42.605 55.9218 42.2901C55.9218 41.9752 55.6698 41.7233 55.355 41.7233Z" fill="#4B4A4B"/>
</svg>
