<svg width="28" height="28" viewBox="0 0 28 28" fill="none" xmlns="http://www.w3.org/2000/svg">
<path d="M14 28C21.732 28 28 21.732 28 14C28 6.26801 21.732 0 14 0C6.26801 0 0 6.26801 0 14C0 21.732 6.26801 28 14 28Z" fill="#3B9E96"/>
<mask id="mask0" mask-type="alpha" maskUnits="userSpaceOnUse" x="0" y="0" width="28" height="28">
<rect width="28" height="28" rx="14" fill="white"/>
</mask>
<g mask="url(#mask0)">
<path d="M5.03714 18.9453L9.64306 17.4677L13.5066 18.1225L18.0276 10.6473L22.3609 8.67504L31.2894 17.6202L16.9187 31.9909L5.03714 18.9453Z" fill="#12857C"/>
</g>
<path d="M7.00977 8H21.0123L21.2009 19.9426H6.7991L6.1499 9.57803L7.00977 8Z" fill="white"/>
<path d="M21.0123 8H14V19.9426H21.201L21.2957 9.92509L21.0123 8Z" fill="#E9EDF5"/>
<path d="M21.2008 19.9426V10.0068C21.2008 9.92974 21.1588 9.85764 21.0902 9.82256C21.017 9.78516 20.946 9.79051 20.8793 9.83856L13.9999 15.614L7.12052 9.83856C7.05382 9.79051 6.9828 9.78516 6.90961 9.82256C6.84102 9.85759 6.79898 9.92969 6.79898 10.0067V19.9427C5.80542 19.9427 5 19.1372 5 18.1437V10.0033C5 9.2485 5.41732 8.56579 6.08909 8.22161C6.76091 7.87744 7.55876 7.93752 8.17141 8.37846L13.9999 13.3976L19.8284 8.37846C20.448 7.9325 21.2571 7.87612 21.9335 8.2335C22.5978 8.58444 22.9998 9.28831 22.9998 10.0396V18.1437C22.9998 19.1372 22.1944 19.9426 21.2008 19.9426Z" fill="#FF583E"/>
<path d="M21.9337 8.23346C21.2573 7.87613 20.4481 7.93251 19.8285 8.37842L14 13.3926V15.6092L20.8794 9.83853C20.9461 9.79048 21.0171 9.78513 21.0903 9.82253C21.1589 9.85761 21.2009 9.92966 21.2009 10.0067V19.9426C22.1945 19.9426 22.9999 19.1372 22.9999 18.1436V10.0396C22.9999 9.28828 22.5979 8.5844 21.9337 8.23346Z" fill="#F92814"/>
</svg>
