<svg width="20" height="20" viewBox="0 0 20 20" fill="none" xmlns="http://www.w3.org/2000/svg">
<path d="M8.70537 9.98037L12.6307 6.05491C12.7388 5.94708 12.7982 5.80291 12.7982 5.64919C12.7982 5.49538 12.7388 5.3513 12.6307 5.2433L12.2867 4.89952C12.1788 4.79135 12.0345 4.7318 11.8808 4.7318C11.7271 4.7318 11.583 4.79135 11.475 4.89952L6.80133 9.57312C6.6929 9.68146 6.63353 9.82622 6.63396 9.98012C6.63353 10.1347 6.69282 10.2793 6.80133 10.3877L11.4707 15.0568C11.5787 15.165 11.7227 15.2245 11.8766 15.2245C12.0303 15.2245 12.1744 15.165 12.2824 15.0568L12.6263 14.713C12.8501 14.4893 12.8501 14.125 12.6263 13.9013L8.70537 9.98037Z" fill="currentColor"/>
<path fill-rule="evenodd" clip-rule="evenodd" d="M10 1.46341C5.28537 1.46341 1.46341 5.28537 1.46341 10C1.46341 14.7146 5.28537 18.5366 10 18.5366C14.7146 18.5366 18.5366 14.7146 18.5366 10C18.5366 5.28537 14.7146 1.46341 10 1.46341ZM0 10C0 4.47715 4.47715 0 10 0C15.5228 0 20 4.47715 20 10C20 15.5228 15.5228 20 10 20C4.47715 20 0 15.5228 0 10Z" fill="currentColor"/>
</svg>
