<svg width="20" height="20" viewBox="0 0 20 20" fill="none" xmlns="http://www.w3.org/2000/svg">
<g clip-path="url(#clip0)">
<path d="M0.0719929 15.6966L1.23359 12.316C0.673674 11.1714 0.377773 9.89842 0.375782 8.61759C0.372345 6.39052 1.23399 4.28477 2.80204 2.68829C4.3704 1.09149 6.46032 0.192616 8.68689 0.157343C10.9957 0.120858 13.1658 0.999063 14.7974 2.63055C16.3706 4.20372 17.2432 6.27767 17.2708 8.49392C18.8213 9.66135 19.7365 11.4815 19.7335 13.4256C19.7321 14.3353 19.5273 15.2397 19.1393 16.0575L19.9394 18.3859C20.0769 18.7862 19.9765 19.2208 19.6772 19.5201C19.4666 19.7307 19.1889 19.8429 18.9033 19.8429C18.7831 19.8429 18.6616 19.823 18.543 19.7823L16.2145 18.9822C15.3967 19.3702 14.4924 19.575 13.5826 19.5764C13.5794 19.5764 13.5762 19.5764 13.573 19.5764C11.5999 19.5763 9.76591 18.6375 8.60275 17.049C7.39232 17.0171 6.1947 16.7241 5.112 16.1944L1.73137 17.3561C1.59051 17.4045 1.44606 17.4281 1.30328 17.4281C0.963907 17.4281 0.633907 17.2948 0.383556 17.0444C0.0279293 16.6887 -0.0914459 16.1723 0.0719929 15.6966ZM13.573 18.3859C13.5756 18.3859 13.5783 18.3859 13.5808 18.3859C14.386 18.3847 15.1857 18.1862 15.8932 17.8119C16.0386 17.735 16.2094 17.7217 16.3649 17.7751L18.7526 18.5955L17.9321 16.208C17.8787 16.0524 17.892 15.8816 17.9689 15.7362C18.3432 15.0287 18.5418 14.2291 18.543 13.4238C18.545 12.1285 18.0411 10.9008 17.16 9.9815C16.8722 11.736 16.036 13.3528 14.7398 14.626C13.4532 15.8897 11.8359 16.6943 10.0909 16.9573C11.0123 17.8655 12.2544 18.3859 13.573 18.3859ZM1.22543 16.2026C1.2593 16.2365 1.29946 16.2457 1.34461 16.2302L4.96368 14.9866C5.02653 14.965 5.09192 14.9542 5.15708 14.9542C5.25313 14.9542 5.34884 14.9775 5.43544 15.0233C6.46876 15.57 7.63642 15.8599 8.81228 15.8617C8.81615 15.8617 8.81966 15.8617 8.82353 15.8617C12.7635 15.8617 16.0179 12.6612 16.0803 8.72213C16.1118 6.73833 15.3572 4.87391 13.9556 3.47231C12.554 2.07071 10.6892 1.31637 8.70572 1.34762C4.7629 1.41016 1.56016 4.67059 1.56625 8.61572C1.56809 9.79158 1.85797 10.9593 2.40458 11.9925C2.48153 12.138 2.49481 12.3087 2.44137 12.4643L1.19781 16.0834C1.18231 16.1287 1.1916 16.1688 1.22543 16.2026Z" fill="#4B4A4B"/>
<path d="M8.9451 11.5C8.53336 11.5 8.20001 11.8409 8.20001 12.25C8.20001 12.6493 8.52355 13 8.9451 13C9.36666 13 9.70001 12.6494 9.70001 12.25C9.70001 11.8409 9.3569 11.5 8.9451 11.5Z" fill="#4B4A4B"/>
<path d="M8.92194 4.5C7.60487 4.5 7 5.43383 7 6.06418C7 6.51946 7.32193 6.72956 7.58536 6.72956C8.11217 6.72956 7.89755 5.83073 8.89266 5.83073C9.38048 5.83073 9.77073 6.08756 9.77073 6.62451C9.77073 7.2549 9.22439 7.61674 8.90243 7.94359C8.61952 8.23541 8.24878 8.71403 8.24878 9.71791C8.24878 10.3249 8.38534 10.5 8.78535 10.5C9.2634 10.5 9.36094 10.2432 9.36094 10.0214C9.36094 9.4144 9.37074 9.06421 9.90731 8.56229C10.1707 8.31715 11 7.52338 11 6.42609C11 5.32881 10.1707 4.5 8.92194 4.5Z" fill="#4B4A4B"/>
</g>
<defs>
<clipPath id="clip0">
<rect width="20" height="20" fill="white" transform="matrix(-1 0 0 1 20 0)"/>
</clipPath>
</defs>
</svg>
