<svg width="17" height="17" viewBox="0 0 17 17"  xmlns="http://www.w3.org/2000/svg">
<path d="M2.48679 14.5132C-0.828931 11.1975 -0.828931 5.80252 2.48679 2.48679C5.80252 -0.828931 11.1975 -0.828931 14.5132 2.48679C17.8289 5.80252 17.8289 11.1975 14.5132 14.5132C11.1975 17.8289 5.80252 17.8289 2.48679 14.5132ZM13.6542 3.3458C10.8122 0.5038 6.18779 0.5038 3.3458 3.3458C0.5038 6.18779 0.5038 10.8122 3.3458 13.6542C6.18779 16.4962 10.8122 16.4962 13.6542 13.6542C16.4962 10.8122 16.4962 6.18779 13.6542 3.3458Z" fill="#42A391"/>
<path d="M8.07055 13.2248C7.96063 13.1148 7.89264 12.963 7.89273 12.7952L7.89273 4.20495C7.89273 3.86931 8.1645 3.59753 8.50005 3.59763C8.8355 3.59763 9.10746 3.8694 9.10737 4.20495L9.10737 12.7952C9.10737 13.1308 8.8356 13.4026 8.50005 13.4025C8.33223 13.4026 8.18047 13.3347 8.07055 13.2248Z" fill="#42A391"/>
<path d="M3.77535 8.92956C3.66543 8.81964 3.59753 8.66787 3.59762 8.50006C3.59753 8.16451 3.8694 7.89264 4.20494 7.89273H12.7952C13.1308 7.89273 13.4026 8.16451 13.4025 8.50006C13.4025 8.83551 13.1307 9.10747 12.7952 9.10738H4.20494C4.03712 9.10747 3.88527 9.03948 3.77535 8.92956Z" fill="#42A391"/>
</svg>
