<svg width="7" height="11" viewBox="0 0 7 11" fill="none" xmlns="http://www.w3.org/2000/svg">
<path fill-rule="evenodd" clip-rule="evenodd" d="M0.220345 0.22034C0.1505 0.290008 0.0950866 0.372772 0.0572767 0.46389C0.0194669 0.555007 4.73984e-06 0.652689 4.73553e-06 0.75134C4.73122e-06 0.849991 0.0194668 0.947673 0.0572767 1.03879C0.0950865 1.12991 0.1505 1.21267 0.220345 1.28234L4.19085 5.25134L0.220345 9.22034C0.0795146 9.36117 0.000397741 9.55218 0.000397733 9.75134C0.000397724 9.9505 0.0795145 10.1415 0.220345 10.2823C0.361175 10.4232 0.552181 10.5023 0.751345 10.5023C0.950508 10.5023 1.14151 10.4232 1.28234 10.2823L5.78235 5.78234C5.85219 5.71267 5.9076 5.62991 5.94541 5.53879C5.98322 5.44767 6.00269 5.34999 6.00269 5.25134C6.00269 5.15269 5.98322 5.05501 5.94541 4.96389C5.9076 4.87277 5.85219 4.79001 5.78235 4.72034L1.28235 0.22034C1.21268 0.150495 1.12991 0.0950807 1.0388 0.057271C0.947678 0.0194613 0.849996 -2.25231e-07 0.751345 -2.29543e-07C0.652694 -2.33856e-07 0.555013 0.0194613 0.463895 0.057271C0.372777 0.0950807 0.290013 0.150495 0.220345 0.22034Z" fill="#D6D6D6"/>
</svg>
