<svg width="22" height="22" viewBox="0 0 22 22" fill="none" xmlns="http://www.w3.org/2000/svg">
<path d="M8.29221 9.09028C9.12696 9.09028 9.80366 8.41358 9.80366 7.57883C9.80366 6.74408 9.12696 6.06738 8.29221 6.06738C7.45746 6.06738 6.78076 6.74408 6.78076 7.57883C6.78076 8.41358 7.45746 9.09028 8.29221 9.09028Z" fill="#4B4A4B"/>
<path d="M20.6985 13.1414C19.9847 12.4697 19.0821 12.0288 18.0954 11.9029V4.21969C18.0954 3.40099 17.7595 2.66625 17.2347 2.12045C16.6889 1.57465 15.9542 1.25977 15.1355 1.25977H2.95992C2.14122 1.25977 1.40649 1.59564 0.860687 2.12045C0.314885 2.66625 0 3.40099 0 4.21969V13.8972V14.7998V16.7521C0 17.5708 0.335878 18.3056 0.860687 18.8514C1.40649 19.3972 2.14122 19.7121 2.95992 19.7121H14.7366C15.5134 20.3418 16.479 20.7407 17.5496 20.7407C18.7882 20.7407 19.9008 20.2369 20.6985 19.4392C21.4962 18.6414 22 17.5288 22 16.2903C22 15.0517 21.4962 13.9392 20.6985 13.1414ZM1.1126 4.21969C1.1126 3.71587 1.32252 3.25404 1.6584 2.91816C1.99427 2.58228 2.45611 2.37236 2.95992 2.37236H15.1355C15.6393 2.37236 16.1011 2.58228 16.437 2.91816C16.7729 3.25404 16.9828 3.71587 16.9828 4.21969V10.7693L13.876 7.68343C13.666 7.4735 13.3092 7.45251 13.0782 7.68343L8.39695 12.3857L5.2271 9.19488C5.01718 8.98495 4.66031 8.96396 4.42939 9.19488L1.1126 12.5537V4.21969ZM2.93893 18.6204V18.5995C2.43511 18.5995 1.97328 18.3895 1.6374 18.0537C1.32252 17.7178 1.1126 17.2559 1.1126 16.7521V14.7998V14.1281L4.84924 10.3914L8.01908 13.5613C8.22901 13.7712 8.58588 13.7712 8.81679 13.5613L13.4981 8.859L16.563 11.9449C16.5 11.9659 16.437 11.9869 16.374 12.0079C16.2901 12.0288 16.2061 12.0498 16.1011 12.0918C16.0172 12.1128 15.9332 12.1548 15.8492 12.1758C15.7863 12.1968 15.7443 12.2178 15.6813 12.2598C15.5973 12.3017 15.5343 12.3227 15.4714 12.3647C15.3664 12.4277 15.2614 12.4907 15.1565 12.5537C15.0935 12.5956 15.0515 12.6166 14.9885 12.6586C14.9466 12.6796 14.9256 12.7006 14.8836 12.7216C14.6947 12.8475 14.5267 12.9945 14.3798 13.1624C13.5821 13.9601 13.0782 15.0727 13.0782 16.3113C13.0782 16.6262 13.1202 16.9201 13.1832 17.235C13.2042 17.3189 13.2252 17.3819 13.2462 17.4659C13.3092 17.6758 13.3721 17.8857 13.4561 18.0956V18.1166C13.5401 18.2846 13.624 18.4735 13.729 18.6204H2.93893ZM19.8798 18.6414C19.271 19.2502 18.4523 19.6071 17.5286 19.6071C16.6469 19.6071 15.8282 19.2502 15.2405 18.6834C15.1565 18.5995 15.0725 18.4945 14.9885 18.4105C14.9256 18.3475 14.8626 18.2636 14.7996 18.2006C14.7156 18.0956 14.6527 17.9697 14.5897 17.8437C14.5477 17.7598 14.5057 17.6968 14.4637 17.6128C14.4218 17.5079 14.3798 17.3819 14.3588 17.2559C14.3378 17.172 14.2958 17.067 14.2748 16.983C14.2328 16.7731 14.2118 16.5422 14.2118 16.3113C14.2118 15.3876 14.5897 14.5689 15.1775 13.9601C15.7863 13.3514 16.605 12.9945 17.5286 12.9945C18.4523 12.9945 19.271 13.3724 19.8798 13.9601C20.4885 14.5479 20.8454 15.3876 20.8454 16.3113C20.8454 17.214 20.4676 18.0327 19.8798 18.6414Z" fill="#4B4A4B"/>
<path d="M19.3552 15.7233H18.0747V14.4428C18.0747 14.1279 17.8228 13.876 17.5079 13.876C17.193 13.876 16.9411 14.1279 16.9411 14.4428V15.7233H15.6605C15.3457 15.7233 15.0938 15.9752 15.0938 16.2901C15.0938 16.605 15.3457 16.8569 15.6605 16.8569H16.9411V18.1374C16.9411 18.4523 17.193 18.7042 17.5079 18.7042C17.8228 18.7042 18.0747 18.4523 18.0747 18.1374V16.8569H19.3552C19.6701 16.8569 19.922 16.605 19.922 16.2901C19.922 15.9752 19.6701 15.7233 19.3552 15.7233Z" fill="#4B4A4B"/>
</svg>
