<svg width="14" height="16" viewBox="0 0 14 16" fill="none"
    xmlns="http://www.w3.org/2000/svg">
    <path d="M13.1928 0H3.34668C3.09177 0 2.88515 0.206656 2.88515 0.461531V2.46153C2.88515 2.71644 3.09181 2.92306 3.34668 2.92306H5.90793L4.77971 13.0769H0.808211C0.553305 13.0769 0.34668 13.2836 0.34668 13.5384V15.5384C0.34668 15.7933 0.553336 16 0.808211 16H10.6544C10.9093 16 11.1159 15.7933 11.1159 15.5384V13.5384C11.1159 13.2835 10.9092 13.0769 10.6544 13.0769H8.17003L9.29824 2.92306H13.1928C13.4477 2.92306 13.6544 2.71641 13.6544 2.46153V0.461531C13.6544 0.206656 13.4477 0 13.1928 0Z" fill="#999999"/>
</svg>
