<svg width="20" height="20" viewBox="0 0 20 20" fill="none" xmlns="http://www.w3.org/2000/svg">
<path d="M10 1C5.03763 1 1 5.03763 1 10C1 14.9624 5.03763 19 10 19C14.9624 19 19 14.9624 19 10C19 5.03763 14.9624 1 10 1ZM16.372 5.39088C15.4022 5.77563 14.4055 6.0805 13.3829 6.28075C12.9486 4.85087 12.259 3.48175 11.3118 2.24312C13.3863 2.59413 15.184 3.754 16.372 5.39088ZM12.547 12.4525C10.8573 12.2208 9.14163 12.2208 7.45188 12.4525C7.10538 10.8393 7.10425 9.16975 7.44963 7.55538C8.28887 7.67013 9.13713 7.75 10 7.75C10.8629 7.75 11.71 7.67013 12.5492 7.55538C12.8946 9.16975 12.8935 10.8393 12.547 12.4525ZM12.2556 6.45512C10.7583 6.64862 9.24063 6.64862 7.74325 6.45512C8.2045 5.00838 8.95825 3.637 10 2.422C11.0417 3.637 11.7944 5.00838 12.2556 6.45512ZM8.686 2.24312C7.73875 3.48175 7.05025 4.85087 6.616 6.28075C5.5945 6.0805 4.59775 5.77563 3.628 5.39088C4.81487 3.754 6.61262 2.59413 8.686 2.24312ZM2.125 10C2.125 8.68825 2.45238 7.453 3.02163 6.364C4.09713 6.80613 5.20075 7.15375 6.33588 7.38212C5.97475 9.11125 5.97475 10.8966 6.337 12.6269C5.203 12.853 4.09488 13.1984 3.02163 13.6394C2.45238 12.5481 2.125 11.3129 2.125 10ZM3.628 14.6091C4.59775 14.2244 5.5945 13.9195 6.616 13.7192C7.05025 15.1491 7.73988 16.5183 8.68713 17.7569C6.61263 17.4059 4.81487 16.246 3.628 14.6091ZM7.74437 13.5449C9.24063 13.3514 10.7583 13.3514 12.2556 13.5449C11.7944 14.9916 11.0406 16.363 10 17.578C8.95825 16.363 8.20563 14.9916 7.74437 13.5449ZM11.3118 17.7569C12.259 16.5183 12.9486 15.1491 13.3829 13.7192C14.4044 13.9195 15.4022 14.2255 16.372 14.6091C15.184 16.246 13.3863 17.4059 11.3118 17.7569ZM13.6619 12.6246C14.0241 10.8955 14.0252 9.11012 13.663 7.381C14.7981 7.15263 15.9029 6.80613 16.9784 6.36287C17.5476 7.453 17.875 8.68825 17.875 10C17.875 11.3129 17.5476 12.5481 16.9784 13.6371C15.9051 13.1972 14.797 12.8519 13.6619 12.6246Z" fill="#4B4A4B"/>
</svg>
