<svg width="16" height="16" viewBox="0 0 16 16" fill="none"
    xmlns="http://www.w3.org/2000/svg">
    <path d="M3.63596 2.90865H15.2723C15.674 2.90865 15.9996 2.58302 15.9996 2.18137C15.9996 1.77973 15.674 1.4541 15.2723 1.4541H3.63596C3.23432 1.4541 2.90869 1.77973 2.90869 2.18137C2.90869 2.58302 3.23432 2.90865 3.63596 2.90865Z" fill="#999999"/>
    <path d="M15.2723 4.36328H3.63596C3.23432 4.36328 2.90869 4.68891 2.90869 5.09055C2.90869 5.4922 3.23432 5.81783 3.63596 5.81783H15.2723C15.674 5.81783 15.9996 5.4922 15.9996 5.09055C15.9996 4.68891 15.674 4.36328 15.2723 4.36328Z" fill="#999999"/>
    <path d="M15.2723 7.27246H3.63596C3.23432 7.27246 2.90869 7.59809 2.90869 7.99973C2.90869 8.40138 3.23432 8.72701 3.63596 8.72701H15.2723C15.674 8.72701 15.9996 8.40138 15.9996 7.99973C15.9996 7.59809 15.674 7.27246 15.2723 7.27246Z" fill="#999999"/>
    <path d="M15.2723 13.0908H3.63596C3.23432 13.0908 2.90869 13.4164 2.90869 13.8181C2.90869 14.2197 3.23432 14.5454 3.63596 14.5454H15.2723C15.674 14.5454 15.9996 14.2197 15.9996 13.8181C15.9996 13.4164 15.674 13.0908 15.2723 13.0908Z" fill="#999999"/>
    <path d="M15.2723 10.1816H3.63596C3.23432 10.1816 2.90869 10.5073 2.90869 10.9089C2.90869 11.3106 3.23432 11.6362 3.63596 11.6362H15.2723C15.674 11.6362 15.9996 11.3106 15.9996 10.9089C15.9996 10.5073 15.674 10.1816 15.2723 10.1816Z" fill="#999999"/>
    <path d="M0.727273 1.4541C0.535758 1.4541 0.348121 1.53168 0.212848 1.66695C0.0775758 1.80271 0 1.98986 0 2.18137C0 2.37289 0.0775758 2.56004 0.212848 2.6958C0.348606 2.83107 0.535758 2.90865 0.727273 2.90865C0.918788 2.90865 1.10594 2.83107 1.2417 2.6958C1.37697 2.56004 1.45455 2.37289 1.45455 2.18137C1.45455 1.98986 1.37697 1.80271 1.2417 1.66695C1.10642 1.53168 0.918788 1.4541 0.727273 1.4541Z" fill="#999999"/>
    <path d="M0.727273 4.36328C0.535758 4.36328 0.348121 4.44086 0.212848 4.57613C0.0775758 4.71189 0 4.89904 0 5.09055C0 5.28207 0.0775758 5.46922 0.212848 5.60498C0.348606 5.74025 0.535758 5.81783 0.727273 5.81783C0.918788 5.81783 1.10594 5.74025 1.2417 5.60498C1.37697 5.46971 1.45455 5.28207 1.45455 5.09055C1.45455 4.89904 1.37697 4.71189 1.2417 4.57613C1.10642 4.44086 0.918788 4.36328 0.727273 4.36328Z" fill="#999999"/>
    <path d="M0.727273 7.27246C0.535758 7.27246 0.348121 7.35004 0.212848 7.48531C0.0775758 7.62107 0 7.80822 0 7.99973C0 8.19125 0.0775758 8.3784 0.212848 8.51416C0.348121 8.64943 0.535758 8.72701 0.727273 8.72701C0.918788 8.72701 1.10642 8.64943 1.2417 8.51416C1.37697 8.37889 1.45455 8.19125 1.45455 7.99973C1.45455 7.80822 1.37697 7.62107 1.2417 7.48531C1.10642 7.35004 0.918788 7.27246 0.727273 7.27246Z" fill="#999999"/>
    <path d="M0.727273 13.0908C0.535758 13.0908 0.348121 13.1684 0.212848 13.3037C0.0775758 13.4394 0 13.6266 0 13.8181C0 14.0096 0.0775758 14.1968 0.212848 14.3325C0.348121 14.4678 0.535758 14.5454 0.727273 14.5454C0.918788 14.5454 1.10594 14.4678 1.2417 14.3325C1.37697 14.1968 1.45455 14.0096 1.45455 13.8181C1.45455 13.6266 1.37697 13.4389 1.2417 13.3037C1.10642 13.1684 0.918788 13.0908 0.727273 13.0908Z" fill="#999999"/>
    <path d="M0.727273 10.1816C0.535758 10.1816 0.348121 10.2592 0.212848 10.3945C0.0775758 10.5302 0 10.7174 0 10.9089C0 11.1004 0.0775758 11.2876 0.212848 11.4233C0.348121 11.5586 0.535758 11.6362 0.727273 11.6362C0.918788 11.6362 1.10642 11.5586 1.2417 11.4233C1.37697 11.2876 1.45455 11.1004 1.45455 10.9089C1.45455 10.7174 1.37697 10.5298 1.2417 10.3945C1.10642 10.2592 0.918788 10.1816 0.727273 10.1816Z" fill="#999999"/>
</svg>
