<svg width="16" height="16" viewBox="0 0 16 16" fill="none"
    xmlns="http://www.w3.org/2000/svg">
    <path d="M4.66662 2.90962H15.3325C15.7006 2.90962 15.9991 2.584 15.9991 2.18235C15.9991 1.7807 15.7006 1.45508 15.3325 1.45508H4.66662C4.29847 1.45508 4 1.7807 4 2.18235C4 2.584 4.29847 2.90962 4.66662 2.90962Z" fill="#999999"/>
    <path d="M15.3325 4.36426H4.66662C4.29847 4.36426 4 4.68988 4 5.09153C4 5.49318 4.29847 5.8188 4.66662 5.8188H15.3325C15.7006 5.8188 15.9991 5.49318 15.9991 5.09153C15.9991 4.68988 15.7006 4.36426 15.3325 4.36426Z" fill="#999999"/>
    <path d="M15.3325 7.27344H4.66662C4.29847 7.27344 4 7.59906 4 8.00071C4 8.40236 4.29847 8.72798 4.66662 8.72798H15.3325C15.7006 8.72798 15.9991 8.40236 15.9991 8.00071C15.9991 7.59906 15.7006 7.27344 15.3325 7.27344Z" fill="#999999"/>
    <path d="M15.3325 13.0918H4.66662C4.29847 13.0918 4 13.4174 4 13.8191C4 14.2207 4.29847 14.5463 4.66662 14.5463H15.3325C15.7006 14.5463 15.9991 14.2207 15.9991 13.8191C15.9991 13.4174 15.7006 13.0918 15.3325 13.0918Z" fill="#999999"/>
    <path d="M15.3325 10.1826H4.66662C4.29847 10.1826 4 10.5082 4 10.9099C4 11.3115 4.29847 11.6372 4.66662 11.6372H15.3325C15.7006 11.6372 15.9991 11.3115 15.9991 10.9099C15.9991 10.5082 15.7006 10.1826 15.3325 10.1826Z" fill="#999999"/>
    <path d="M0.900621 2.47406V4.36939C0.900621 4.57494 1.06813 4.72994 1.29034 4.72994C1.50882 4.72994 1.67991 4.57156 1.67991 4.36939V1.53503C1.67991 1.33522 1.51608 1.17871 1.30694 1.17871C1.12293 1.17871 1.0309 1.30218 1.00067 1.34274C0.999413 1.34446 0.998152 1.34617 0.996941 1.34789L0.667666 1.81375C0.603739 1.88328 0.546875 1.99448 0.546875 2.10114C0.546825 2.30448 0.704953 2.47033 0.900621 2.47406Z" fill="#999999"/>
    <path d="M0.385453 9.77579H1.86916C2.06336 9.77579 2.22139 9.60469 2.22139 9.3944C2.22139 9.18632 2.06341 9.01704 1.86916 9.01704H0.791825V9.01088C0.791825 8.89756 1.05157 8.7143 1.26031 8.56702C1.67551 8.27402 2.19223 7.90943 2.19223 7.27712C2.19223 6.67705 1.72723 6.22461 1.11055 6.22461C0.520069 6.22461 0.0748472 6.63048 0.0748472 7.16869C0.0748472 7.48101 0.278134 7.59186 0.452206 7.59186C0.701357 7.59186 0.850253 7.40639 0.850253 7.22707C0.850253 7.11556 0.878911 6.9876 1.10223 6.9876C1.4039 6.9876 1.41258 7.25492 1.41258 7.28539C1.41258 7.52566 1.10077 7.75024 0.799191 7.9675C0.426423 8.23598 0.00390626 8.54033 0.00390626 9.01093V9.41513C0.0038558 9.63088 0.201189 9.77579 0.385453 9.77579Z" fill="#999999"/>
    <path d="M2.1417 12.2494C2.1417 11.6267 1.77398 11.2695 1.13288 11.2695C0.292291 11.2695 0.0701841 11.8699 0.0701841 12.1873C0.0701841 12.5569 0.344916 12.5967 0.463033 12.5967C0.693061 12.5967 0.847557 12.4422 0.847557 12.2121C0.847557 12.1237 0.879041 12.0221 1.12441 12.0221C1.30075 12.0221 1.37255 12.0475 1.37255 12.3031C1.37255 12.5527 1.31897 12.5799 1.10791 12.5799C0.905178 12.5799 0.752347 12.7399 0.752347 12.952C0.752347 13.1619 0.907044 13.3201 1.11215 13.3201C1.39092 13.3201 1.44692 13.4339 1.44692 13.6176V13.6963C1.44692 14.0053 1.32638 14.064 1.10392 14.064C0.797 14.064 0.773135 13.9059 0.773135 13.8575C0.773135 13.6743 0.651688 13.4894 0.380336 13.4894C0.142185 13.4894 0 13.6379 0 13.8865C0 14.3394 0.388308 14.8207 1.10791 14.8207C1.80692 14.8207 2.22429 14.4004 2.22429 13.6963V13.6176C2.22429 13.3289 2.13196 13.0896 1.9587 12.9175C2.07737 12.7458 2.1417 12.5167 2.1417 12.2494Z" fill="#999999"/>
</svg>
