<svg width="12" height="14" viewBox="0 0 12 14" fill="none"
    xmlns="http://www.w3.org/2000/svg">
    <path d="M6 0C3.1055 0 0.75 2.37183 0.75 5.28792C0.75 9.43133 5.5065 13.7095 5.70892 13.8892C5.79233 13.9633 5.89617 14 6 14C6.10383 14 6.20767 13.9633 6.29108 13.8898C6.4935 13.7095 11.25 9.43133 11.25 5.28792C11.25 2.37183 8.8945 0 6 0ZM6 8.16667C4.39175 8.16667 3.08333 6.85825 3.08333 5.25C3.08333 3.64175 4.39175 2.33333 6 2.33333C7.60825 2.33333 8.91667 3.64175 8.91667 5.25C8.91667 6.85825 7.60825 8.16667 6 8.16667Z" fill="#42A391"/>
</svg>
