<svg width="20" height="14" viewBox="0 0 20 14" fill="none" xmlns="http://www.w3.org/2000/svg">
<path d="M18.2422 0.148438H1.75781C0.788555 0.148438 0 0.936992 0 1.90625V12.093C0 13.0623 0.788555 13.8509 1.75781 13.8509H18.2422C19.2114 13.8509 20 13.0623 20 12.093V1.90625C20 0.936992 19.2114 0.148438 18.2422 0.148438ZM18.0128 1.32031L17.7782 1.51566L10.6974 7.4118C10.2933 7.74828 9.70664 7.74828 9.30258 7.4118L2.22184 1.51566L1.98723 1.32031H18.0128ZM1.17188 2.16633L6.94109 6.97035L1.17188 10.8099V2.16633ZM18.2422 12.679H1.75781C1.47469 12.679 1.23789 12.4771 1.18363 12.2098L7.8807 7.75273L8.55273 8.31234C8.97203 8.66148 9.48606 8.83605 10 8.83605C10.514 8.83605 11.028 8.66148 11.4473 8.31234L12.1194 7.75273L18.8164 12.2098C18.7621 12.4771 18.5253 12.679 18.2422 12.679ZM18.8281 10.8099L13.0589 6.97039L18.8281 2.16633V10.8099Z" fill="#4B4A4B"/>
</svg>
