<svg width="20" height="20" viewBox="0 0 20 20" fill="none" xmlns="http://www.w3.org/2000/svg">
<path d="M20 7.91551C20 6.11992 19.1378 4.43844 17.5723 3.1809C16.0379 1.94836 14.0039 1.26953 11.8453 1.26953C9.68668 1.26953 7.65273 1.94836 6.11832 3.1809C5.35758 3.79203 4.76348 4.5034 4.35309 5.27914C3.5018 5.55152 2.71906 5.9634 2.04945 6.50129C0.727891 7.56297 0 8.98391 0 10.5025C0 11.8871 0.6125 13.2021 1.73027 14.229L1.62008 18.2314C1.61469 18.4267 1.72691 18.6062 1.90477 18.6869C1.96902 18.7161 2.03734 18.7303 2.1052 18.7303C2.22508 18.7303 2.3434 18.6859 2.435 18.6012L5.28629 15.9627C5.80125 16.0613 6.33055 16.1113 6.86336 16.1113C8.64469 16.1113 10.3252 15.5604 11.6073 14.5586C11.6865 14.5604 11.7658 14.5616 11.8454 14.5616C12.6464 14.5616 13.4357 14.4676 14.1956 14.2818L16.6911 16.591C16.7827 16.6757 16.9009 16.7201 17.0209 16.7201C17.0887 16.7201 17.157 16.7059 17.2213 16.6767C17.3992 16.596 17.5114 16.4165 17.506 16.2212L17.4112 12.7756C19.06 11.5211 20 9.76305 20 7.91551ZM6.8634 15.1403C6.31465 15.1403 5.77066 15.0806 5.24672 14.9627C5.0907 14.9277 4.92773 14.9715 4.81051 15.08L2.62227 17.105L2.70691 14.0291C2.71094 13.8823 2.64832 13.7415 2.53652 13.6462C1.52687 12.7859 0.97082 11.6693 0.97082 10.5025C0.97082 8.80391 2.13723 7.31594 3.8725 6.50801C3.75266 6.96512 3.69063 7.43617 3.69063 7.91547C3.69063 9.71105 4.55281 11.3925 6.11832 12.6501C7.21832 13.5337 8.575 14.1326 10.0504 14.4009C9.13086 14.8682 8.03691 15.1403 6.8634 15.1403ZM16.638 12.1389C16.5058 12.2327 16.4292 12.3862 16.4336 12.5482L16.5037 15.0948L14.6602 13.3889C14.5693 13.3048 14.4511 13.2597 14.3304 13.2597C14.2875 13.2597 14.2443 13.2654 14.2018 13.2771C13.4452 13.4851 12.6524 13.5906 11.8452 13.5906C7.88406 13.5906 4.66137 11.0447 4.66137 7.91543C4.66137 4.78613 7.8841 2.24031 11.8453 2.24031C15.8065 2.24031 19.0292 4.78617 19.0292 7.91547C19.0292 9.52176 18.1577 11.0611 16.638 12.1389Z" fill="black"/>
<path d="M11.9131 6.47363C11.0431 6.47363 10.3354 7.18133 10.3354 8.05125C10.3354 8.92117 11.0431 9.62887 11.9131 9.62887C12.783 9.62887 13.4907 8.92117 13.4907 8.05125C13.4907 7.18133 12.783 6.47363 11.9131 6.47363ZM11.9131 8.65801C11.5785 8.65801 11.3063 8.38582 11.3063 8.05125C11.3063 7.71668 11.5785 7.44449 11.9131 7.44449C12.2477 7.44449 12.5198 7.71668 12.5198 8.05125C12.5198 8.38582 12.2477 8.65801 11.9131 8.65801Z" fill="black"/>
<path d="M16.039 6.47363C15.1691 6.47363 14.4614 7.18133 14.4614 8.05125C14.4614 8.92117 15.1691 9.62887 16.039 9.62887C16.909 9.62887 17.6167 8.92117 17.6167 8.05125C17.6167 7.18133 16.909 6.47363 16.039 6.47363ZM16.039 8.65801C15.7044 8.65801 15.4323 8.38582 15.4323 8.05125C15.4323 7.71668 15.7045 7.44449 16.039 7.44449C16.3736 7.44449 16.6458 7.71668 16.6458 8.05125C16.6458 8.38582 16.3737 8.65801 16.039 8.65801Z" fill="black"/>
<path d="M7.78709 6.47363C6.91721 6.47363 6.20947 7.18133 6.20947 8.05125C6.20947 8.92117 6.91721 9.62887 7.78709 9.62887C8.65693 9.62887 9.36471 8.92117 9.36471 8.05125C9.36471 7.18133 8.65701 6.47363 7.78709 6.47363ZM7.78709 8.65801C7.45248 8.65801 7.18033 8.38582 7.18033 8.05125C7.18033 7.71668 7.45252 7.44449 7.78709 7.44449C8.1217 7.44449 8.39385 7.71668 8.39385 8.05125C8.39385 8.38582 8.1217 8.65801 7.78709 8.65801Z" fill="black"/>
</svg>
