<svg width="20" height="20" viewBox="0 0 20 20" fill="none" xmlns="http://www.w3.org/2000/svg">
<path d="M18.2031 5.3125H13.5156V1.75781C13.5156 0.788555 12.7271 0 11.7578 0H2.38281C1.41355 0 0.625 0.788555 0.625 1.75781V18.2422C0.625 19.2114 1.41355 20 2.38281 20H11.7578C12.7271 20 13.5156 19.2114 13.5156 18.2422V14.6875H18.2031C18.8493 14.6875 19.375 14.1618 19.375 13.5156V6.48438C19.375 5.8382 18.8493 5.3125 18.2031 5.3125ZM15.8676 13.5156H7.64801C7.55277 12.2711 6.55688 11.2752 5.31227 11.1801L5.31203 8.81992C6.55676 8.72492 7.55277 7.72906 7.64801 6.48438H15.8677C15.9629 7.72887 16.9586 8.72465 18.2032 8.81988V11.1802C16.9586 11.2754 15.9629 12.2711 15.8676 13.5156ZM5.31176 6.48441L6.47019 6.48438C6.38426 7.08238 5.91 7.55648 5.31187 7.64215L5.31176 6.48441ZM6.47019 13.5156H5.3125L5.31238 12.3579C5.91023 12.4438 6.3843 12.9178 6.47019 13.5156ZM18.2031 7.64207C17.6053 7.55617 17.1313 7.08219 17.0454 6.48438H18.2031V7.64207ZM2.38281 1.17188H11.7578C12.0809 1.17188 12.3438 1.43473 12.3438 1.75781V2.96875H1.79688V1.75781C1.79688 1.43473 2.05973 1.17188 2.38281 1.17188ZM11.7578 18.8281H2.38281C2.05973 18.8281 1.79688 18.5653 1.79688 18.2422V17.0312H12.3438V18.2422C12.3438 18.5653 12.0809 18.8281 11.7578 18.8281ZM12.3438 15.8594H1.79688V4.14062H12.3438V5.3125H5.3125C4.66633 5.3125 4.14062 5.8382 4.14062 6.48438V13.5156C4.14062 14.1618 4.66633 14.6875 5.3125 14.6875H12.3438V15.8594ZM17.0454 13.5156C17.1313 12.9178 17.6053 12.4438 18.2031 12.3579V13.5156H17.0454Z" fill="#4B4A4B"/>
<path d="M11.7578 7.65625C10.4655 7.65625 9.41406 8.70766 9.41406 10C9.41406 11.2923 10.4655 12.3438 11.7578 12.3438C13.0502 12.3438 14.1016 11.2923 14.1016 10C14.1016 8.70766 13.0502 7.65625 11.7578 7.65625ZM11.7578 11.1719C11.1116 11.1719 10.5859 10.6462 10.5859 10C10.5859 9.35383 11.1116 8.82812 11.7578 8.82812C12.404 8.82812 12.9297 9.35383 12.9297 10C12.9297 10.6462 12.404 11.1719 11.7578 11.1719Z" fill="#4B4A4B"/>
</svg>
