<svg width="20" height="20" viewBox="0 0 20 20" fill="none" xmlns="http://www.w3.org/2000/svg">
<g clip-path="url(#clip0)">
<path d="M0.642369 20C0.47622 20 0.313332 19.9347 0.192991 19.8135C0.0352268 19.6557 -0.0284378 19.4267 0.0259101 19.2105L1.21985 14.4183C1.2478 14.3063 1.30557 14.2037 1.38693 14.1223L14.8275 0.68181C15.7365 -0.227351 17.2163 -0.227351 18.1254 0.68181L19.3245 1.88088C20.2337 2.79004 20.2337 4.26985 19.3245 5.17886L5.88414 18.6194C5.80261 18.7007 5.69998 18.7593 5.58817 18.7865L0.795941 19.9804C0.745009 19.9941 0.694077 20 0.642369 20ZM2.41054 14.8966L1.51504 18.4905L5.10898 17.595L18.4256 4.27917C18.8386 3.86612 18.8386 3.19283 18.4256 2.77979L17.2265 1.58072C16.8127 1.1669 16.1393 1.16768 15.7271 1.58072L2.41054 14.8966ZM5.4346 18.17H5.44314H5.4346Z" fill="#42A391"/>
<path d="M16.8054 7.43384C16.6425 7.43384 16.4796 7.37188 16.3559 7.24735L12.7577 3.64999C12.5091 3.40139 12.5091 2.99859 12.7577 2.75015C13.0062 2.5017 13.409 2.5017 13.6574 2.75015L17.2557 6.34843C17.5042 6.59688 17.5042 6.99968 17.2557 7.24812C17.1301 7.37188 16.9674 7.43384 16.8054 7.43384Z" fill="#42A391"/>
<path d="M5.43225 18.806C5.26936 18.806 5.10662 18.7441 4.98287 18.6194L1.38458 15.0213C1.13613 14.7727 1.13613 14.3699 1.38458 14.1214C1.63302 13.873 2.03582 13.873 2.28442 14.1214L5.88256 17.7197C6.131 17.9682 6.131 18.371 5.88256 18.6194C5.75787 18.7441 5.59513 18.806 5.43225 18.806Z" fill="#42A391"/>
</g>
<defs>
<clipPath id="clip0">
<rect width="20" height="20" fill="white"/>
</clipPath>
</defs>
</svg>
