<svg width="16" height="16" viewBox="0 0 16 16" fill="none"
    xmlns="http://www.w3.org/2000/svg">
    <path d="M0.513767 16C0.380848 16 0.250538 15.9478 0.154264 15.8508C0.0280533 15.7246 -0.0228784 15.5414 0.0205999 15.3685L0.975755 11.5347C0.998115 11.4451 1.04433 11.363 1.10942 11.2979L11.8618 0.545497C12.589 -0.181832 13.7729 -0.181832 14.5002 0.545497L15.4595 1.50475C16.1868 2.23208 16.1868 3.41593 15.4595 4.14313L4.70718 14.8956C4.64196 14.9606 4.55985 15.0075 4.47041 15.0292L0.636624 15.9844C0.595879 15.9953 0.555134 16 0.513767 16ZM1.9283 11.9173L1.2119 14.7924L4.08706 14.076L14.7403 3.42338C15.0708 3.09295 15.0708 2.55432 14.7403 2.22388L13.7811 1.26463C13.45 0.933571 12.9113 0.934192 12.5816 1.26463L1.9283 11.9173ZM4.34755 14.536H4.35439H4.34755Z" fill="#4B4A4B"/>
</svg>
