<svg width="28" height="28" viewBox="0 0 28 28" fill="none" xmlns="http://www.w3.org/2000/svg">
<path d="M14 28C21.732 28 28 21.732 28 14C28 6.26801 21.732 0 14 0C6.26801 0 0 6.26801 0 14C0 21.732 6.26801 28 14 28Z" fill="#3B9E96"/>
<mask id="mask0" mask-type="alpha" maskUnits="userSpaceOnUse" x="0" y="0" width="28" height="28">
<path d="M14 28C21.732 28 28 21.732 28 14C28 6.26801 21.732 0 14 0C6.26801 0 0 6.26801 0 14C0 21.732 6.26801 28 14 28Z" fill="#3B9E96"/>
</mask>
<g mask="url(#mask0)">
<path d="M8.26953 23L18 4.5L34.6096 20.8886L20.3838 35.1143L8.26953 23Z" fill="#12857C"/>
</g>
<path d="M16.8935 4C16.1672 4 10.8263 4 10.1065 4C8.94495 4 8 4.97677 8 6.1773V21.8227C8 23.0233 8.945 24 10.1065 24C11.1676 24 15.829 24 16.8935 24C18.055 24 19 23.0232 19 21.8227V6.1773C19 4.97677 18.055 4 16.8935 4Z" fill="#316AA6"/>
<path d="M10.0661 21.8227V6.1773C10.0661 4.97672 10.9337 4 12 4C11.0149 4 10.1801 4 9.93391 4C8.86753 4 8 4.97677 8 6.1773V21.8227C8 23.0233 8.86758 24 9.93391 24C10.2894 24 11.0852 24 12 24C10.9336 24 10.0661 23.0233 10.0661 21.8227Z" fill="#14477D"/>
<path d="M18 22.0062C18 22.5551 17.5632 23 17.0244 23C16.2782 23 10.7299 23 9.97563 23C9.4368 23 9 22.5551 9 22.0062C9 21.5003 9 6.5092 9 5.99376C9 5.44492 9.4368 5 9.97563 5H10.5132C10.7148 5 10.8782 5.1665 10.8782 5.37185V5.60766C10.8782 5.92409 11.1324 6.18295 11.443 6.18295C12.2892 6.18295 14.711 6.18295 15.557 6.18295C15.8676 6.18295 16.1217 5.92409 16.1217 5.60766V5.37185C16.1217 5.1665 16.2852 5 16.4868 5H17.0243C17.5631 5 18 5.44492 18 5.99376C18 9.44041 18 18.7935 18 22.0062Z" fill="white"/>
<path d="M9.83002 5.99376C9.83002 5.6368 9.89149 5.2994 10 5H9.71972C9.32223 5 9 5.44492 9 5.99376C9 6.50915 9 21.5003 9 22.0062C9 22.5551 9.32223 23 9.71972 23C9.77748 23 9.87388 23 10 23C9.89145 22.7006 9.83002 22.3632 9.83002 22.0062V5.99376Z" fill="#E2E7F1"/>
<path d="M14.6988 5.7075H13.535C13.3471 5.7075 13.1948 5.54758 13.1948 5.35033C13.1948 5.15309 13.3471 4.99316 13.535 4.99316H14.6988C14.8867 4.99316 15.039 5.15309 15.039 5.35033C15.039 5.54758 14.8867 5.7075 14.6988 5.7075Z" fill="#E9EDF5"/>
<path d="M12.3402 5.70855C12.1497 5.70855 12 5.5444 12 5.35138C12 5.12014 12.2036 4.9573 12.4068 5.00135C12.5587 5.03118 12.6803 5.17647 12.6803 5.35138C12.6803 5.54526 12.5312 5.70855 12.3402 5.70855Z" fill="#E9EDF5"/>
<path d="M17.0243 5H16.4868C16.2852 5 16.1217 5.19317 16.1217 5.43143V5.70502C16.1217 6.07215 15.8106 6.15298 15.5 6.15298C14.6541 6.15298 12.3462 6.15298 11.5 6.15298C11.1894 6.15298 10.8782 6.07215 10.8782 5.70502V5.43143C10.8782 5.19317 10.7148 5 10.5132 5H9.97563C9.4368 5 9 5.5162 9 6.15298C9 6.29583 9 7.3979 9 9H18C18 7.87448 18 6.89545 18 6.15298C18 5.5162 17.5631 5 17.0243 5Z" fill="#E9EDF5"/>
<path d="M9 6.15298C9 6.29583 9 7.3979 9 9H9.83002V6.15298C9.83002 5.73883 9.89145 5.34737 10 5H9.71972C9.32223 5 9 5.5162 9 6.15298Z" fill="#E9EDF5"/>
<circle cx="13.4492" cy="21.25" r="0.75" fill="#716D72"/>
<rect x="10" y="10" width="1" height="1" rx="0.3" fill="#D3EEF4"/>
<rect x="14" y="14" width="1" height="1" rx="0.3" fill="#D3EEF4"/>
<rect x="12" y="16" width="1" height="1" rx="0.3" fill="#D3EEF4"/>
<rect x="10" y="12" width="1" height="1" rx="0.3" fill="#93DAAF"/>
<rect x="16" y="14" width="1" height="1" rx="0.3" fill="#93DAAF"/>
<rect x="12" y="10" width="1" height="1" rx="0.3" fill="#F4E3E3"/>
<rect x="12" y="14" width="1" height="1" rx="0.3" fill="#E3E0E4"/>
<rect x="12" y="12" width="1" height="1" rx="0.3" fill="#EA402C"/>
<rect x="14" y="10" width="1" height="1" rx="0.3" fill="#F3DD9B"/>
<rect x="10" y="16" width="1" height="1" rx="0.3" fill="#F3DD9B"/>
<rect x="14" y="12" width="1" height="1" rx="0.3" fill="#5A97E1"/>
<rect x="16" y="10" width="1" height="1" rx="0.3" fill="#FA8C4D"/>
<rect x="10" y="14" width="1" height="1" rx="0.3" fill="#FA8C4D"/>
<rect x="16" y="12" width="1" height="1" rx="0.3" fill="#F3DD9B"/>
</svg>
