<svg width="16" height="16" viewBox="0 0 16 16" fill="none"
    xmlns="http://www.w3.org/2000/svg">
    <path d="M14 0H2C0.896973 0 0 0.896973 0 2V14C0 15.103 0.896973 16 2 16H14C15.103 16 16 15.103 16 14V2C16 0.896973 15.103 0 14 0ZM2 1.33333H14C14.3677 1.33333 14.6667 1.63232 14.6667 2V6.72396L12.4714 4.52865C12.2109 4.26839 11.7891 4.26839 11.5286 4.52865L6.83333 9.22396L5.13802 7.52865C4.8776 7.26839 4.45573 7.26839 4.19531 7.52865L1.33333 10.3906V2C1.33333 1.63232 1.63232 1.33333 2 1.33333ZM14 14.6667H2C1.63232 14.6667 1.33333 14.3677 1.33333 14V12.276L4.66667 8.94271L8.52865 12.8044C8.65902 12.9351 8.82926 13 9 13C9.17074 13 9.34098 12.9351 9.47135 12.8047C9.73161 12.5443 9.73161 12.1224 9.47135 11.862L7.77604 10.1667L12 5.94303L14.6667 8.6097V14C14.6667 14.3677 14.3677 14.6667 14 14.6667Z" fill="#999999"/>
    <path d="M5.33317 4.00033C5.33317 4.73665 4.73617 5.33366 3.99984 5.33366C3.26351 5.33366 2.6665 4.73665 2.6665 4.00033C2.6665 3.264 3.26351 2.66699 3.99984 2.66699C4.73617 2.66699 5.33317 3.264 5.33317 4.00033Z" fill="#999999"/>
</svg>
