<svg width="20" height="20" viewBox="0 0 20 20" fill="none" xmlns="http://www.w3.org/2000/svg">
<g clip-path="url(#clip0)">
<path d="M18.4956 5.42651L18.495 5.41094C18.4863 5.21883 18.4805 5.01559 18.477 4.78945C18.4606 3.6867 17.584 2.77454 16.4811 2.71289C14.1816 2.58456 12.4028 1.83475 10.8828 0.353278L10.8699 0.340919C10.3741 -0.11364 9.62628 -0.11364 9.13037 0.340919L9.1174 0.353278C7.59748 1.83475 5.81861 2.58456 3.51912 2.71304C2.41637 2.77454 1.5396 3.6867 1.52328 4.78961C1.51992 5.01421 1.51397 5.21746 1.50527 5.41094L1.50436 5.44711C1.45965 7.79192 1.40411 10.7102 2.38036 13.3589C2.91716 14.8155 3.73015 16.0817 4.79658 17.1225C6.01118 18.3078 7.60206 19.2488 9.52496 19.9193C9.58752 19.9411 9.65253 19.9588 9.71875 19.9721C9.81213 19.9907 9.90613 20 10.0001 20C10.0941 20 10.1883 19.9907 10.2815 19.9721C10.3477 19.9588 10.4132 19.9409 10.476 19.919C12.3967 19.2473 13.9859 18.3058 15.1994 17.1207C16.2654 16.0796 17.0783 14.8131 17.6156 13.3562C18.5955 10.6995 18.5401 7.77574 18.4956 5.42651ZM16.5145 12.9501C15.4849 15.7419 13.383 17.6591 10.0888 18.8112C10.077 18.8151 10.0645 18.8187 10.0515 18.8212C10.0175 18.828 9.98288 18.828 9.94839 18.8211C9.93558 18.8185 9.92306 18.8151 9.91147 18.8112C6.61375 17.6613 4.51048 15.7451 3.48159 12.9532C2.58178 10.5116 2.63274 7.83281 2.67775 5.46954L2.67806 5.45641C2.68721 5.25332 2.69332 5.04061 2.69668 4.80685C2.704 4.3172 3.09401 3.91208 3.58458 3.88476C4.88585 3.81213 6.02903 3.56067 7.07944 3.11603C8.12848 2.672 9.06018 2.04608 9.92749 1.20258C9.97159 1.16535 10.0288 1.1652 10.0728 1.20258C10.9402 2.04608 11.8719 2.672 12.9208 3.11603C13.9712 3.56067 15.1144 3.81213 16.4158 3.88476C16.9064 3.91208 17.2964 4.3172 17.3036 4.807C17.3071 5.04199 17.3132 5.25469 17.3223 5.45641C17.3672 7.82243 17.4169 10.5034 16.5145 12.9501Z" fill="#4B4A4B"/>
<path d="M9.99985 5.01562C7.25143 5.01562 5.01556 7.25165 5.01556 9.99991C5.01556 12.7483 7.25143 14.9843 9.99985 14.9843C12.7481 14.9843 14.9841 12.7483 14.9841 9.99991C14.9841 7.25165 12.7481 5.01562 9.99985 5.01562ZM9.99985 13.8106C7.89856 13.8106 6.18912 12.1012 6.18912 9.99991C6.18912 7.89862 7.89856 6.18918 9.99985 6.18918C12.101 6.18918 13.8104 7.89862 13.8104 9.99991C13.8104 12.1012 12.101 13.8106 9.99985 13.8106Z" fill="#4B4A4B"/>
<path d="M11.4323 8.45325L9.11724 10.7683L8.48888 10.14C8.2597 9.91077 7.88815 9.91077 7.65896 10.14C7.42992 10.3691 7.42992 10.7407 7.65896 10.9697L8.70235 12.0131C8.81695 12.1277 8.96709 12.1849 9.11724 12.1849C9.26739 12.1849 9.41753 12.1277 9.53213 12.0131L12.2622 9.28303C12.4913 9.05384 12.4913 8.68229 12.2622 8.45325C12.033 8.22392 11.6615 8.22392 11.4323 8.45325Z" fill="#4B4A4B"/>
</g>
<defs>
<clipPath id="clip0">
<rect width="20" height="20" fill="white"/>
</clipPath>
</defs>
</svg>
