<svg width="20" height="20" viewBox="0 0 20 20" fill="none" xmlns="http://www.w3.org/2000/svg">
<g clip-path="url(#clip0)">
<path d="M2.3125 19H4.1875C4.91125 19 5.5 18.4112 5.5 17.6875V17.413C6.634 17.9905 9.2095 19 13.3983 19H14.5983C16.3368 19 17.8127 17.7565 18.1075 16.0435L18.9475 11.1685C19.126 10.1283 18.8388 9.07075 18.1608 8.26525C17.4835 7.46125 16.4905 7 15.4382 7H12.0363C12.2485 6.43 12.4608 5.599 12.4608 4.5625C12.4608 1.74475 10.8663 1 10.0233 1C8.46625 1 8.33575 2.452 8.33575 3.8125C8.33575 5.473 6.4735 6.853 5.49025 7.4665C5.44 6.7885 4.87825 6.25 4.1875 6.25H2.3125C1.58875 6.25 1 6.83875 1 7.5625V17.6875C1 18.4112 1.58875 19 2.3125 19ZM9.46075 3.8125C9.46075 2.125 9.7465 2.125 10.0233 2.125C10.5513 2.125 11.3358 2.7745 11.3358 4.5625C11.3358 6.2245 10.6847 7.243 10.6803 7.2505C10.5655 7.423 10.5542 7.645 10.6525 7.828C10.75 8.011 10.9412 8.125 11.1483 8.125H15.4382C16.1582 8.125 16.837 8.44 17.3005 8.98975C17.7647 9.54025 17.9613 10.2648 17.839 10.9765L16.999 15.8515C16.7973 17.023 15.7878 17.8743 14.5983 17.8743H13.3983C8.296 17.875 5.74 16.279 5.5 16.1207V8.76325C6.12475 8.43175 9.46075 6.53425 9.46075 3.8125ZM2.125 7.5625C2.125 7.459 2.209 7.375 2.3125 7.375H4.1875C4.291 7.375 4.375 7.459 4.375 7.5625V17.6875C4.375 17.7895 4.2895 17.875 4.1875 17.875H2.3125C2.209 17.875 2.125 17.791 2.125 17.6875V7.5625Z" fill="#4B4A4B"/>
</g>
<defs>
<clipPath id="clip0">
<rect width="18" height="18" fill="white" transform="translate(1 1)"/>
</clipPath>
</defs>
</svg>
