<svg width="40" height="40" viewBox="0 0 40 40" fill="none" xmlns="http://www.w3.org/2000/svg">
<path d="M6.89234 35.1064C2.66992 31.4395 0 26.0315 0 20C0 8.9543 8.9543 0 20 0C31.0457 0 40 8.9543 40 20C40 26.0359 37.3262 31.4473 33.0984 35.1144L6.89234 35.1064Z" fill="#D6D6D6"/>
<path d="M39.8352 22.5806L25.9655 8.71094L11.2437 20.0001L15.9777 24.7341L15.3567 25.0759L25.393 35.1121L33.0984 35.1145C36.7138 31.9787 39.1928 27.5673 39.8352 22.5806Z" fill="#C5C5C5"/>
<path d="M19.9989 31.9102C22.035 31.9102 23.84 29.838 24.9585 28.3129L23.797 27.8987C22.9761 27.6059 22.4211 26.7722 22.4211 25.832V23H17.6189V25.832C17.6189 26.7722 17.0638 27.6059 16.2429 27.8987L15.0481 28.3248C16.1672 29.8431 17.9679 31.9102 19.9989 31.9102Z" fill="#F5F5F5"/>
<path d="M23.7978 27.8987C22.9769 27.6059 22.4218 26.7722 22.4218 25.832V23H19.9719V31.9094C19.9812 31.9095 19.9904 31.9102 19.9997 31.9102C22.0359 31.9102 23.8408 29.838 24.9594 28.3129L23.7978 27.8987Z" fill="#EAE9E9"/>
<path d="M31.2618 32.1968C30.3897 30.8241 29.1289 29.7999 27.6718 29.2804L26.2173 28.7617L24.9592 28.723C23.8408 30.2481 22.0415 31.2259 20.0054 31.2259C17.9745 31.2259 16.048 30.2116 14.9289 28.6934L13.7917 28.7733L12.3695 29.2805C10.9125 29.8 9.65169 30.8243 8.7795 32.1969L6.88989 35.1048C10.4004 38.1542 14.9845 40.0002 19.9997 40.0002C25.0094 40.0002 29.589 38.1582 33.098 35.1145L31.2618 32.1968Z" fill="#FBFBFB"/>
<path d="M33.0989 35.1141L31.2627 32.1964C30.3905 30.8237 29.1298 29.7995 27.6727 29.28L26.2182 28.7613L24.9601 28.7227C23.8416 30.2477 22.0424 31.2255 20.0062 31.2255C19.995 31.2255 19.9839 31.225 19.9727 31.2249V39.9995C19.982 39.9995 19.9912 39.9998 20.0005 39.9998C25.0103 39.9998 29.5898 38.1578 33.0989 35.1141Z" fill="#F5F5F5"/>
<path d="M20.0009 32.0498C22.5308 32.0498 24.7814 30.6191 26.2178 28.7614L24.959 28.3125C23.8405 29.8376 22.0355 30.8277 19.9994 30.8277C17.9684 30.8277 16.1676 29.8427 15.0485 28.3244L13.7925 28.7723C15.2293 30.6237 17.4759 32.0498 20.0009 32.0498Z" fill="#D6D6D6"/>
<path d="M24.9593 28.3125C23.8408 29.8376 22.0359 30.8277 19.9997 30.8277C19.9904 30.8277 19.9812 30.8273 19.9719 30.8273V32.0493C19.9818 32.0494 19.9915 32.0498 20.0013 32.0498C22.5312 32.0498 24.7818 30.6191 26.2182 28.7615L24.9593 28.3125Z" fill="#CDCDCD"/>
<path d="M15.4844 18.3453C15.7209 16.9046 14.7446 15.5449 13.3039 15.3085C11.8632 15.072 10.5035 16.0482 10.267 17.489C10.0306 18.9297 11.0068 20.2894 12.4476 20.5258C13.8883 20.7623 15.2479 19.7861 15.4844 18.3453Z" fill="#F5F5F5"/>
<path d="M29.7434 18.3434C29.9799 16.9026 29.0037 15.543 27.5629 15.3065C26.1222 15.07 24.7625 16.0463 24.5261 17.487C24.2896 18.9278 25.2658 20.2874 26.7066 20.5239C28.1473 20.7604 29.507 19.7841 29.7434 18.3434Z" fill="#FAA68E"/>
<path d="M19.9997 26.6813C15.8461 26.6813 12.479 23.3142 12.479 19.1606V16.5637C12.479 12.4101 15.8461 9.04297 19.9997 9.04297C24.1533 9.04297 27.5204 12.4101 27.5204 16.5637V19.1606C27.5204 23.3142 24.1533 26.6813 19.9997 26.6813Z" fill="#F5F5F5"/>
<path d="M19.9997 9.04102C19.9904 9.04102 19.9812 9.04133 19.9719 9.04141V26.679C19.9812 26.679 19.9904 26.6793 19.9997 26.6793C24.1533 26.6793 27.5204 23.3122 27.5204 19.1586V16.5616C27.5204 12.4081 24.1533 9.04102 19.9997 9.04102Z" fill="#EAE9E9"/>
<path d="M28.2894 14.4671C28.2894 9.87927 24.5623 6.16185 19.9708 6.17779C15.3894 6.19364 11.7107 9.97568 11.7107 14.5571V17.2828C11.7107 17.8101 12.1382 18.2376 12.6655 18.2376C12.779 13.0334 15.9998 16 19.9998 12C23.4998 13.5 26.4998 15 27.3346 18.2376C27.8619 18.2376 28.2894 17.8101 28.2894 17.2828L28.2894 14.4671Z" fill="#C7C7C7"/>
<path d="M19.9719 6.17778V9.86223C19.9812 9.86223 19.9716 10 19.9719 12C23.9993 14.5 25.4993 14 27.3343 18.2375C27.8617 18.2375 28.2891 17.81 28.2891 17.2827V14.4671C28.2891 9.87973 24.5628 6.1627 19.9719 6.17778Z" fill="#BEBEBE"/>
<circle cx="26" cy="17" r="6" fill="#D6D6D6"/>
<path d="M26.0825 18.1238C26.28 18.3213 26.28 18.6599 26.0825 18.8574L25.6734 19.2665C25.4759 19.4641 25.1373 19.4641 24.9398 19.2665L23.1481 17.4608C22.9506 17.2633 22.9506 16.9247 23.1481 16.7272L23.5573 16.3181C23.7548 16.1205 24.0933 16.1205 24.2908 16.3181L26.0825 18.1238Z" fill="white"/>
<path d="M27.7687 15.0056C27.9662 14.808 28.3047 14.808 28.5022 15.0056L28.9114 15.4147C29.1089 15.6122 29.1089 15.9508 28.9114 16.1483L25.8077 19.2378C25.6102 19.4353 25.2716 19.4353 25.0741 19.2378L24.665 18.8287C24.4675 18.6312 24.4675 18.2926 24.665 18.0951L27.7687 15.0056Z" fill="white"/>
</svg>
