<svg width="20" height="20" viewBox="0 0 20 20" fill="none" xmlns="http://www.w3.org/2000/svg">
<path d="M16.4844 12.9688C15.3938 12.9688 14.4176 13.4679 13.7723 14.2498L11.1045 12.6916C11.9734 11.0114 11.9771 9.00305 11.1095 7.31789L13.7927 5.77441C14.4381 6.5423 15.4052 7.03125 16.4844 7.03125C18.4229 7.03125 20 5.45414 20 3.51562C20 1.57711 18.4229 0 16.4844 0C14.0298 0 12.3224 2.46793 13.1982 4.76453L10.4707 6.33344C9.39254 4.9859 7.73492 4.12109 5.87891 4.12109C2.63727 4.12109 0 6.75836 0 10C0 13.2416 2.63727 15.8789 5.87891 15.8789C7.73117 15.8789 9.38582 15.0176 10.4642 13.6747L13.187 15.265C12.3365 17.5573 14.0445 20 16.4844 20C18.4229 20 20 18.4229 20 16.4844C20 14.5459 18.4229 12.9688 16.4844 12.9688ZM16.4844 1.17188C17.7767 1.17188 18.8281 2.22328 18.8281 3.51562C18.8281 4.80797 17.7767 5.85938 16.4844 5.85938C15.192 5.85938 14.1406 4.80797 14.1406 3.51562C14.1406 2.22328 15.192 1.17188 16.4844 1.17188ZM5.87891 14.707C3.28344 14.707 1.17188 12.5955 1.17188 10C1.17188 7.40453 3.28344 5.29297 5.87891 5.29297C8.47437 5.29297 10.5859 7.40453 10.5859 10C10.5859 12.5955 8.47437 14.707 5.87891 14.707ZM16.4844 18.8281C15.192 18.8281 14.1406 17.7767 14.1406 16.4844C14.1406 15.192 15.192 14.1406 16.4844 14.1406C17.7767 14.1406 18.8281 15.192 18.8281 16.4844C18.8281 17.7767 17.7767 18.8281 16.4844 18.8281Z" fill="#4B4A4B"/>
<path d="M5.8 9.5C6.21213 9.5 6.56896 9.35218 6.8606 9.06053C7.15214 8.76893 7.3 8.41214 7.3 7.99995C7.3 7.5879 7.15219 7.23107 6.86055 6.93937C6.56891 6.64782 6.21209 6.5 5.8 6.5C5.38782 6.5 5.03105 6.64782 4.73946 6.93942C4.44786 7.23102 4.3 7.58786 4.3 7.99995C4.3 8.41214 4.44786 8.76898 4.73946 9.06058C5.03114 9.35213 5.38797 9.5 5.8 9.5ZM4.99755 7.19747C5.22129 6.97372 5.48375 6.86496 5.8 6.86496C6.11621 6.86496 6.37872 6.97372 6.60251 7.19747C6.82625 7.42127 6.93505 7.68379 6.93505 7.99995C6.93505 8.31621 6.82625 8.57868 6.60251 8.80248C6.37872 9.02628 6.11621 9.13504 5.8 9.13504C5.48385 9.13504 5.22138 9.02623 4.99755 8.80248C4.77376 8.57873 4.66495 8.31621 4.66495 7.99995C4.66495 7.68379 4.77376 7.42127 4.99755 7.19747Z" fill="#4B4A4B" stroke="#4B4A4B" stroke-width="0.7"/>
<path d="M8.37106 12.046C8.36283 11.9271 8.34619 11.7973 8.32169 11.6603C8.29696 11.5223 8.26512 11.3918 8.227 11.2725C8.18758 11.1492 8.13407 11.0275 8.06783 10.9108C7.99917 10.7898 7.91847 10.6843 7.82792 10.5976C7.73323 10.5068 7.61729 10.4338 7.48323 10.3806C7.34963 10.3277 7.20158 10.3008 7.0432 10.3008C6.981 10.3008 6.92085 10.3264 6.80468 10.4022C6.73319 10.4489 6.64956 10.5029 6.55622 10.5626C6.4764 10.6136 6.36828 10.6613 6.23472 10.7045C6.10442 10.7468 5.97213 10.7682 5.8415 10.7682C5.71097 10.7682 5.57867 10.7468 5.44828 10.7045C5.31487 10.6614 5.2067 10.6136 5.12702 10.5627C5.03456 10.5035 4.95089 10.4495 4.87832 10.4021C4.76225 10.3263 4.7021 10.3008 4.6399 10.3008C4.48148 10.3008 4.33347 10.3277 4.19992 10.3806C4.06594 10.4338 3.94996 10.5068 3.85518 10.5976C3.76463 10.6844 3.68393 10.7898 3.61531 10.9108C3.54917 11.0275 3.49561 11.1492 3.45619 11.2726C3.41812 11.3918 3.38628 11.5223 3.36155 11.6603C3.33701 11.7971 3.32041 11.9269 3.31218 12.0461C3.30409 12.1627 3.3 12.284 3.3 12.4066C3.3 12.7252 3.40111 12.9832 3.60049 13.1734C3.7974 13.3611 4.0579 13.4563 4.37479 13.4563H7.30858C7.62538 13.4563 7.88589 13.3611 8.08285 13.1734C8.28227 12.9833 8.38338 12.7253 8.38338 12.4065C8.38333 12.2835 8.37919 12.1622 8.37106 12.046ZM7.83666 12.9142C7.70655 13.0383 7.53381 13.0986 7.30854 13.0986H4.37479C4.14948 13.0986 3.97674 13.0383 3.84667 12.9143C3.71907 12.7926 3.65706 12.6265 3.65706 12.4066C3.65706 12.2922 3.66082 12.1793 3.66835 12.0709C3.6757 11.9645 3.69071 11.8476 3.71298 11.7235C3.73497 11.6009 3.76295 11.4858 3.79624 11.3816C3.82817 11.2817 3.87173 11.1828 3.92574 11.0875C3.9773 10.9967 4.03661 10.9188 4.10206 10.856C4.16328 10.7973 4.24045 10.7492 4.33138 10.7132C4.41547 10.6799 4.50997 10.6616 4.61257 10.6589C4.62507 10.6655 4.64734 10.6782 4.68341 10.7018C4.75681 10.7497 4.84141 10.8044 4.93494 10.8642C5.04037 10.9316 5.1762 10.9924 5.33848 11.0449C5.50439 11.0986 5.6736 11.1259 5.84155 11.1259C6.0095 11.1259 6.17876 11.0986 6.34457 11.0449C6.50699 10.9923 6.64277 10.9316 6.74834 10.8641C6.84406 10.8029 6.92629 10.7498 6.99969 10.7018C7.03576 10.6783 7.05803 10.6655 7.07053 10.6589C7.17317 10.6616 7.26768 10.6799 7.35182 10.7132C7.4427 10.7492 7.51986 10.7974 7.58108 10.856C7.64653 10.9188 7.70585 10.9967 7.7574 11.0876C7.81146 11.1828 7.85507 11.2818 7.88696 11.3816C7.92029 11.4859 7.94832 11.6009 7.97026 11.7234C7.99248 11.8478 8.00754 11.9647 8.01488 12.0709V12.071C8.02246 12.179 8.02627 12.2919 8.02632 12.4066C8.02627 12.6265 7.96426 12.7926 7.83666 12.9142Z" fill="#4B4A4B"/>
<path d="M8.32169 11.6603L8.66622 11.5987L8.6662 11.5986L8.32169 11.6603ZM8.227 11.2725L8.56038 11.166L8.56037 11.1659L8.227 11.2725ZM8.06783 10.9108L7.76337 11.0835L7.76348 11.0837L8.06783 10.9108ZM7.82792 10.5976L7.58573 10.8502L7.58578 10.8503L7.82792 10.5976ZM7.48323 10.3806L7.61239 10.0553L7.61219 10.0552L7.48323 10.3806ZM6.80468 10.4022L6.61347 10.109L6.61325 10.1092L6.80468 10.4022ZM6.55622 10.5626L6.74453 10.8577L6.74491 10.8574L6.55622 10.5626ZM6.23472 10.7045L6.12697 10.3715L6.12679 10.3716L6.23472 10.7045ZM5.44828 10.7045L5.55614 10.3716L5.55604 10.3715L5.44828 10.7045ZM5.12702 10.5627L4.93832 10.8575L4.93847 10.8576L5.12702 10.5627ZM4.87832 10.4021L4.68701 10.6952L4.68702 10.6952L4.87832 10.4021ZM4.19992 10.3806L4.32895 10.706L4.32901 10.706L4.19992 10.3806ZM3.85518 10.5976L3.61298 10.345L3.61297 10.345L3.85518 10.5976ZM3.61531 10.9108L3.91977 11.0835L3.91979 11.0835L3.61531 10.9108ZM3.45619 11.2726L3.1228 11.166L3.12277 11.1661L3.45619 11.2726ZM3.36155 11.6603L3.70605 11.7221L3.70606 11.722L3.36155 11.6603ZM3.31218 12.0461L3.66134 12.0704L3.66135 12.0702L3.31218 12.0461ZM3.60049 13.1734L3.35887 13.4266L3.35898 13.4267L3.60049 13.1734ZM8.08285 13.1734L8.32432 13.4268L8.32434 13.4267L8.08285 13.1734ZM8.38338 12.4065H8.73338V12.4064L8.38338 12.4065ZM3.84667 12.9143L3.60513 13.1676L3.60515 13.1676L3.84667 12.9143ZM3.66835 12.0709L4.01751 12.0951L4.01752 12.095L3.66835 12.0709ZM3.71298 11.7235L4.05748 11.7853L4.05749 11.7853L3.71298 11.7235ZM3.79624 11.3816L3.46286 11.275L3.46284 11.2751L3.79624 11.3816ZM3.92574 11.0875L3.62137 10.9147L3.62127 10.9149L3.92574 11.0875ZM4.10206 10.856L4.34433 11.1086L4.34435 11.1086L4.10206 10.856ZM4.33138 10.7132L4.46036 11.0386L4.46039 11.0386L4.33138 10.7132ZM4.61257 10.6589L4.77709 10.3499L4.69555 10.3065L4.6032 10.309L4.61257 10.6589ZM4.68341 10.7018L4.492 10.9948L4.49208 10.9949L4.68341 10.7018ZM4.93494 10.8642L4.74631 11.159L4.74654 11.1592L4.93494 10.8642ZM5.33848 11.0449L5.44634 10.7119L5.44619 10.7119L5.33848 11.0449ZM6.34457 11.0449L6.23678 10.7119L6.23674 10.7119L6.34457 11.0449ZM6.74834 10.8641L6.93675 11.1591L6.93707 11.1589L6.74834 10.8641ZM6.99969 10.7018L6.80854 10.4086L6.80822 10.4088L6.99969 10.7018ZM7.07053 10.6589L7.0799 10.309L6.98755 10.3065L6.90601 10.3499L7.07053 10.6589ZM7.35182 10.7132L7.48086 10.3879L7.48076 10.3878L7.35182 10.7132ZM7.58108 10.856L7.3389 11.1087L7.3389 11.1087L7.58108 10.856ZM7.7574 11.0876L7.45295 11.2602L7.45303 11.2604L7.7574 11.0876ZM7.88696 11.3816L8.22035 11.2751L8.22035 11.275L7.88696 11.3816ZM7.97026 11.7234L8.3148 11.6619L8.31478 11.6618L7.97026 11.7234ZM8.01488 12.0709H8.36488V12.0588L8.36405 12.0468L8.01488 12.0709ZM8.01488 12.071H7.66489V12.0833L7.66574 12.0955L8.01488 12.071ZM8.02632 12.4066L8.37632 12.4067V12.4064L8.02632 12.4066ZM8.72022 12.0218C8.71099 11.8884 8.69256 11.746 8.66622 11.5987L7.97715 11.7219C7.99981 11.8486 8.01467 11.9657 8.02189 12.0701L8.72022 12.0218ZM8.6662 11.5986C8.63908 11.4472 8.60373 11.3016 8.56038 11.166L7.89361 11.3791C7.9265 11.482 7.95484 11.5973 7.97717 11.722L8.6662 11.5986ZM8.56037 11.1659C8.51338 11.019 8.45001 10.8751 8.37219 10.738L7.76348 11.0837C7.81814 11.1799 7.86178 11.2795 7.89363 11.3791L8.56037 11.1659ZM8.37229 10.7382C8.28873 10.5908 8.18776 10.4576 8.07006 10.3448L7.58578 10.8503C7.64919 10.911 7.70962 10.9887 7.76337 11.0835L8.37229 10.7382ZM8.07011 10.3449C7.93967 10.2199 7.78426 10.1235 7.61239 10.0553L7.35407 10.7059C7.45033 10.7441 7.52678 10.7937 7.58573 10.8502L8.07011 10.3449ZM7.61219 10.0552C7.43351 9.98441 7.24118 9.95083 7.0432 9.95083V10.6508C7.16197 10.6508 7.26575 10.6709 7.35427 10.706L7.61219 10.0552ZM7.0432 9.95083C6.86871 9.95083 6.73189 10.0318 6.61347 10.109L6.99589 10.6953C7.02126 10.6788 7.04045 10.667 7.05525 10.6586C7.0701 10.6502 7.07808 10.6465 7.08105 10.6452C7.08358 10.6441 7.07992 10.6459 7.07156 10.6478C7.06254 10.6498 7.05262 10.6508 7.0432 10.6508V9.95083ZM6.61325 10.1092C6.54287 10.1551 6.46019 10.2086 6.36753 10.2679L6.74491 10.8574C6.83894 10.7972 6.9235 10.7426 6.99611 10.6952L6.61325 10.1092ZM6.3679 10.2676C6.32211 10.2968 6.24436 10.3336 6.12697 10.3715L6.34248 11.0375C6.49219 10.9891 6.63069 10.9303 6.74453 10.8577L6.3679 10.2676ZM6.12679 10.3716C6.02964 10.4031 5.93372 10.4182 5.8415 10.4182V11.1182C6.01054 11.1182 6.17921 11.0905 6.34265 11.0375L6.12679 10.3716ZM5.8415 10.4182C5.7494 10.4182 5.65346 10.4031 5.55614 10.3716L5.34042 11.0375C5.50389 11.0905 5.67254 11.1182 5.8415 11.1182V10.4182ZM5.55604 10.3715C5.4387 10.3336 5.36105 10.2969 5.31557 10.2678L4.93847 10.8576C5.05235 10.9304 5.19104 10.9892 5.34053 11.0375L5.55604 10.3715ZM5.31573 10.2679C5.22391 10.2091 5.14113 10.1557 5.06962 10.109L4.68702 10.6952C4.76065 10.7433 4.84522 10.7979 4.93832 10.8575L5.31573 10.2679ZM5.06964 10.109C4.95124 10.0317 4.81443 9.95078 4.6399 9.95078V10.6508C4.63048 10.6508 4.62056 10.6497 4.61153 10.6477C4.60316 10.6459 4.59949 10.6441 4.602 10.6451C4.60496 10.6464 4.61291 10.6501 4.62773 10.6585C4.64251 10.6669 4.66167 10.6787 4.68701 10.6952L5.06964 10.109ZM4.6399 9.95078C4.4418 9.95078 4.24947 9.98443 4.07082 10.0553L4.32901 10.706C4.41747 10.6709 4.52115 10.6508 4.6399 10.6508V9.95078ZM4.07088 10.0553C3.89901 10.1235 3.74352 10.2198 3.61298 10.345L4.09738 10.8503C4.15641 10.7937 4.23288 10.7441 4.32895 10.706L4.07088 10.0553ZM3.61297 10.345C3.49536 10.4577 3.39439 10.5908 3.31083 10.7382L3.91979 11.0835C3.97346 10.9888 4.03389 10.9111 4.09738 10.8503L3.61297 10.345ZM3.31085 10.7382C3.23326 10.8751 3.16983 11.0188 3.1228 11.166L3.78959 11.3791C3.8214 11.2795 3.86508 11.18 3.91977 11.0835L3.31085 10.7382ZM3.12277 11.1661C3.07951 11.3016 3.04416 11.4472 3.01704 11.5986L3.70606 11.722C3.7284 11.5974 3.75674 11.482 3.78962 11.379L3.12277 11.1661ZM3.01705 11.5985C2.99061 11.7459 2.97224 11.8884 2.96301 12.022L3.66135 12.0702C3.66858 11.9655 3.6834 11.8484 3.70605 11.7221L3.01705 11.5985ZM2.96302 12.0219C2.95435 12.1469 2.95 12.2763 2.95 12.4066H3.65C3.65 12.2917 3.65384 12.1785 3.66134 12.0704L2.96302 12.0219ZM2.95 12.4066C2.95 12.8046 3.07932 13.1599 3.35887 13.4266L3.8421 12.9202C3.72289 12.8064 3.65 12.6458 3.65 12.4066H2.95ZM3.35898 13.4267C3.63164 13.6867 3.98385 13.8063 4.37479 13.8063V13.1063C4.13195 13.1063 3.96316 13.0356 3.84199 12.9201L3.35898 13.4267ZM4.37479 13.8063H7.30858V13.1063H4.37479V13.8063ZM7.30858 13.8063C7.69946 13.8063 8.05164 13.6867 8.32432 13.4268L7.84137 12.92C7.72013 13.0356 7.55131 13.1063 7.30858 13.1063V13.8063ZM8.32434 13.4267C8.6041 13.1601 8.73338 12.8046 8.73338 12.4065H8.03338C8.03338 12.6459 7.96044 12.8065 7.84135 12.9201L8.32434 13.4267ZM8.73338 12.4064C8.73333 12.2758 8.72894 12.1463 8.7202 12.0216L8.02191 12.0704C8.02945 12.1781 8.03333 12.2913 8.03338 12.4067L8.73338 12.4064ZM7.59513 12.6609C7.54553 12.7082 7.4677 12.7486 7.30854 12.7486V13.4486C7.59991 13.4486 7.86756 13.3684 8.07819 13.1675L7.59513 12.6609ZM7.30854 12.7486H4.37479V13.4486H7.30854V12.7486ZM4.37479 12.7486C4.21555 12.7486 4.13773 12.7082 4.0882 12.661L3.60515 13.1676C3.81574 13.3684 4.0834 13.4486 4.37479 13.4486V12.7486ZM4.08822 12.661C4.04624 12.621 4.00706 12.556 4.00706 12.4066H3.30706C3.30706 12.6969 3.39189 12.9642 3.60513 13.1676L4.08822 12.661ZM4.00706 12.4066C4.00706 12.2998 4.01058 12.1949 4.01751 12.0951L3.3192 12.0466C3.31107 12.1636 3.30706 12.2846 3.30706 12.4066H4.00706ZM4.01752 12.095C4.02385 12.0033 4.03706 11.8992 4.05748 11.7853L3.36848 11.6617C3.34437 11.7961 3.32754 11.9257 3.31919 12.0467L4.01752 12.095ZM4.05749 11.7853C4.07715 11.6756 4.10166 11.5757 4.12963 11.4881L3.46284 11.2751C3.42425 11.3959 3.39279 11.5261 3.36847 11.6617L4.05749 11.7853ZM4.12961 11.4882C4.1539 11.4122 4.18756 11.3354 4.23022 11.2601L3.62127 10.9149C3.55589 11.0302 3.50244 11.1512 3.46286 11.275L4.12961 11.4882ZM4.23012 11.2603C4.26746 11.1945 4.30676 11.1447 4.34433 11.1086L3.85979 10.6034C3.76646 10.693 3.68714 10.7989 3.62137 10.9147L4.23012 11.2603ZM4.34435 11.1086C4.36825 11.0857 4.40517 11.0605 4.46036 11.0386L4.20239 10.3878C4.07573 10.438 3.95832 10.5089 3.85978 10.6035L4.34435 11.1086ZM4.46039 11.0386C4.50155 11.0222 4.55486 11.0105 4.62194 11.0087L4.6032 10.309C4.46509 10.3127 4.32939 10.3375 4.20237 10.3878L4.46039 11.0386ZM4.44805 10.9678C4.44951 10.9686 4.46271 10.9757 4.492 10.9948L4.87483 10.4088C4.83197 10.3808 4.80063 10.3625 4.77709 10.3499L4.44805 10.9678ZM4.49208 10.9949C4.56649 11.0434 4.652 11.0987 4.74631 11.159L5.12358 10.5694C5.03083 10.5101 4.94713 10.456 4.87475 10.4087L4.49208 10.9949ZM4.74654 11.1592C4.88434 11.2472 5.04957 11.3193 5.23078 11.3779L5.44619 10.7119C5.30283 10.6655 5.1964 10.6159 5.12335 10.5693L4.74654 11.1592ZM5.23063 11.3778C5.42996 11.4424 5.63551 11.4759 5.84155 11.4759V10.7759C5.71168 10.7759 5.57883 10.7548 5.44634 10.7119L5.23063 11.3778ZM5.84155 11.4759C6.04756 11.4759 6.25316 11.4424 6.4524 11.3779L6.23674 10.7119C6.10435 10.7548 5.97144 10.7759 5.84155 10.7759V11.4759ZM6.45236 11.3779C6.63361 11.3192 6.79879 11.2472 6.93675 11.1591L6.55993 10.5692C6.48675 10.6159 6.38037 10.6655 6.23678 10.7119L6.45236 11.3779ZM6.93707 11.1589C7.03338 11.0972 7.11658 11.0435 7.19115 10.9948L6.80822 10.4088C6.736 10.456 6.65473 10.5085 6.55961 10.5694L6.93707 11.1589ZM7.19084 10.995C7.22057 10.9756 7.23379 10.9685 7.23505 10.9678L6.90601 10.3499C6.88226 10.3626 6.85095 10.381 6.80854 10.4086L7.19084 10.995ZM7.06117 11.0087C7.12829 11.0105 7.18162 11.0222 7.22287 11.0386L7.48076 10.3878C7.35373 10.3375 7.21806 10.3127 7.0799 10.309L7.06117 11.0087ZM7.22278 11.0385C7.27785 11.0604 7.31487 11.0857 7.3389 11.1087L7.82327 10.6034C7.72485 10.509 7.60754 10.4381 7.48086 10.3879L7.22278 11.0385ZM7.3389 11.1087C7.37639 11.1446 7.41564 11.1944 7.45295 11.2602L8.06185 10.9149C7.99606 10.7989 7.91668 10.6929 7.82326 10.6033L7.3389 11.1087ZM7.45303 11.2604C7.49568 11.3355 7.52935 11.4123 7.55356 11.4881L8.22035 11.275C8.18078 11.1512 8.12725 11.0301 8.06178 10.9148L7.45303 11.2604ZM7.55356 11.4881C7.58162 11.5759 7.60616 11.6758 7.62574 11.7851L8.31478 11.6618C8.29048 11.5261 8.25895 11.3959 8.22035 11.2751L7.55356 11.4881ZM7.62571 11.785C7.64615 11.8994 7.65939 12.0036 7.66572 12.0951L8.36405 12.0468C8.35569 11.9258 8.33881 11.7963 8.3148 11.6619L7.62571 11.785ZM7.66489 12.0709V12.071H8.36488V12.0709H7.66489ZM7.66574 12.0955C7.67271 12.1948 7.67628 12.2996 7.67632 12.4067L8.37632 12.4064C8.37627 12.2842 8.37221 12.1632 8.36403 12.0465L7.66574 12.0955ZM7.67632 12.4065C7.67629 12.5561 7.63709 12.6209 7.59516 12.6609L8.07816 13.1676C8.29143 12.9643 8.37626 12.697 8.37632 12.4067L7.67632 12.4065Z" fill="#4B4A4B"/>
</svg>
