<svg width="20" height="20" viewBox="0 0 20 20" fill="none" xmlns="http://www.w3.org/2000/svg">
<path d="M6.32824 10.7074C7.24968 10.7074 8.04747 10.3769 8.69951 9.72482C9.35134 9.07287 9.68193 8.27516 9.68193 7.35358C9.68193 6.43233 9.35144 5.63451 8.6994 4.98234C8.04736 4.33049 7.24957 4 6.32824 4C5.40669 4 4.60901 4.33049 3.95707 4.98245C3.30514 5.6344 2.97455 6.43222 2.97455 7.35358C2.97455 8.27516 3.30514 9.07297 3.95707 9.72493C4.60922 10.3768 5.40701 10.7074 6.32824 10.7074ZM4.53411 5.5594C5.03435 5.05915 5.62117 4.81598 6.32824 4.81598C7.0352 4.81598 7.62212 5.05915 8.12247 5.5594C8.6227 6.05976 8.86597 6.6467 8.86597 7.35358C8.86597 8.06067 8.6227 8.64751 8.12247 9.14787C7.62212 9.64823 7.0352 9.8914 6.32824 9.8914C5.62138 9.8914 5.03457 9.64812 4.53411 9.14787C4.03377 8.64761 3.7905 8.06067 3.7905 7.35358C3.7905 6.6467 4.03377 6.05976 4.53411 5.5594Z" fill="#4B4A4B" stroke="#4B4A4B" stroke-width="0.2"/>
<path d="M12.7779 15.4744C12.7573 15.1771 12.7157 14.8527 12.6545 14.5102C12.5926 14.1651 12.513 13.8389 12.4177 13.5407C12.3192 13.2325 12.1854 12.9282 12.0198 12.6365C11.8482 12.3338 11.6464 12.0702 11.42 11.8533C11.1833 11.6264 10.8934 11.444 10.5583 11.3109C10.2243 11.1785 9.85413 11.1114 9.45818 11.1114C9.30268 11.1114 9.1523 11.1754 8.86187 11.3648C8.68313 11.4816 8.47406 11.6166 8.2407 11.766C8.04115 11.8934 7.77083 12.0127 7.43694 12.1208C7.11119 12.2264 6.78044 12.2799 6.45387 12.2799C6.12753 12.2799 5.79678 12.2264 5.4708 12.1208C5.13726 12.0128 4.86682 11.8935 4.66763 11.7661C4.43647 11.6181 4.22728 11.4831 4.04587 11.3647C3.75568 11.1752 3.60529 11.1113 3.44979 11.1113C3.05373 11.1113 2.6837 11.1785 2.34981 11.311C2.01487 11.4438 1.72491 11.6263 1.48795 11.8534C1.26156 12.0705 1.05981 12.3339 0.888271 12.6365C0.722895 12.9282 0.589014 13.2324 0.490462 13.5408C0.395281 13.839 0.315673 14.1651 0.253846 14.5102C0.192484 14.8523 0.150995 15.1767 0.130424 15.4748C0.110203 15.7662 0.0999756 16.0695 0.0999756 16.3759C0.0999756 17.1725 0.352746 17.8174 0.851198 18.293C1.34349 18.7624 1.99477 19.0003 2.78701 19.0003H10.1217C10.9137 19.0003 11.5649 18.7624 12.0574 18.293C12.5559 17.8178 12.8087 17.1727 12.8087 16.3758C12.8086 16.0683 12.7982 15.7651 12.7779 15.4744ZM11.4419 17.6451C11.1166 17.9553 10.6847 18.1061 10.1215 18.1061H2.78701C2.22371 18.1061 1.79185 17.9553 1.46668 17.6452C1.14767 17.341 0.992633 16.9257 0.992633 16.3759C0.992633 16.09 1.00205 15.8077 1.02087 15.5366C1.03924 15.2707 1.07677 14.9786 1.13244 14.6682C1.18741 14.3616 1.25737 14.0739 1.34058 13.8135C1.42043 13.5638 1.52932 13.3165 1.66436 13.0783C1.79325 12.8512 1.94154 12.6564 2.10517 12.4995C2.25823 12.3527 2.45115 12.2325 2.67847 12.1424C2.8887 12.059 3.12497 12.0134 3.38146 12.0065C3.41272 12.0232 3.46839 12.055 3.55857 12.1139C3.74208 12.2337 3.95359 12.3704 4.18742 12.52C4.451 12.6883 4.79058 12.8404 5.19629 12.9716C5.61107 13.106 6.0341 13.1742 6.45399 13.1742C6.87388 13.1742 7.29702 13.106 7.71156 12.9717C8.11762 12.8403 8.45709 12.6883 8.72102 12.5198C8.96031 12.3665 9.16589 12.2338 9.3494 12.1139C9.43958 12.0551 9.49525 12.0232 9.52651 12.0065C9.78312 12.0134 10.0194 12.059 10.2297 12.1424C10.4569 12.2325 10.6499 12.3528 10.8029 12.4995C10.9665 12.6563 11.1148 12.8511 11.2437 13.0784C11.3789 13.3165 11.4879 13.5639 11.5676 13.8134C11.6509 14.0742 11.721 14.3618 11.7759 14.6681C11.8314 14.9791 11.8691 15.2713 11.8874 15.5367V15.537C11.9064 15.807 11.9159 16.0892 11.916 16.3759C11.9159 16.9258 11.7609 17.341 11.4419 17.6451Z" fill="#4B4A4B"/>
<path d="M12.6545 14.5102L12.7529 14.4926L12.7529 14.4926L12.6545 14.5102ZM12.4177 13.5407L12.513 13.5103L12.513 13.5102L12.4177 13.5407ZM12.0198 12.6365L11.9328 12.6859L11.9329 12.6859L12.0198 12.6365ZM11.42 11.8533L11.3508 11.9255L11.3508 11.9255L11.42 11.8533ZM10.5583 11.3109L10.5952 11.2179L10.5951 11.2179L10.5583 11.3109ZM8.86187 11.3648L8.80724 11.281L8.80718 11.2811L8.86187 11.3648ZM8.2407 11.766L8.2945 11.8503L8.29461 11.8502L8.2407 11.766ZM7.43694 12.1208L7.40616 12.0256L7.40611 12.0256L7.43694 12.1208ZM5.4708 12.1208L5.50161 12.0256L5.50158 12.0256L5.4708 12.1208ZM4.66763 11.7661L4.61371 11.8503L4.61375 11.8504L4.66763 11.7661ZM4.04587 11.3647L3.99121 11.4484L3.99121 11.4484L4.04587 11.3647ZM2.34981 11.311L2.38668 11.404L2.38669 11.404L2.34981 11.311ZM1.48795 11.8534L1.41875 11.7812L1.41875 11.7812L1.48795 11.8534ZM0.888271 12.6365L0.975259 12.6859L0.975265 12.6858L0.888271 12.6365ZM0.490462 13.5408L0.395207 13.5104L0.395198 13.5104L0.490462 13.5408ZM0.253846 14.5102L0.352275 14.5279L0.352279 14.5278L0.253846 14.5102ZM0.130424 15.4748L0.230184 15.4817L0.230187 15.4817L0.130424 15.4748ZM0.851198 18.293L0.782165 18.3654L0.782196 18.3654L0.851198 18.293ZM12.0574 18.293L12.1263 18.3654L12.1264 18.3654L12.0574 18.293ZM12.8087 16.3758H12.9087V16.3758L12.8087 16.3758ZM1.46668 17.6452L1.39767 17.7176L1.39767 17.7176L1.46668 17.6452ZM1.02087 15.5366L1.12063 15.5436L1.12064 15.5435L1.02087 15.5366ZM1.13244 14.6682L1.23087 14.6858L1.23087 14.6858L1.13244 14.6682ZM1.34058 13.8135L1.24533 13.783L1.24533 13.7831L1.34058 13.8135ZM1.66436 13.0783L1.5774 13.0289L1.57737 13.0289L1.66436 13.0783ZM2.10517 12.4995L2.17439 12.5717L2.1744 12.5717L2.10517 12.4995ZM2.67847 12.1424L2.71532 12.2354L2.71533 12.2354L2.67847 12.1424ZM3.38146 12.0065L3.42847 11.9183L3.40517 11.9059L3.37878 11.9066L3.38146 12.0065ZM3.55857 12.1139L3.50388 12.1976L3.50391 12.1976L3.55857 12.1139ZM4.18742 12.52L4.13352 12.6042L4.13359 12.6043L4.18742 12.52ZM5.19629 12.9716L5.22711 12.8765L5.22707 12.8765L5.19629 12.9716ZM7.71156 12.9717L7.68077 12.8766L7.68076 12.8766L7.71156 12.9717ZM8.72102 12.5198L8.77485 12.604L8.77494 12.604L8.72102 12.5198ZM9.3494 12.1139L9.29479 12.0301L9.29469 12.0302L9.3494 12.1139ZM9.52651 12.0065L9.52919 11.9066L9.5028 11.9059L9.47951 11.9183L9.52651 12.0065ZM10.2297 12.1424L10.2666 12.0495L10.2666 12.0494L10.2297 12.1424ZM10.8029 12.4995L10.7337 12.5717L10.7337 12.5717L10.8029 12.4995ZM11.2437 13.0784L11.1567 13.1277L11.1568 13.1277L11.2437 13.0784ZM11.5676 13.8134L11.6629 13.7829L11.6629 13.7829L11.5676 13.8134ZM11.7759 14.6681L11.8743 14.6505L11.8743 14.6504L11.7759 14.6681ZM11.8874 15.5367H11.9877L11.9872 15.5298L11.8874 15.5367ZM11.8874 15.537H11.7872L11.7877 15.544L11.8874 15.537ZM11.916 16.3759L12.016 16.376V16.3759L11.916 16.3759ZM12.8777 15.4675C12.8568 15.166 12.8147 14.8381 12.7529 14.4926L12.556 14.5278C12.6168 14.8674 12.6579 15.1881 12.6781 15.4814L12.8777 15.4675ZM12.7529 14.4926C12.6904 14.1437 12.6098 13.8131 12.513 13.5103L12.3225 13.5711C12.4163 13.8646 12.4949 14.1866 12.556 14.5278L12.7529 14.4926ZM12.513 13.5102C12.4123 13.1953 12.2757 12.8846 12.1068 12.5872L11.9329 12.6859C12.0952 12.9717 12.2261 13.2697 12.3225 13.5712L12.513 13.5102ZM12.1068 12.5872C11.9309 12.277 11.7234 12.0055 11.4892 11.7811L11.3508 11.9255C11.5695 12.135 11.7654 12.3907 11.9328 12.6859L12.1068 12.5872ZM11.4892 11.7811C11.2423 11.5444 10.9412 11.3553 10.5952 11.2179L10.5214 11.4038C10.8457 11.5326 11.1243 11.7084 11.3508 11.9255L11.4892 11.7811ZM10.5951 11.2179C10.2482 11.0804 9.86544 11.0114 9.45818 11.0114V11.2114C9.84281 11.2114 10.2003 11.2766 10.5214 11.4038L10.5951 11.2179ZM9.45818 11.0114C9.2706 11.0114 9.09831 11.0912 8.80724 11.281L8.9165 11.4485C9.20628 11.2595 9.33476 11.2114 9.45818 11.2114V11.0114ZM8.80718 11.2811C8.62876 11.3976 8.41995 11.5325 8.18678 11.6818L8.29461 11.8502C8.52816 11.7007 8.73751 11.5655 8.91657 11.4485L8.80718 11.2811ZM8.18689 11.6817C7.99707 11.8029 7.73543 11.9191 7.40616 12.0256L7.46773 12.2159C7.80624 12.1064 8.08523 11.9839 8.2945 11.8503L8.18689 11.6817ZM7.40611 12.0256C7.08982 12.1282 6.76946 12.1799 6.45387 12.1799V12.3799C6.79141 12.3799 7.13256 12.3246 7.46778 12.2159L7.40611 12.0256ZM6.45387 12.1799C6.13851 12.1799 5.81815 12.1282 5.50161 12.0256L5.43998 12.2159C5.77542 12.3245 6.11655 12.3799 6.45387 12.3799V12.1799ZM5.50158 12.0256C5.17263 11.9192 4.91092 11.803 4.7215 11.6819L4.61375 11.8504C4.82272 11.984 5.10188 12.1065 5.44001 12.2159L5.50158 12.0256ZM4.72154 11.6819C4.49057 11.534 4.28164 11.3991 4.10052 11.2809L3.99121 11.4484C4.17293 11.567 4.38237 11.7022 4.61371 11.8503L4.72154 11.6819ZM4.10053 11.2809C3.80967 11.0911 3.63739 11.0113 3.44979 11.0113V11.2113C3.5732 11.2113 3.70168 11.2594 3.99121 11.4484L4.10053 11.2809ZM3.44979 11.0113C3.04239 11.0113 2.6597 11.0804 2.31292 11.2181L2.38669 11.404C2.7077 11.2766 3.06506 11.2113 3.44979 11.2113V11.0113ZM2.31294 11.218C1.96718 11.3552 1.66593 11.5443 1.41875 11.7812L1.55715 11.9256C1.7839 11.7083 2.06257 11.5325 2.38668 11.404L2.31294 11.218ZM1.41875 11.7812C1.18463 12.0057 0.977083 12.2771 0.801277 12.5872L0.975265 12.6858C1.14253 12.3908 1.33849 12.1352 1.55715 11.9256L1.41875 11.7812ZM0.801282 12.5872C0.632635 12.8846 0.495933 13.1952 0.395207 13.5104L0.585717 13.5713C0.682094 13.2696 0.813155 12.9717 0.975259 12.6859L0.801282 12.5872ZM0.395198 13.5104C0.298535 13.8132 0.217925 14.1437 0.155413 14.4926L0.352279 14.5278C0.413421 14.1866 0.492028 13.8648 0.585726 13.5712L0.395198 13.5104ZM0.155417 14.4925C0.0935143 14.8376 0.0515169 15.1657 0.0306616 15.4679L0.230187 15.4817C0.250472 15.1878 0.291453 14.8669 0.352275 14.5279L0.155417 14.4925ZM0.0306642 15.4679C0.0102746 15.7617 -2.44156e-05 16.0673 -2.44156e-05 16.3759H0.199976C0.199976 16.0717 0.210131 15.7707 0.230184 15.4817L0.0306642 15.4679ZM-2.44156e-05 16.3759C-2.44156e-05 17.1952 0.260808 17.8679 0.782165 18.3654L0.920231 18.2207C0.444684 17.7669 0.199976 17.1499 0.199976 16.3759H-2.44156e-05ZM0.782196 18.3654C1.29613 18.8554 1.97361 19.1003 2.78701 19.1003V18.9003C2.01592 18.9003 1.39085 18.6694 0.9202 18.2207L0.782196 18.3654ZM2.78701 19.1003H10.1217V18.9003H2.78701V19.1003ZM10.1217 19.1003C10.9348 19.1003 11.6123 18.8554 12.1263 18.3654L11.9884 18.2207C11.5176 18.6694 10.8925 18.9003 10.1217 18.9003V19.1003ZM12.1264 18.3654C12.6479 17.8683 12.9087 17.1953 12.9087 16.3758H12.7087C12.7087 17.15 12.464 17.7673 11.9884 18.2207L12.1264 18.3654ZM12.9087 16.3758C12.9086 16.0661 12.8982 15.7605 12.8777 15.4675L12.6781 15.4814C12.6983 15.7696 12.7086 16.0706 12.7087 16.3759L12.9087 16.3758ZM11.3729 17.5728C11.0706 17.861 10.6658 18.0061 10.1215 18.0061V18.2061C10.7036 18.2061 11.1626 18.0496 11.5109 17.7175L11.3729 17.5728ZM10.1215 18.0061H2.78701V18.2061H10.1215V18.0061ZM2.78701 18.0061C2.24259 18.0061 1.83785 17.861 1.53569 17.5729L1.39767 17.7176C1.74585 18.0496 2.20483 18.2061 2.78701 18.2061V18.0061ZM1.53569 17.5729C1.24114 17.292 1.09263 16.9056 1.09263 16.3759H0.892633C0.892633 16.9458 1.05419 17.3901 1.39767 17.7176L1.53569 17.5729ZM1.09263 16.3759C1.09263 16.0922 1.10198 15.8121 1.12063 15.5436L0.921114 15.5297C0.902117 15.8032 0.892633 16.0878 0.892633 16.3759H1.09263ZM1.12064 15.5435C1.13871 15.2818 1.17573 14.9933 1.23087 14.6858L1.03401 14.6505C0.977818 14.9639 0.939763 15.2596 0.921111 15.5297L1.12064 15.5435ZM1.23087 14.6858C1.28518 14.383 1.35415 14.0996 1.43584 13.8439L1.24533 13.7831C1.1606 14.0483 1.08965 14.3403 1.03401 14.6505L1.23087 14.6858ZM1.43584 13.8439C1.51349 13.601 1.61956 13.3601 1.75136 13.1276L1.57737 13.0289C1.43908 13.2729 1.32736 13.5265 1.24533 13.783L1.43584 13.8439ZM1.75133 13.1276C1.87615 12.9077 2.01872 12.721 2.17439 12.5717L2.03595 12.4273C1.86435 12.5919 1.71034 12.7947 1.5774 13.0289L1.75133 13.1276ZM2.1744 12.5717C2.31679 12.4351 2.49821 12.3214 2.71532 12.2354L2.64161 12.0494C2.40409 12.1436 2.19967 12.2703 2.03595 12.4273L2.1744 12.5717ZM2.71533 12.2354C2.9133 12.1569 3.13779 12.1131 3.38414 12.1065L3.37878 11.9066C3.11215 11.9137 2.86411 11.9612 2.64161 12.0495L2.71533 12.2354ZM3.33445 12.0948C3.36256 12.1098 3.41564 12.14 3.50388 12.1976L3.61326 12.0302C3.52114 11.97 3.46288 11.9366 3.42847 11.9183L3.33445 12.0948ZM3.50391 12.1976C3.6877 12.3176 3.89947 12.4545 4.13352 12.6042L4.24131 12.4358C4.00771 12.2863 3.79646 12.1498 3.61324 12.0302L3.50391 12.1976ZM4.13359 12.6043C4.40642 12.7785 4.7544 12.9338 5.16552 13.0668L5.22707 12.8765C4.82676 12.747 4.49558 12.5982 4.24125 12.4357L4.13359 12.6043ZM5.16548 13.0667C5.5898 13.2042 6.02322 13.2742 6.45399 13.2742V13.0742C6.04498 13.0742 5.63234 13.0077 5.22711 12.8765L5.16548 13.0667ZM6.45399 13.2742C6.88475 13.2742 7.31828 13.2042 7.74237 13.0669L7.68076 12.8766C7.27576 13.0077 6.863 13.0742 6.45399 13.0742V13.2742ZM7.74236 13.0669C8.1538 12.9337 8.50167 12.7785 8.77485 12.604L8.66719 12.4355C8.41251 12.5982 8.08144 12.7469 7.68077 12.8766L7.74236 13.0669ZM8.77494 12.604C9.0144 12.4506 9.22026 12.3177 9.4041 12.1976L9.29469 12.0302C9.11153 12.1499 8.90621 12.2824 8.66709 12.4355L8.77494 12.604ZM9.40401 12.1977C9.49239 12.14 9.54547 12.1097 9.57352 12.0948L9.47951 11.9183C9.44503 11.9366 9.38678 11.9701 9.29479 12.0301L9.40401 12.1977ZM9.52384 12.1065C9.77029 12.1131 9.9948 12.1569 10.1929 12.2354L10.2666 12.0494C10.044 11.9612 9.79594 11.9137 9.52919 11.9066L9.52384 12.1065ZM10.1929 12.2354C10.4098 12.3214 10.5913 12.4352 10.7337 12.5717L10.8721 12.4273C10.7084 12.2704 10.504 12.1436 10.2666 12.0495L10.1929 12.2354ZM10.7337 12.5717C10.8894 12.7209 11.0319 12.9076 11.1567 13.1277L11.3307 13.029C11.1978 12.7946 11.0437 12.5918 10.8721 12.4273L10.7337 12.5717ZM11.1568 13.1277C11.2887 13.3601 11.3948 13.6012 11.4724 13.8438L11.6629 13.7829C11.581 13.5266 11.4691 13.2728 11.3307 13.029L11.1568 13.1277ZM11.4724 13.8438C11.5542 14.0999 11.6233 14.3831 11.6774 14.6857L11.8743 14.6504C11.8188 14.3404 11.7477 14.0485 11.6629 13.7829L11.4724 13.8438ZM11.6774 14.6857C11.7325 14.9938 11.7696 15.2824 11.7877 15.5436L11.9872 15.5298C11.9686 15.2602 11.9304 14.9643 11.8743 14.6505L11.6774 14.6857ZM11.7874 15.5367V15.537H11.9874V15.5367H11.7874ZM11.7877 15.544C11.8065 15.8115 11.8159 16.0914 11.816 16.376L12.016 16.3759C12.0159 16.087 12.0063 15.8024 11.9872 15.53L11.7877 15.544ZM11.816 16.3759C11.8159 16.9057 11.6674 17.292 11.3729 17.5727L11.5109 17.7175C11.8544 17.3901 12.0159 16.946 12.016 16.376L11.816 16.3759Z" fill="#4B4A4B"/>
<path d="M19.4926 5.83458C19.6667 5.64367 19.6667 5.35152 19.4926 5.16062L16.5664 1.95299C16.2586 1.61568 15.697 1.83338 15.697 2.28997V3.69412H15.2203C14.0397 3.69412 12.9296 4.15376 12.0947 4.98838C11.2598 5.823 10.8 6.93269 10.8 8.11303V8.83211C10.8 9.24564 11.3086 9.4429 11.5874 9.1375C12.6408 7.98387 14.136 7.31652 15.697 7.30135V8.70528C15.697 9.16187 16.2586 9.37957 16.5664 9.04225L19.4926 5.83458ZM11.3276 8.64415V8.11303C11.3276 7.07359 11.7325 6.09628 12.4677 5.3613C13.203 4.62631 14.1805 4.22153 15.2203 4.22153H16.2245V2.361L19.086 5.4976L16.2245 8.63426V6.77373H15.7512C14.0859 6.77373 12.4845 7.45316 11.3276 8.64415Z" fill="#4B4A4B" stroke="#4B4A4B" stroke-width="0.47"/>
</svg>
