<svg width="30" height="30" viewBox="0 0 30 30" fill="none" xmlns="http://www.w3.org/2000/svg">
<path d="M15 0C6.72867 0 0 6.72867 0 15C0 23.2713 6.72867 30 15 30C23.2713 30 30 23.2713 30 15C30 6.72867 23.2713 0 15 0Z" fill="white"/>
<path d="M20.524 18.7559C21.0127 19.2448 21.0127 20.0346 20.524 20.5235C20.2803 20.7673 19.9603 20.8898 19.6401 20.8898C19.3201 20.8898 19.0001 20.7673 18.7564 20.5235L15.0002 16.7671L11.244 20.5235C11.0003 20.7673 10.6803 20.8898 10.3603 20.8898C10.0401 20.8898 9.72012 20.7673 9.47636 20.5235C8.9877 20.0346 8.9877 19.2448 9.47636 18.7559L13.2328 14.9997L9.47636 11.2435C8.9877 10.7546 8.9877 9.96476 9.47636 9.47587C9.96525 8.98721 10.7551 8.98721 11.244 9.47587L15.0002 13.2323L18.7564 9.47587C19.2453 8.98721 20.0351 8.98721 20.524 9.47587C21.0127 9.96476 21.0127 10.7546 20.524 11.2435L16.7676 14.9997L20.524 18.7559Z" fill="#FA3D54"/>
</svg>
