<svg width="15" height="15" viewBox="0 0 15 15" fill="none" xmlns="http://www.w3.org/2000/svg">
<path d="M8.2172 14.958C11.2262 14.6209 13.6377 12.2155 13.9809 9.20656C14.4313 5.2722 11.3733 1.92309 7.54002 1.88019V0.115243C7.54002 0.0171904 7.41746 -0.0349001 7.33472 0.0263828L3.70065 2.69525C3.63937 2.74121 3.63937 2.83007 3.70065 2.87604L7.33472 5.54491C7.41746 5.60619 7.54002 5.55103 7.54002 5.45605V3.69416C10.2334 3.73706 12.3906 6.02904 12.2067 8.76838C12.0504 11.1247 10.1292 13.0367 7.7729 13.1869C5.27562 13.3462 3.15217 11.5629 2.77221 9.20349C2.70174 8.76532 2.31872 8.44665 1.87748 8.44665C1.329 8.44665 0.900022 8.93385 0.985819 9.4762C1.51898 12.8376 4.62296 15.3594 8.2172 14.958Z" fill="url(#paint0_linear)"/>
<defs>
<linearGradient id="paint0_linear" x1="-0.600161" y1="-1.02271" x2="9.86696" y2="19.1103" gradientUnits="userSpaceOnUse">
<stop stop-color="#54B56F"/>
<stop offset="1" stop-color="#2B90AB"/>
</linearGradient>
</defs>
</svg>
