<svg width="20" height="20" viewBox="0 0 20 20" fill="none" xmlns="http://www.w3.org/2000/svg">
<path d="M19.2188 12.2266C18.7873 12.2266 18.4375 12.5763 18.4375 13.0078V17.6562C18.4375 18.087 18.087 18.4375 17.6562 18.4375H2.34375C1.91297 18.4375 1.5625 18.087 1.5625 17.6562V13.0078C1.5625 12.5763 1.21272 12.2266 0.78125 12.2266C0.349778 12.2266 0 12.5763 0 13.0078V17.6562C0 18.9486 1.05141 20 2.34375 20H17.6562C18.9486 20 20 18.9486 20 17.6562V13.0078C20 12.5763 19.6502 12.2266 19.2188 12.2266Z" fill="white"/>
<path d="M14.3018 9.76008C13.9967 9.45498 13.502 9.45498 13.197 9.76008L10.7806 12.1764V0.781251C10.7806 0.349779 10.4308 0 9.99937 0C9.5679 0 9.21812 0.349778 9.21812 0.78125V12.1764L6.8018 9.76008C6.4967 9.45498 6.00205 9.45498 5.69695 9.76008C5.39186 10.0652 5.39186 10.5598 5.69695 10.8649L9.539 14.707C9.79326 14.9612 10.2055 14.9612 10.4597 14.707L14.3018 10.8649C14.6069 10.5598 14.6069 10.0652 14.3018 9.76008Z" fill="white"/>
</svg>
