<svg width="20" height="20" viewBox="0 0 20 20" fill="none" xmlns="http://www.w3.org/2000/svg">
<path d="M19.8111 18.9119L14.6474 13.8308C15.9996 12.3616 16.8305 10.4187 16.8305 8.28068C16.8298 3.7071 13.0627 0 8.41533 0C3.76798 0 0.000854492 3.7071 0.000854492 8.28068C0.000854492 12.8543 3.76798 16.5614 8.41533 16.5614C10.4233 16.5614 12.265 15.8668 13.7116 14.7122L18.8953 19.8134C19.1479 20.0622 19.5579 20.0622 19.8105 19.8134C20.0637 19.5646 20.0637 19.1607 19.8111 18.9119ZM8.41533 15.2873C4.48317 15.2873 1.29554 12.1504 1.29554 8.28068C1.29554 4.41101 4.48317 1.27403 8.41533 1.27403C12.3475 1.27403 15.5351 4.41101 15.5351 8.28068C15.5351 12.1504 12.3475 15.2873 8.41533 15.2873Z" fill="white"/>
</svg>
