<svg width="28" height="28" viewBox="0 0 28 28" fill="none" xmlns="http://www.w3.org/2000/svg">
<circle cx="14" cy="14" r="14" fill="#3B9E96"/>
<mask id="mask0" mask-type="alpha" maskUnits="userSpaceOnUse" x="0" y="0" width="28" height="28">
<rect width="28" height="28" rx="14" fill="white"/>
</mask>
<g mask="url(#mask0)">
<path d="M6.29961 20.3L10.5003 18.8993L13.9996 19.4441L18.2003 12.5993L22.1598 10.753L30.1509 18.7595L16.9191 31.9913L6.29961 20.3Z" fill="#12857C"/>
</g>
<g clip-path="url(#clip0)">
<path d="M11.9991 11.5381C11.8594 11.3524 11.694 11.187 11.5083 11.0472C11.2743 10.871 11.0085 10.7358 10.7208 10.6521C10.5019 10.5878 10.2709 10.5537 10.0317 10.5537C9.81448 10.5537 9.62318 10.6961 9.56051 10.9035L9.36921 11.5381L8.46293 14.5417L8.36975 14.8508C8.32118 15.0113 8.35761 15.1859 8.46654 15.3132C8.57581 15.4405 8.74053 15.5045 8.90885 15.4805C8.9397 15.4759 8.97087 15.4756 9.00171 15.4756C10.4061 15.4759 11.5083 16.5643 11.5083 17.9365C11.5083 18.2085 11.7284 18.4287 12.0004 18.4287C12.2725 18.4287 12.4926 18.2085 12.4926 17.9365V13.0146C12.4926 12.4611 12.3089 11.9499 11.9991 11.5381Z" fill="#FD3018"/>
<path d="M19.9058 18.4287H15.9683C15.6962 18.4287 15.4761 18.6489 15.4761 18.9209C15.4761 19.0892 15.4931 19.2539 15.5256 19.4131C15.754 20.5349 16.7485 21.3818 17.937 21.3818C19.1255 21.3818 20.12 20.5349 20.3484 19.4131C20.3809 19.2539 20.3979 19.0892 20.3979 18.9209C20.3979 18.6489 20.1778 18.4287 19.9058 18.4287Z" fill="#14477D"/>
<path d="M17.9384 20.3975C17.2967 20.3975 16.7492 19.986 16.5459 19.4131H19.3308C19.1275 19.986 18.58 20.3975 17.9384 20.3975Z" fill="#C5C9F7"/>
<path d="M13.4751 11.0459C13.4751 11.3179 13.255 11.5381 12.9829 11.5381H11.0142C10.7421 11.5381 10.522 11.3179 10.522 11.0459C10.522 10.7739 10.7421 10.5537 11.0142 10.5537H12.9829C13.255 10.5537 13.4751 10.7739 13.4751 11.0459Z" fill="#14477D"/>
<path d="M18.9219 17.4443H17.9375C17.6655 17.4443 17.4453 17.2242 17.4453 16.9521C17.4453 16.6801 17.6655 16.46 17.9375 16.46H18.9219C19.1939 16.46 19.4141 16.6801 19.4141 16.9521C19.4141 17.2242 19.1939 17.4443 18.9219 17.4443Z" fill="black"/>
<path d="M19.4145 12.5225H15.9692C15.1552 12.5225 14.4927 13.1849 14.4927 13.999V14.9178L15.5099 15.4756H19.4145C19.8867 15.4756 20.308 15.2525 20.5787 14.9063C20.7743 14.6559 20.8911 14.3406 20.8911 13.999C20.8911 13.1849 20.2286 12.5225 19.4145 12.5225Z" fill="#14477D"/>
<path d="M22.2984 17.5821C22.0621 16.6568 21.6979 15.9186 21.1959 15.3968C21.1841 15.3844 21.1726 15.3722 21.1604 15.3604C21.0774 15.2761 20.9905 15.199 20.8996 15.1274C20.8786 15.1114 20.8576 15.0953 20.8363 15.0795C20.8267 15.0723 20.8172 15.0654 20.8077 15.0585C20.789 15.0448 20.7696 15.0313 20.7503 15.0179C20.7477 15.0159 20.7447 15.0139 20.7418 15.0119C20.7155 14.9939 20.6889 14.9762 20.662 14.9588C20.6614 14.9581 20.6604 14.9578 20.6597 14.9571C20.6328 14.9401 20.6059 14.923 20.5783 14.9063C20.5774 14.9056 20.5767 14.9053 20.5757 14.9046H14.4923V14.9834C14.4923 15.0923 14.5277 15.1934 14.5878 15.2748C14.5878 15.2748 14.5878 15.2751 14.5881 15.2751C14.6105 15.3002 14.6376 15.3244 14.679 15.3689C14.6796 15.3696 14.68 15.3699 14.6806 15.3706C14.718 15.4106 14.7538 15.452 14.7883 15.4943C14.8778 15.6058 14.9543 15.7197 15.0163 15.8323C15.0354 15.8651 15.0799 15.9491 15.1236 16.0505C15.2412 16.3289 15.3093 16.6241 15.3093 16.9521C15.3093 17.5034 15.1026 18.0153 14.7581 18.4287H12.4907V17.9365C12.4907 16.0367 10.9453 14.4912 9.04541 14.4912C8.95682 14.4912 8.85838 14.4912 8.80916 14.5011C8.69136 14.5089 8.57521 14.5224 8.46102 14.5417C6.82958 14.8174 5.6001 16.2437 5.6001 17.9365V18.8553L6.58447 18.9209C6.58447 18.1039 7.244 17.4443 8.06104 17.4443C8.87807 17.4443 9.5376 18.1039 9.5376 18.9209C9.5376 19.1965 9.75416 19.4131 10.0298 19.4131H20.8612C21.3238 19.4131 21.7471 19.2064 22.0326 18.8421C22.3082 18.4779 22.4067 18.0251 22.2984 17.5821Z" fill="#FD4E26"/>
<path d="M20.9229 6.61621H16.9526C16.1386 6.61621 15.4761 7.2787 15.4761 8.09277V8.58496L15.9683 9.56934H21.9073L22.3995 8.58496V8.09277C22.3995 7.2787 21.737 6.61621 20.9229 6.61621Z" fill="#14477D"/>
<path d="M15.4761 8.58496V8.61777V11.5381C15.4761 12.0818 15.9167 12.5225 16.4604 12.5225H21.4151C21.9588 12.5225 22.3995 12.0818 22.3995 11.5381V8.58496H15.4761Z" fill="#FEA832"/>
<path d="M8.47382 16.4972C6.99824 16.2311 5.64046 17.3916 5.60108 18.8554C5.60043 18.8771 5.6001 18.899 5.6001 18.921C5.6001 19.0579 5.61388 19.198 5.63193 19.2698C5.64439 19.4099 5.67885 19.5569 5.73364 19.7079C5.95874 20.3769 6.46241 20.9177 7.11571 21.192C7.42021 21.32 7.74177 21.3839 8.06727 21.3839C8.46004 21.3839 8.85904 21.2911 9.23999 21.1067C9.88114 20.7959 10.3359 20.159 10.476 19.4132C10.5062 19.2534 10.522 19.0887 10.522 18.921C10.522 17.7165 9.65835 16.697 8.47382 16.4972Z" fill="#14477D"/>
<path d="M10.0314 8.58496L8.80096 8.66699C8.52894 8.66699 8.55486 8.80513 8.55486 9.07715V11.0459C8.55486 11.3179 8.77504 11.5381 9.04705 11.5381H11.508V10.0615C11.508 9.24745 10.8455 8.58496 10.0314 8.58496Z" fill="#FD4E26"/>
<path d="M8.06104 20.3975C7.24683 20.3975 6.58447 19.7351 6.58447 18.9209C6.58447 18.1067 7.24683 17.4443 8.06104 17.4443C8.87524 17.4443 9.5376 18.1067 9.5376 18.9209C9.5376 19.7351 8.87524 20.3975 8.06104 20.3975Z" fill="#E1E4FB"/>
<path d="M22.033 18.8418C21.7475 19.206 21.3242 19.4127 20.8616 19.4127H14.0005V18.4284H14.7585C15.103 18.0149 15.3097 17.503 15.3097 16.9518C15.3097 16.6236 15.2419 16.3293 15.124 16.0501C15.0968 15.984 15.0438 15.8784 15.0167 15.8319C14.9507 15.7121 14.8725 15.5983 14.7886 15.4939C14.7542 15.4516 14.7184 15.4103 14.681 15.3702C14.6804 15.3696 14.68 15.3692 14.6794 15.3686C14.642 15.3283 14.6129 15.302 14.5885 15.2747C14.5882 15.2747 14.5882 15.2744 14.5882 15.2744C14.5281 15.193 14.4927 15.092 14.4927 14.983V14.9043H20.5761C20.5771 14.905 20.5778 14.9053 20.5787 14.9059C20.6063 14.9227 20.6332 14.9397 20.6601 14.9568C20.6608 14.9575 20.6618 14.9578 20.6624 14.9584C20.6893 14.9758 20.7159 14.9935 20.7421 15.0116C20.7451 15.0136 20.7481 15.0155 20.7507 15.0175C20.77 15.031 20.7894 15.0444 20.8081 15.0582C20.8176 15.0651 20.8271 15.072 20.8366 15.0792C20.858 15.0949 20.879 15.111 20.9 15.1271C20.9909 15.1986 21.0778 15.2757 21.1608 15.3601C21.173 15.3719 21.1845 15.384 21.1963 15.3965C21.6983 15.9182 22.0625 16.6565 22.2988 17.5818C22.4071 18.0248 22.3086 18.4776 22.033 18.8418Z" fill="#FD3018"/>
</g>
<defs>
<clipPath id="clip0">
<rect width="16.8" height="16.8" fill="white" transform="translate(5.6001 5.59961)"/>
</clipPath>
</defs>
</svg>
