<svg width="20" height="20" viewBox="0 0 20 20" fill="none" xmlns="http://www.w3.org/2000/svg">
<circle cx="10" cy="10" r="10" fill="#FFEDAF"/>
<path d="M15.7169 8.3351L11.83 7.95707L10.2861 4.19744C10.178 3.93419 9.82202 3.93419 9.71392 4.19744L8.16998 7.9571L4.28313 8.3351C4.01098 8.36157 3.90098 8.71655 4.10632 8.9057L7.03896 11.6073L6.18072 15.6006C6.12063 15.8802 6.40858 16.0996 6.64359 15.9533L10 13.8633L13.3564 15.9533C13.5914 16.0996 13.8794 15.8802 13.8193 15.6006L12.961 11.6073L15.8937 8.9057C16.099 8.71655 15.989 8.36157 15.7169 8.3351Z" fill="#FFCE27"/>
<path d="M10.2419 4.19744C10.1346 3.93419 9.78115 3.93419 9.67381 4.19744L8.14071 7.9571L4.28114 8.3351C4.0109 8.36157 3.90168 8.71655 4.10557 8.9057L7.01762 11.6073L6.16542 15.6006C6.10574 15.8802 6.39168 16.0996 6.62503 15.9533L7.36891 15.4868C7.47187 11.0112 9.44099 7.8594 11 6.0564L10.2419 4.19744Z" fill="#FEC038"/>
</svg>
