<svg width="20" height="20" viewBox="0 0 20 20" fill="none" xmlns="http://www.w3.org/2000/svg">
<g clip-path="url(#clip0)">
<path fill-rule="evenodd" clip-rule="evenodd" d="M17.4884 4.76848C18.6222 4.74342 19.3947 4.7695 19.4323 4.77079C19.749 4.78185 20 5.04177 20.0001 5.35867V16.0712C20.0001 16.3808 19.7602 16.6374 19.4513 16.6581C19.1066 16.6813 18.7276 16.7015 18.3225 16.7231C18.2178 16.7286 18.1113 16.7343 18.0033 16.7401C19.2229 15.7313 20 14.2064 20 12.5C20 11.2165 19.5604 10.0357 18.8235 9.1V5.93608C18.4909 5.93306 18.0297 5.93322 17.4883 5.94534V7.88187C17.1237 7.64542 16.7292 7.45099 16.3119 7.30543V3.1053C14.3128 3.4082 11.8753 4.37612 10.5882 5.98201V8.63372C10.0888 9.13903 9.68649 9.74063 9.41177 10.4082V5.98201C8.12471 4.37612 5.68722 3.4082 3.68812 3.1053V13.1872C5.38443 13.5666 7.5342 14.3764 9.41177 16.0933V14.5918C9.93182 15.8555 10.9089 16.8828 12.1372 17.468C11.4763 17.6336 10.8337 17.8391 10.2308 18.0962C10.27 18.0795 10.0331 18.2089 9.76925 18.0962C7.24426 17.0193 4.02224 16.8478 1.6771 16.723C1.27213 16.7015 0.893311 16.6813 0.548745 16.6581C0.239882 16.6374 0 16.3808 0 16.0712V5.35867C0 5.02534 0.276667 4.76032 0.605686 4.77071C0.679192 4.77287 0.752151 4.77501 0.824676 4.77713C1.39581 4.79384 1.94 4.80977 2.51165 4.83134V2.44369C2.51165 2.10008 2.8049 1.8295 3.14882 1.8575C5.40969 2.04624 8.28612 3.04526 10 4.86742C11.7139 3.04526 14.5903 2.04624 16.8512 1.8575C17.1957 1.82918 17.4884 2.10099 17.4884 2.44369V4.76848ZM1.17647 5.96448V15.5177C1.3603 15.528 1.55109 15.5382 1.748 15.5487C3.45677 15.6397 5.62657 15.7553 7.70914 16.2224C6.08122 15.0441 4.33455 14.4969 2.99137 14.2448C2.71322 14.1926 2.51165 13.9497 2.51165 13.6666V6.00871C2.0482 5.99103 1.59769 5.97695 1.17647 5.96448Z" fill="#4B4A4B"/>
<circle cx="14.5" cy="12.5" r="5" stroke="#4B4A4B"/>
<path d="M16.8222 12.2258L13.528 10.5416C13.4188 10.4858 13.2846 10.4862 13.1758 10.5427C13.067 10.5991 13 10.7032 13 10.8158V14.1842C13 14.2968 13.067 14.4008 13.1758 14.4573C13.2306 14.4858 13.2917 14.5 13.3529 14.5C13.4133 14.5 13.4738 14.4861 13.528 14.4584L16.8222 12.7742C16.9321 12.718 17 12.6133 17 12.5C17 12.3867 16.9321 12.282 16.8222 12.2258ZM13.7059 13.64V11.3599L15.9357 12.5L13.7059 13.64Z" fill="#4B4A4B" stroke="#4B4A4B" stroke-width="0.5"/>
</g>
<defs>
<clipPath id="clip0">
<rect width="20" height="20" fill="white"/>
</clipPath>
</defs>
</svg>
